<?xml version="1.0" encoding="UTF-8" standalone="no"?>
<svg viewBox="0 0 512 512" id="icon" version="1.1" xmlns="http://www.w3.org/2000/svg"
    xmlns:svg="http://www.w3.org/2000/svg">
    <defs id="defs1" />
    <path
        d="m 173.4933,405.04287 c 0,2.01021 -2.31175,3.61838 -5.22656,3.61838 -3.31684,0.30153 -5.62858,-1.30664 -5.62858,-3.61838 0,-2.01021 2.31174,-3.61838 5.22654,-3.61838 3.01532,-0.30153 5.6286,1.30664 5.6286,3.61838 z m -31.2588,-4.52297 c -0.70357,2.01021 1.30664,4.32195 4.32196,4.92501 2.61328,1.0051 5.62859,0 6.23166,-2.01021 0.60306,-2.01021 -1.30664,-4.32196 -4.32196,-5.22655 -2.61327,-0.70357 -5.52808,0.30153 -6.23166,2.31175 z m 44.42568,-1.70868 c -2.91481,0.70357 -4.92502,2.61327 -4.62349,4.92501 0.30154,2.01021 2.9148,3.31685 5.93012,2.61328 2.91481,-0.70357 4.92502,-2.61328 4.62349,-4.62349 -0.30153,-1.9097 -3.01532,-3.21634 -5.93012,-2.9148 z M 252.79613,13.654716 c -139.40815,0 -246.0498629,105.837624 -246.0498629,245.245794 0,111.46621 70.1563769,206.85075 170.3654029,240.42128 12.86535,2.31174 17.38834,-5.6286 17.38834,-12.16178 0,-6.23166 -0.30154,-40.60627 -0.30154,-61.7135 0,0 -70.3574,15.0766 -85.13245,-29.95214 0,0 -11.458197,-29.24858 -27.941932,-36.78688 0,0 -23.01692,-15.78015 1.608169,-15.47862 0,0 25.027123,2.01021 38.797073,25.93173 22.01181,38.79707 58.89919,27.64041 73.2722,21.00671 2.31175,-16.08169 8.84493,-27.23837 16.0817,-33.87207 -56.18541,-6.23165 -112.873367,-14.37301 -112.873367,-111.06417 0,-27.64041 7.638797,-41.51087 23.720487,-59.20073 -2.61327,-6.53318 -11.15667,-33.47001 2.61327,-68.24668 21.00671,-6.53318 69.3523,27.13786 69.3523,27.13786 20.10211,-5.62859 41.71189,-8.5434 63.12064,-8.5434 21.40874,0 43.01852,2.91481 63.12063,8.5434 0,0 48.34559,-33.77156 69.35229,-27.13786 13.76995,34.87717 5.22656,61.7135 2.61328,68.24668 16.08169,17.79038 25.93172,31.66083 25.93172,59.20073 0,96.9927 -59.20072,104.73201 -115.38613,111.06417 9.24698,7.94034 17.0868,23.01693 17.0868,46.6369 0,33.87207 -0.30153,75.78497 -0.30153,84.02685 0,6.53318 4.62348,14.47351 17.38833,12.16178 100.51056,-33.36951 168.65673,-128.75405 168.65673,-240.22026 0,-139.40817 -113.07439,-245.245794 -252.48255,-245.245794 z M 104.44254,360.31567 c -1.30664,1.0051 -1.00511,3.31685 0.70357,5.22654 1.60817,1.60818 3.91991,2.31175 5.22655,1.00511 1.30663,-1.00511 1.00511,-3.31684 -0.70358,-5.22655 -1.60816,-1.60817 -3.9199,-2.31174 -5.22654,-1.0051 z m -10.855142,-8.14136 c -0.703574,1.30664 0.301532,2.91481 2.311744,3.91992 1.608169,1.0051 3.618381,0.70357 4.321948,-0.70358 0.70358,-1.30664 -0.301527,-2.91481 -2.311737,-3.91991 -2.010211,-0.60307 -3.618381,-0.30154 -4.321955,0.70357 z m 32.565412,35.78177 c -1.60817,1.30663 -1.0051,4.32195 1.30664,6.23165 2.31175,2.31174 5.22655,2.61328 6.53319,1.0051 1.30664,-1.30663 0.70357,-4.32195 -1.30664,-6.23165 -2.21123,-2.31174 -5.22655,-2.61328 -6.53319,-1.0051 z m -11.4582,-14.77506 c -1.60817,1.0051 -1.60817,3.61838 0,5.93013 1.60817,2.31173 4.32195,3.31684 5.62859,2.31173 1.60817,-1.30663 1.60817,-3.91991 0,-6.23165 -1.40714,-2.31174 -4.02042,-3.31685 -5.62859,-2.01021 z"
        id="path1" style="stroke-width:1.00511" />
</svg>