<?xml version="1.0" encoding="UTF-8" standalone="no"?>
<svg viewBox="0 0 512 512" id="icon" version="1.1" xmlns="http://www.w3.org/2000/svg"
   xmlns:svg="http://www.w3.org/2000/svg">
   <defs id="defs1" />
   <path
      d="M 475.42857,0 H 36.457143 C 16.342857,0 0,16.571429 0,36.914286 V 475.08571 C 0,495.42857 16.342857,512 36.457143,512 H 475.42857 C 495.54286,512 512,495.42857 512,475.08571 V 36.914286 C 512,16.571429 495.54286,0 475.42857,0 Z M 154.74286,438.85714 H 78.857143 V 194.51429 H 154.85714 V 438.85714 Z M 116.8,161.14286 c -24.342857,0 -44,-19.77143 -44,-44 0,-24.228574 19.657143,-44.000003 44,-44.000003 24.22857,0 44,19.771429 44,44.000003 0,24.34285 -19.65714,44 -44,44 z M 439.2,438.85714 H 363.31429 V 320 c 0,-28.34286 -0.57143,-64.8 -39.42858,-64.8 -39.54285,0 -45.6,30.85714 -45.6,62.74286 V 438.85714 H 202.4 V 194.51429 h 72.8 v 33.37142 h 1.02857 c 10.17143,-19.2 34.97143,-39.42857 71.88572,-39.42857 76.8,0 91.08571,50.62857 91.08571,116.45715 z"
      id="path1" style="stroke-width:1.14285" />
</svg>