<?xml version="1.0" encoding="UTF-8" standalone="no"?>
<svg
   role="img"
   viewBox="0 0 100 100"
   version="1.1"
   id="icon"
   sodipodi:docname="mongodb.svg"
   inkscape:version="1.3 (0e150ed6c4, 2023-07-21)"
   xmlns:inkscape="http://www.inkscape.org/namespaces/inkscape"
   xmlns:sodipodi="http://sodipodi.sourceforge.net/DTD/sodipodi-0.dtd"
   xmlns="http://www.w3.org/2000/svg"
   xmlns:svg="http://www.w3.org/2000/svg">
  <defs
     id="defs1" />
  <sodipodi:namedview
     id="namedview1"
     pagecolor="#ffffff"
     bordercolor="#000000"
     borderopacity="0.25"
     inkscape:showpageshadow="2"
     inkscape:pageopacity="0.0"
     inkscape:pagecheckerboard="0"
     inkscape:deskcolor="#d1d1d1"
     inkscape:zoom="8.639961"
     inkscape:cx="39.294159"
     inkscape:cy="35.011732"
     inkscape:window-width="2560"
     inkscape:window-height="1369"
     inkscape:window-x="-8"
     inkscape:window-y="-8"
     inkscape:window-maximized="1"
     inkscape:current-layer="svg1" />
  <title
     id="title1" />
  <path
     d="M 70.581998,39.642293 C 65.330095,16.52227 52.942586,8.925098 51.611936,6.0184627 50.148223,3.9684315 48.56392,0.06380885 48.56392,0.06380885 48.55562,0.14281628 48.5473,0.19271586 48.54313,0.26756524 v 0.0540507 h -0.0041 c -0.0083,0.0623727 -0.01247,0.10396377 -0.01662,0.16217344 v 0.0623727 h -0.0083 c 0,0.0415778 -0.0083,0.0748454 -0.0083,0.10811327 V 0.7623886 h -0.01247 c -0.0041,0.0332667 -0.0041,0.0748454 -0.01248,0.10395176 v 0.0873181 h -0.0083 c 0,0.029106 0,0.0623737 -0.0083,0.0873302 v 0.08317 h -0.0083 c 0,0.041578 -0.0041,0.09148 -0.0083,0.133065 v 0.00828 c -0.01247,0.070696 -0.02495,0.1413816 -0.03744,0.2079142 v 0.033267 h -0.0083 c -0.0041,0.016634 -0.01248,0.033267 -0.01248,0.049901 v 0.070697 h -0.01246 v 0.09148 h -0.02079 v 0.074845 H 48.3354 v 0.087318 h -0.01662 v 0.079007 h -0.01662 v 0.070696 H 48.2772 v 0.058211 h -0.01662 v 0.074845 h -0.01662 v 0.058212 h -0.02079 v 0.054063 h -0.01246 v 0.062373 h -0.01663 c -0.0041,0.00413 -0.0041,0.012473 -0.0041,0.016634 v 0.041578 H 48.1775 c -0.0041,0.00828 -0.0041,0.016634 -0.0041,0.024945 v 0.024955 h -0.0083 c -0.0041,0.012473 -0.0083,0.033267 -0.0083,0.041578 -0.01246,0.029106 -0.02911,0.058212 -0.04158,0.087318 v 0.00828 c -0.0083,0.00828 -0.01662,0.020796 -0.02079,0.029106 v 0.033267 h -0.01662 v 0.033267 h -0.02079 v 0.033267 h -0.01247 v 0.041578 H 48.0196 v 0.058212 h -0.01662 v 0.016634 h -0.01662 v 0.033267 H 47.96974 V 2.90795 h -0.01662 v 0.033267 h -0.02495 v 0.045739 h -0.01662 v 0.033266 h -0.02079 v 0.033267 h -0.01247 v 0.041578 h -0.0208 V 3.128334 H 47.84087 V 3.153278 H 47.82425 V 3.186545 H 47.79929 V 3.223973 H 47.78267 V 3.248929 H 47.76188 V 3.282196 H 47.74526 V 3.327935 H 47.72447 V 3.344569 H 47.712 V 3.377836 H 47.68704 V 3.39447 H 47.67042 V 3.436048 H 47.6538 v 0.016634 h -0.01662 v 0.033267 h -0.02079 v 0.024945 h -0.01248 l -0.0083,0.016634 v 0.016634 h -0.0083 c -0.0041,0.00828 -0.0083,0.00828 -0.0083,0.016634 v 0.00414 h -0.0041 c -0.0041,0.012473 -0.0083,0.020796 -0.01662,0.029105 v 0.012473 h -0.0041 c -0.02079,0.024945 -0.03327,0.049901 -0.0499,0.074845 v 0.00414 c -0.0083,0.00828 -0.02911,0.024945 -0.03744,0.041578 v 0.00828 h -0.0041 c -0.0041,0.00414 -0.01247,0.00828 -0.01247,0.012473 v 0.012473 h -0.0083 l -0.01246,0.012473 v 0.00413 h -0.0041 c 0,0.00414 -0.0083,0.00828 -0.01246,0.016634 v 0.016634 h -0.01247 l -0.0083,0.00828 v 0.00828 h -0.0083 c 0,0.00828 -0.0083,0.00828 -0.0083,0.012473 V 3.85168 h -0.01662 c 0,0.00414 -0.0041,0.00828 -0.0083,0.012473 V 3.889097 H 47.33819 V 3.905731 H 47.32157 V 3.930687 H 47.30495 V 3.963954 H 47.28416 V 3.930687 h -0.02079 v 0.016634 h -0.01662 v 0.024944 h -0.0208 V 4.005533 H 47.20516 V 4.022167 H 47.18854 V 4.047112 H 47.17192 V 4.063746 H 47.1553 V 4.097013 H 47.13035 V 4.113647 H 47.11373 V 4.138591 H 47.09294 V 4.15521 h -0.01662 v 0.020796 h -0.02079 v 0.041579 h -0.0083 v 0.016634 h -0.02495 v 0.020794 h -0.01662 v 0.00828 h -0.01662 v 0.016634 h -0.02079 v 0.041578 h -0.01662 v 0.016634 h -0.02079 v 0.016634 h -0.01662 v 0.024944 h -0.02079 v 0.016634 h -0.0208 V 4.412985 H 46.85601 V 4.429619 H 46.83939 V 4.471197 H 46.82277 V 4.491993 H 46.79782 V 4.508626 H 46.7812 V 4.52526 H 46.76041 V 4.550205 H 46.74379 V 4.566839 H 46.723 v 0.029106 h -0.01662 v 0.016634 h -0.02495 v 0.024944 h -0.0083 V 4.654157 H 46.65651 V 4.670791 H 46.63616 V 4.687425 H 46.6195 v 0.024956 h -0.02079 v 0.016634 h -0.01247 c -0.0041,0.00413 -0.0041,0.00828 -0.0041,0.00828 v 0.00828 h -0.0083 l -0.01662,0.016634 c 0,0 -0.0083,0.00828 -0.01662,0.012473 v 0.024945 h -0.01662 v 0.020796 h -0.01662 v 0.016634 h -0.01662 v 0.016634 h -0.01329 l -0.01246,0.012473 v 0.012473 h -0.0083 l -0.0083,0.00828 v 0.012497 h -0.0083 c -0.02079,0.024944 -0.02911,0.041578 -0.05821,0.066534 -0.0083,0.00828 -0.03327,0.029106 -0.0499,0.041578 -0.0499,0.033267 -0.112275,0.087318 -0.162174,0.1330651 -0.03327,0.020795 -0.06653,0.049901 -0.09148,0.070696 v 0.00414 h -0.0041 c -0.06654,0.054063 -0.128906,0.1039519 -0.203755,0.1621722 v 0.00414 c -0.0998,0.083169 -0.195438,0.1621722 -0.307711,0.2578132 v -0.00413 h -0.0083 c -0.236872,0.1954109 -0.486369,0.4158 -0.773289,0.6611383 v 0.00413 h -0.0041 c -0.703754,0.6154149 -1.539567,1.4054879 -2.47518,2.3618922 l -0.06237,0.062374 -0.01662,0.016636 c -5.655557,5.851244 -14.566745,18.043314 -15.506514,37.745231 -0.08317,1.630044 -0.06654,3.214349 0.02495,4.75707 v 0.03744 c 0.453251,7.763503 2.890004,14.391798 5.93802,19.776768 v 0.0041 c 1.214217,2.145671 2.524073,4.095903 3.850565,5.84238 v 0.0041 c 4.582421,6.050294 9.260482,9.634729 10.453909,10.503808 1.833801,4.253919 1.663311,11.555855 1.663311,11.555855 l 2.677931,0.894035 c 0,0 -0.544733,-7.073237 0.220389,-10.487184 0.237021,-1.068676 0.798389,-1.979339 1.451238,-2.752778 0.440778,-0.311871 1.746478,-1.251642 3.314149,-2.682088 0.07484,-0.07901 0.116434,-0.149699 0.182962,-0.22455 6.324741,-5.896436 18.138406,-20.41714 14.088244,-44.073579 z"
     id="path1"
     style="stroke-width:4.15827" />
</svg>
