<?xml version="1.0" encoding="UTF-8" standalone="no"?>
<svg
   viewBox="0 0 400 346"
   version="1.1"
   id="icon"
   xml:space="preserve"
   xmlns="http://www.w3.org/2000/svg"
   xmlns:svg="http://www.w3.org/2000/svg">&#10;&#10;  &#10;&#10;  <defs
   id="defs1" />&#10; <g
   id="layer1"
   transform="translate(7.4264369,-0.13650002)">&#10;&#10;    <path
   style="stroke-width:1.8978;image-rendering:optimizeQuality"
   d="m -5.7772269,346.10658 h -1.64921 V 173.12158 0.13650002 H 192.67386 392.77421 V 173.12158 v 172.985 h -3.70511 -3.70503 l -0.65874,-1.63191 -0.65893,-1.63199 -3.97314,-6.52767 -3.97317,-6.52773 -2.71903,-3.56152 -2.719,-3.56155 -1.24626,-1.17075 -1.24613,-1.17073 v -0.66564 -0.6657 h -0.48641 -0.48638 l 0.28924,-0.7532 0.28925,-0.7532 h -0.75319 -0.75323 l -0.30451,-0.79425 -0.30488,-0.79426 V 314.88 313.86352 l -1.26013,-0.9912 -1.2601,-0.99122 0.26402,-0.42725 0.26409,-0.42724 -0.51032,-0.31523 -0.51024,-0.31523 v 0.72133 0.72139 l 0.75315,0.62513 0.75318,0.62508 v 0.69171 0.69169 l -0.62765,-0.007 -0.62764,-0.007 -0.75318,-0.48679 -0.75317,-0.48675 0.37205,-0.007 0.37204,-0.007 -3.134,-2.81064 -3.134,-2.81068 -2.3229,-2.08513 -2.32291,-2.08514 -0.92811,-0.75275 -0.9281,-0.75272 -0.60246,0.13821 -0.60243,0.13822 -0.29747,-0.93778 -0.29774,-0.93776 -1.87454,-1.79871 -1.87445,-1.79878 -2.76175,-2.31607 -2.76173,-2.31601 -0.6094,-0.48695 -0.6094,-0.48675 -1.66535,-1.13005 -1.66523,-1.13012 -3.75091,-3.02134 -3.7509,-3.02129 -2.00853,-1.47665 -2.00852,-1.47661 -0.66684,-0.64917 -0.66678,-0.64916 -1.09065,-0.57664 -1.09072,-0.57963 -2.51064,-2.08418 -2.51068,-2.08414 -1.41397,-0.88411 -1.41403,-0.88405 -0.84551,-0.68783 -0.84562,-0.68711 -2.25956,-1.66723 -2.2596,-1.66721 -3.76601,-2.459 -3.76603,-2.45911 -2.0906,-1.42998 -2.09065,-1.43 h -0.28565 -0.28567 l -3.30272,-2.02013 -3.30209,-2.02117 -8.38134,-4.31002 -8.38136,-4.30997 -4.51923,-2.42854 -4.51917,-2.42849 -1.55305,-1.15754 -1.55298,-1.15748 -3.31123,-2.92958 -3.31125,-2.92958 -2.22261,-1.41 -2.22265,-1.4096 -4.7133,-2.5588 -4.71323,-2.55879 -2.76178,-2.52557 -2.76172,-2.52558 -3.36493,-2.58199 -3.36488,-2.58193 -0.52664,-2.45558 -0.52664,-2.45554 v -1.19122 -1.18952 l 0.3049,-0.79429 0.3049,-0.79427 h 0.93481 0.93476 l -0.3083,-0.80387 -0.3083,-0.80387 0.70084,-0.4605 0.70081,-0.46049 -1.30631,-1.15808 -1.30632,-1.15812 1.46579,-1.64051 1.46582,-1.64051 1.28677,0.32295 1.28672,0.32292 -0.25955,-0.90471 -0.25955,-0.9047 -0.38811,-0.9475 -0.38814,-0.94745 1.56463,0.22959 1.56457,0.22968 -0.0575,-0.78856 -0.0575,-0.78856 0.0795,-0.79854 0.0797,-0.79852 2.76454,-0.66321 2.76456,-0.66322 0.32761,0.32761 0.32756,0.32764 0.61024,-0.50645 0.61023,-0.50643 0.81684,0.31344 0.81681,0.31348 v 0.45799 0.45796 l -1.25526,-0.31502 -1.25536,-0.31507 v 0.55655 0.55656 l 0.37667,0.064 0.3767,0.0641 1.06152,0.11527 1.06148,0.11504 0.62168,0.38423 0.62162,0.38418 0.76567,1.8217 0.76563,1.8217 0.46865,-1.2552 0.46867,-1.2552 -0.14058,-2.25975 -0.14059,-2.2597 1.14563,-0.1646 1.14553,-0.16457 0.26188,-0.68258 0.2619,-0.68249 0.70747,0.27146 0.70738,0.27146 0.30906,-0.8053 0.30902,-0.80529 h 0.76745 0.76742 l 1.16338,-1.25533 1.16341,-1.25537 h -0.47813 -0.47819 v -0.71564 -0.71734 l 0.79371,-0.79368 0.79363,-0.79369 0.53929,0.33334 0.53923,0.3332 -0.36057,-0.58355 -0.36056,-0.58355 0.66414,-0.66415 0.66417,-0.66419 0.62352,0.20786 0.62355,0.20781 -0.27224,-0.70917 -0.27221,-0.70918 1.15052,-0.55414 1.15052,-0.55412 -0.88824,-0.0337 -0.88832,-0.0344 0.32027,-1.38087 0.32025,-1.38089 0.69344,-1.11211 0.69346,-1.11213 0.97262,-0.52053 0.97257,-0.52051 -0.28916,-1.88228 -0.28915,-1.88229 -0.42393,-0.54334 -0.42398,-0.54333 0.72876,-0.96306 0.72874,-0.96306 0.0141,-1.12983 0.0141,-1.1298 h 0.50216 0.5021 v -0.90992 -0.91033 l 1.40857,-1.34929 1.4083,-1.34927 h 0.53871 0.53872 l 0.68913,-0.83033 0.68911,-0.83036 -0.14977,-0.88262 -0.14975,-0.88265 0.52617,-0.32514 0.52616,-0.32521 v -2.02315 -2.02291 l 2.38514,-2.16392 2.38516,-2.16395 -0.10452,-4.07422 -0.10452,-4.07424 -0.93194,-2.12859 -0.93204,-2.12859 0.18698,-1.8359 0.18697,-1.8359 -0.80981,-0.67479 -0.80972,-0.67475 -1.7775,-1.6961 -1.77764,-1.6961 1.06221,-1.06215 1.06214,-1.06219 2.37466,-0.004 2.37466,-0.004 1.68422,0.37453 1.68424,0.37449 1.75538,-1.75539 1.75536,-1.75537 h 0.25956 0.25955 l -0.26266,1.00427 -0.26267,1.00425 h 0.45512 0.45521 v -0.53177 -0.53174 l 0.57971,0.35828 0.57967,0.35832 -0.31677,-0.51259 -0.31681,-0.5126 0.97221,-0.87983 0.97222,-0.87983 1.40106,0.32576 1.40115,0.32584 -0.75321,-0.50971 -0.75322,-0.50969 0.53944,-0.008 0.53938,-0.008 1.93847,-1.9501 1.93845,-1.95008 1.42629,0.49719 1.42626,0.49724 1.72725,-0.32407 1.72722,-0.32399 0.29832,-0.48269 0.29837,-0.48269 h -0.97246 -0.9724 l -0.50562,-0.62769 -0.50564,-0.62765 -0.3383,-1.58414 -0.33831,-1.58411 0.53152,-0.32851 0.53151,-0.32854 v 0.52885 0.52885 l 2.26875,2.30133 2.26872,2.30129 0.61854,-0.25028 0.61853,-0.25025 -0.62763,-0.0396 -0.62771,-0.0396 v -1.23012 -1.2304 l -0.81085,-0.45379 -0.81091,-0.45378 1.15665,-1.07756 1.15665,-1.07758 h 0.90957 0.90959 l 0.0148,0.87873 0.0148,0.87878 0.54499,-0.93811 0.54502,-0.93808 -0.26153,-1.94908 -0.26153,-1.94911 0.47477,-0.2934 0.47483,-0.29341 -0.31299,-0.98612 -0.31291,-0.98609 0.58688,-0.70711 0.58683,-0.70711 -0.29145,-0.47151 -0.29144,-0.47153 0.75029,-0.287925 0.75029,-0.287884 V 98.61112 97.632937 l 0.53798,-0.179458 0.538,-0.17934 -0.60627,-2.49871 -0.60625,-2.498735 -0.46096,-0.50215 -0.46095,-0.502127 -0.86369,1.142881 -0.8636,1.142892 -0.61566,-0.615653 -0.61564,-0.615638 v -2.38079 -2.380619 l -0.50753,-0.313652 -0.50754,-0.313614 0.72071,-1.028939 0.72076,-1.028954 -0.26695,-0.695549 -0.26682,-0.69557 h 2.00074 2.00078 l 0.59846,-0.721083 0.59847,-0.721114 -0.55466,-1.03636 -0.55464,-1.036376 h -0.29614 -0.29608 l 0.3118,1.559375 0.31181,1.559387 -0.79231,-0.304069 -0.79232,-0.303993 -1.33977,-0.01742 -1.33985,-0.01742 1.25539,-0.717628 1.25534,-0.717614 -0.62768,-0.01742 -0.62766,-0.01742 v -0.532376 -0.531748 l 0.50211,0.310387 0.50218,0.310381 v -0.578774 -0.578785 l -1.00439,-0.262708 -1.00431,-0.262641 v -0.342264 -0.34316 l 0.51861,-0.518593 0.51859,-0.518564 -0.3203,-0.834293 -0.32027,-0.83429 -0.44953,0.277883 -0.44948,0.277782 -0.083,-0.657259 -0.083,-0.657309 -0.0872,-3.514837 -0.0874,-3.51495 -1.0462,-2.363046 -1.0468,-2.362744 -1.99144,-1.403277 -1.9914,-1.403207 -0.91793,-1.350967 -0.918,-1.350911 -0.89473,-0.233995 -0.89481,-0.233994 V 55.473609 53.97582 l -0.95985,-1.185442 -0.95988,-1.185443 -3.232,-0.0078 -3.23202,-0.0078 -2.09361,-1.385464 -2.09355,-1.385455 -0.96247,0.515086 -0.96243,0.515091 h -0.28418 -0.28421 v -0.4999 -0.502131 h 0.75324 0.75317 v -0.50172 -0.502128 h -0.9936 -0.99232 l -1.89314,0.700211 -1.89319,0.700201 -5.00155,0.604143 -5.00154,0.604129 -2.27943,0.892207 -2.27936,0.892243 -1.62251,-0.243646 -1.62252,-0.243623 -1.913,0.997136 -1.91301,0.997079 h -1.39465 -1.39364 l -1.28314,-2.032502 -1.28313,-2.032672 -2.26719,-2.423777 -2.26716,-2.423783 h 0.38749 0.38754 l -1.32255,-1.041553 -1.32309,-1.040727 v -0.984756 -0.984756 l -1.70814,-1.007862 -1.70818,-1.007854 -0.32945,-1.312715 -0.32945,-1.312717 0.61844,-0.38221 0.61844,-0.38221 -1.64997,0.0835 -1.64998,0.0837 -0.57129,-1.00429 -0.57125,-1.00426 -0.43036,-0.31392 -0.43035,-0.31389 0.32563,-1.02563 0.32559,-1.0256 -1.85763,-1.42217 -1.85733,-1.42219 -2.55642,-1.25547 -2.55706,-1.25535 v -0.53718 -0.538 l -0.93677,-0.93687 -0.93685,-0.93691 -0.88104,-2.04003 -0.88106,-2.04006 -1.12184,-1.00426 -1.12185,-1.00427 -4.31624,-0.0511 -4.31625,-0.0509 -0.19238,-0.57686 -0.19239,-0.57691 h -1.43583 -1.43587 l -1.91166,-1.1074 -1.91175,-1.10737 -0.37132,-0.52456 -0.37132,-0.52455 0.25809,-0.70047 0.25799,-0.70046 -3.06702,0.32053 -3.067,0.32056 -5.85802,-1.02862 -5.85805,-1.02857 -2.11967,-0.97244 -2.11966,-0.97247 -1.20013,0.54683 -1.20014,0.54683 -1.45048,-0.68064 -1.45046,-0.68061 -4.77027,0.2592 -4.77027,0.25927 -2.00853,-0.34188 -2.00855,-0.34191 -4.26813,0.24367 -4.26815,0.24367 -3.51493,0.79164 -3.51493,0.79162 -1.50641,0.78905 -1.50639,0.78904 -1.50641,0.11873 -1.5064,0.11873 -2.00854,0.20621 -2.00853,0.20625 -1.1585,-0.42903 -1.1585,-0.42908 0.30942,0.50059 0.30944,0.50063 -0.90836,0.008 -0.90836,0.008 0.75319,0.48676 0.7532,0.48676 -0.79503,0.008 -0.79506,0.008 -0.33039,-0.33036 -0.33042,-0.33046 0.50891,-0.61318 0.50893,-0.61321 -1.27846,-0.24437 -1.27845,-0.24442 -0.26871,0.43479 -0.26869,0.43479 h 0.53177 0.53176 v 0.46834 0.46831 l -1.01156,0.321 -1.01155,0.32102 0.21742,0.35191 0.21742,0.35187 h -1.93811 -1.93816 l 0.52626,-0.32524 0.52624,-0.32525 -0.55573,-0.34344 -0.55574,-0.34347 -0.6133,0.37906 -0.6133,0.37906 -1.52077,-0.0549 -1.52078,-0.0546 2.00855,0.67088 2.00853,0.67087 -0.75319,0.0895 -0.75321,0.0894 -1.63193,-0.0894 -1.63194,-0.0895 v 0.96215 0.96213 l -1.27895,0.58275 -1.27896,0.5827 -0.85511,-0.0351 -0.85511,-0.0351 1.00427,-0.4582 1.00426,-0.45818 -1.25022,0.11701 -1.25018,0.11701 -0.1816,0.95196 -0.18161,0.95202 0.80414,-0.30857 0.80413,-0.30858 v 1.32329 1.32329 l -0.27572,-0.27591 -0.27577,-0.27581 -2.0738,0.46594 -2.07378,0.46595 -2.01746,1.48366 -2.01744,1.48362 h -0.38819 -0.38741 l 0.28903,-0.75317 0.28896,-0.75319 h -0.80681 -0.80692 v 0.88348 0.88345 l -1.02376,0.63936 -1.02375,0.63933 0.284618,0.46054 0.284624,0.46048 -0.985325,0.52734 -0.985321,0.52735 h -1.561234 -1.559417 l -1.862998,0.95524 -1.862992,0.95531 -1.129805,0.98661 -1.129805,0.98662 -0.01571,0.94539 -0.01571,0.94536 -0.667004,-0.87899 -0.66705,-0.87875 h -0.417666 -0.421657 l 0.602567,0.60254 0.602549,0.60256 v 0.43137 0.43136 l -0.581091,-0.35917 -0.581238,-0.35924 0.273336,1.04521 0.273337,1.04524 -0.696367,-0.26723 -0.696369,-0.26722 v 0.51401 0.51399 l 0.592475,0.19754 0.592476,0.19749 -0.288059,0.75062 -0.288093,0.75065 -2.061902,0.68049 -2.061883,0.680497 v 0.6728 0.67283 h -0.735539 -0.735535 l -0.569904,1.064904 -0.569894,1.064865 0.602334,-0.37231 0.602334,-0.372241 -0.573324,1.071237 -0.573304,1.071227 -1.048061,-0.560869 -1.048051,-0.560908 0.336668,2.437511 0.336669,2.437529 -0.466719,-0.692013 -0.466699,-0.69199 -0.64361,0.397789 -0.643609,0.397757 0.31445,-0.819487 0.31445,-0.819491 -0.480212,-0.296739 -0.480201,-0.29681 -0.008,2.414797 -0.008,2.41477 -0.468654,-0.741101 -0.468664,-0.74112 -0.459898,1.243246 -0.459917,1.243232 -0.444611,-0.196814 -0.44461,-0.196835 -0.709428,1.557086 -0.709417,1.557058 -1.550192,0.575083 -1.550163,0.575032 1.439748,0.624583 1.439768,0.624568 -0.797126,0.305937 -0.797135,0.305909 -0.320493,1.276835 -0.320524,1.2768 h -0.44831 -0.447691 l -0.05006,0.878745 -0.05016,0.878766 -0.375212,-1.255353 -0.375212,-1.255336 -0.38679,2.895243 -0.386781,2.895254 -0.58086,0.368652 -0.580873,0.36865 -0.795999,1.255338 -0.795998,1.255346 0.05485,0.491127 0.05485,0.491105 0.744082,0.108935 0.744082,0.108937 0.174936,0.525 0.174936,0.524995 0.712855,-0.712818 0.712848,-0.712866 v -0.286929 -0.286983 h -1.004518 -1.004272 v -0.472727 -0.472504 l 0.579716,-0.358317 0.579714,-0.358284 -0.358316,0.57971 -0.358319,0.579734 2.163692,0.03511 2.163705,0.0351 -0.753196,0.341323 -0.753197,0.34129 -0.146006,0.689257 -0.146096,0.689282 0.810109,-0.310835 0.810119,-0.310941 1.093426,0.603226 1.093415,0.603239 1.004273,-0.146375 1.004272,-0.14644 0.502131,-0.532383 0.502131,-0.532364 -0.705249,0.402295 -0.70526,0.402327 0.359157,-0.581078 0.359167,-0.581062 0.985643,0.527491 0.985654,0.527505 0.844464,-0.844447 0.844454,-0.844473 0.190832,0.572521 0.190833,0.572496 0.584782,-0.35058 0.584773,-0.350582 -0.623306,0.770261 -0.623306,0.770264 0.330386,0.33035 0.330316,0.330385 h 0.640678 0.640688 l -0.190314,-0.988114 -0.190313,-0.988077 0.891005,-1.100324 0.89099,-1.10035 0.588845,0.363932 0.588847,0.363881 -0.758592,1.083037 -0.758585,1.083045 0.03959,1.269136 0.03959,1.269142 0.248105,-0.753217 0.248101,-0.753173 0.559664,-1.147366 0.559656,-1.147345 0.719469,0.276043 0.719477,0.276079 -0.264758,-1.012403 -0.264761,-1.012435 0.440563,0.272298 0.440562,0.272292 1.508169,-0.779913 1.508169,-0.779888 3.297445,0.678094 3.297445,0.678119 0.260141,-0.420869 0.260109,-0.420868 h 0.472491 0.4725 v 0.468296 0.468298 l -1.004274,0.318681 -1.004262,0.318682 v 0.529774 0.529792 l 0.769592,-0.63873 0.769586,-0.638686 1.364479,-0.09728 1.364479,-0.09728 0.87874,-0.07856 0.87873,-0.07856 -0.125549,-0.376591 -0.125551,-0.376583 0.251074,-0.09037 0.251115,-0.09026 1.380866,-0.525016 1.38087,-0.524995 v 0.251039 0.251114 l -1.25532,0.477282 -1.25533,0.47726 v 0.933028 0.932986 l -0.330424,0.330418 -0.330313,0.330389 -0.673878,-0.559271 -0.673864,-0.559274 v 1.036125 1.036109 l -0.502134,0.310421 -0.502131,0.310315 v -0.478024 -0.47804 l -0.763897,-0.293568 -0.764812,-0.293545 0.472119,0.882175 0.472109,0.882149 -1.456816,0.836104 -1.456812,0.836086 -0.725286,-0.72527 -0.725277,-0.725304 h -0.28695 -0.287016 v 0.675401 0.675364 l 0.878727,0.789002 0.878732,0.78902 1.5064,0.222245 1.506402,0.222173 -1.095052,0.371438 -1.095058,0.371398 0.2432,0.633757 0.243225,0.633736 -1.755193,0.832916 -1.755169,0.832876 -0.40576,-0.06905 -0.405754,-0.06915 -0.627674,0.0592 -0.627669,0.05944 v 0.457611 0.457584 l 3.023091,-0.705235 3.023091,-0.705244 0.366325,0.05618 0.366288,0.0559 0.438089,-0.05943 0.438086,-0.05924 -0.606846,-0.731207 -0.606835,-0.731194 0.323926,-0.52414 0.323927,-0.524124 0.849091,0.0078 0.849097,0.0078 -0.753197,0.541815 -0.753204,0.541788 1.004275,-0.36297 1.004267,-0.363014 1.129794,-0.245041 1.1298,-0.245043 v 0.938882 0.938909 l -1.516722,1.431675 -1.516738,1.431557 -0.509469,0.951928 -0.509475,0.951978 h 0.519806 0.519801 l -0.03502,1.380866 -0.0351,1.380888 -0.385508,-0.98597 -0.385507,-0.985973 -0.35344,1.408234 -0.353436,1.408222 -0.716106,-0.274791 -0.716092,-0.274828 -0.273264,0.442192 -0.273268,0.442225 0.884884,0.259518 0.884878,0.259552 -2.992641,-0.166246 -2.99265,-0.166272 0.777121,0.572422 0.777115,0.572474 0.292885,0.753178 0.292917,0.753214 0.0396,-0.849913 0.03965,-0.849885 1.092902,0.210447 1.092898,0.210496 0.350692,0.567489 0.350732,0.56751 0.343439,-0.55573 0.343476,-0.555757 0.598033,0.0078 0.598034,0.0078 -0.639149,0.405611 -0.639152,0.405633 0.764864,1.830587 0.764873,1.830583 -0.83576,-0.32077 -0.83576,-0.320695 0.280732,0.461948 0.280696,0.461903 -0.700485,0.647449 -0.700501,0.647464 v -0.306755 -0.306742 l -0.789072,0.788993 -0.789061,0.789038 h -0.71688 -0.717337 v 0.486379 0.486368 l -0.702406,-0.269643 -0.702408,-0.26955 -0.250072,0.410853 -0.250106,0.410807 1.116638,0.836582 1.116634,0.836564 0.714635,-0.452241 0.714628,-0.452328 -1.159428,-0.0078 -1.159438,-0.0078 0.271564,-0.439368 0.271496,-0.439369 h 1.264494 1.264489 v 0.744162 0.744174 l 0.71565,-0.274652 0.715664,-0.274658 0.957223,1.934767 0.957242,1.934735 0.712244,-0.450813 0.712245,-0.450819 0.430312,-0.0078 0.43032,-0.0078 -0.279205,0.727499 -0.279204,0.727505 0.927074,0.294204 0.92706,0.294237 -0.28243,1.080057 -0.28247,1.08006 1.58935,-1.13171 1.58936,-1.131712 v 0.830992 0.83103 l -1.5064,0.56857 -1.5064,0.56862 v 0.58939 0.5894 l -0.72076,0.27657 -0.720764,0.2766 -0.225046,-0.59945 -0.225048,-0.59946 -0.35831,0.86584 -0.358323,0.86581 0.685259,0.68526 0.685244,0.68527 1.354538,0.25896 1.35453,0.25896 0.20585,-0.55469 0.20581,-0.55467 0.66534,0.62766 0.66532,0.62766 -0.67623,0.62767 -0.67622,0.62766 0.35435,-0.62766 0.35435,-0.62767 h -0.48988 -0.48992 l -0.2533,0.62742 -0.25324,0.62766 -0.0396,-0.62766 -0.0396,-0.62767 h -0.43306 -0.43251 l 0.21431,1.38088 0.21431,1.38088 -0.71027,-0.87095 -0.710258,-0.87091 -0.272361,0.27236 -0.272364,0.27233 0.255001,0.97521 0.255003,0.9752 h 0.443579 0.44357 v 0.76609 0.7661 l 1.4668,-0.75852 1.46678,-0.7585 1.4983,0.62997 1.49829,0.63 -0.67208,0.91911 -0.67208,0.9191 -0.53553,-0.33095 -0.53554,-0.331 v 0.78283 0.78284 h 0.56362 0.56361 l -0.55925,0.67386 -0.55928,0.67385 0.33032,0.33038 0.33031,0.33035 -0.4603,-0.004 -0.46028,-0.004 -1.23543,-1.81375 -1.23543,-1.81372 -0.20663,0.61992 -0.20663,0.6199 0.43778,0.31854 0.43782,0.31851 0.64467,1.15024 0.64469,1.15023 -0.36446,0.60722 -0.36442,0.60725 0.81083,-0.65697 0.81082,-0.65698 0.16427,1.15909 0.16431,1.15912 1.06253,-0.0326 1.06253,-0.0326 0.60191,1.66456 0.60191,1.66458 h 0.46963 0.46963 v 0.53178 0.53178 l -0.50212,-0.31043 -0.50215,-0.31039 v 0.78285 0.78284 l -0.62765,0.008 -0.62768,0.008 0.50215,0.36888 0.50212,0.36892 0.17778,0.75319 0.17774,0.7532 0.15513,1.56894 0.15516,1.56889 0.67129,1.1329 0.67128,1.13288 -0.60807,0.22083 -0.60805,0.22074 0.28066,1.40318 0.2806,1.40315 -1.27866,0.24447 -1.27866,0.24444 -0.52799,-0.52796 -0.52798,-0.528 v 0.60256 0.60254 h -0.75362 -0.7532 l -0.008,-1.38085 -0.008,-1.38089 -0.68017,-1.95387 -0.68016,-1.95388 -0.23546,0.69856 -0.23543,0.69852 0.62667,2.38515 0.62668,2.38514 h -0.64919 -0.64919 l -0.26199,1.00188 -0.26201,1.00187 1.20769,-0.30312 1.2077,-0.30316 v 1.5608 1.56084 h 0.51456 0.51458 l 0.50374,1.32497 0.50376,1.32498 -0.26712,0.26709 -0.26709,0.26708 -1.25335,-1.17714 -1.25335,-1.17747 v 1.03808 1.03807 l 0.72918,0.27976 0.72917,0.2798 -0.20823,1.08117 -0.20819,1.08115 1.02789,0.26879 1.02788,0.26882 -0.66539,0.41125 -0.66539,0.41119 0.90473,1.5316 0.90476,1.53162 -0.78394,0.30084 -0.78394,0.30087 v 0.95051 0.95054 h -0.50229 -0.50214 v -1.50641 -1.50641 h -0.39663 -0.39644 v 3.5455 3.54551 l -0.5876,0.36317 -0.58761,0.36319 0.23392,7.5149 0.23399,7.51485 0.48317,2.00854 0.48317,2.00854 -0.2055,-3.63432 -0.20545,-3.63434 0.838,-0.83801 0.83801,-0.83801 0.3284,1.60564 0.32837,1.60563 0.72572,0.85819 0.72573,0.85814 -0.13337,1.37035 -0.13341,1.37033 0.44931,0.27764 0.44932,0.27765 -0.31445,0.81945 -0.31445,0.81952 0.53484,-0.33053 0.53485,-0.33052 0.30372,0.79138 0.30372,0.79141 v 0.20999 0.21003 h -0.97395 -0.97461 l -0.33518,0.54226 -0.33521,0.54226 1.05868,0.74154 1.05871,0.74155 v 1.19723 1.19725 l -0.51545,0.31854 -0.51544,0.31855 0.13874,0.84087 0.13872,0.84086 -0.75321,-0.16128 -0.7532,-0.16134 0.59539,0.60614 0.59538,0.60614 -0.72091,0.72094 -0.72091,0.7209 v 1.4908 1.49086 l -1.06043,1.43429 -1.06044,1.4343 -0.0766,1.52358 -0.0767,1.52356 -0.44936,0.4112 -0.44935,0.4112 0.29931,-0.83715 0.29934,-0.83718 -0.83378,-0.32 -0.83378,-0.32004 -0.6075,0.83081 -0.607511,0.83085 -0.499393,-0.30865 -0.499396,-0.30862 -0.353438,1.1137 -0.353443,1.11369 -1.16686,-1.46336 -1.166848,-1.46338 -0.365374,0.3653 -0.365339,0.36537 0.594196,0.5942 0.59419,0.59418 v 0.6528 0.65277 h -0.753388 -0.753193 v 1.25532 1.25533 h -0.501856 -0.502136 l -0.0595,-0.87874 -0.05948,-0.87874 0.08554,-0.64499 0.08547,-0.64501 -1.030269,0.88215 -1.030259,0.88214 v 0.86302 0.86307 l 0.502133,0.31031 0.502129,0.31039 v 0.97461 0.97468 h -1.255316 -1.25533 l -0.0033,0.62762 -0.0033,0.62767 -0.997646,-1.50637 -0.997657,-1.50641 -0.0033,0.77832 -0.0033,0.7783 0.512094,0.5121 0.512113,0.51208 -2.056232,-0.16265 -2.056239,-0.16266 -0.855379,0.62972 -0.855376,0.6297 0.0139,0.64601 0.0139,0.64596 0.753192,0.47612 0.753199,0.47614 -0.580656,0.008 -0.580648,0.008 0.262677,1.00429 0.262605,1.00426 H 83.26695 82.455181 v -0.50347 -0.50214 h -0.774996 -0.775204 l 0.127368,0.62766 0.127407,0.62771 -0.654001,1.1837 -0.653991,1.18367 0.548643,0.54867 0.548652,0.54864 v 0.40171 0.40171 h -0.974704 -0.974634 l -0.310391,0.50214 -0.310382,0.50214 h -1.7281 -1.727831 v -0.73548 -0.73551 l -1.004262,-0.53747 -1.004272,-0.53745 v 0.36895 0.369 l -0.602045,-0.60312 -0.602563,-0.60254 h -0.460277 -0.460277 l 0.262604,1.00426 0.262643,1.00428 h -0.764724 -0.764725 l 0.239896,1.25532 0.239967,1.25532 H 69.565666 68.86633 l -0.305176,-0.7953 -0.305215,-0.79532 -0.386162,0.62486 -0.386132,0.62482 1.51483,2.88985 1.51484,2.8899 0.071,3.66272 0.071,3.66277 -2.500135,0.42758 -2.500141,0.42761 -0.379481,0.5967 -0.37944,0.59677 -0.008,-0.62764 -0.008,-0.62769 H 64.111773 63.34282 l -0.305176,-0.79528 -0.305175,-0.79533 -0.411203,0.66539 -0.411252,0.66537 -0.648672,0.0539 -0.64871,0.0537 -0.59084,0.0763 -0.59086,0.0763 -0.23867,0.87876 -0.23855,0.87871 0.0763,-1.70282 0.0763,-1.70284 -0.62766,-0.22205 -0.62767,-0.22182 0.008,1.67378 0.008,1.67375 0.43831,0.69198 0.43829,0.69202 0.50567,-0.31264 0.50566,-0.3126 0.32076,0.83574 0.32073,0.83569 -0.57275,0.35404 -0.57275,0.35408 0.55574,0.34366 0.55575,0.3433 v 0.7492 0.7492 l -1.88283,0.77694 -1.883,0.77682 -2.76174,2.06964 -2.76174,2.0696 -3.88603,3.65566 -3.886009,3.65567 h -0.49148 -0.49138 l -1.95626,2.63618 -1.95627,2.63622 -0.5425,1.62606 -0.54249,1.62604 -1.59307,2.31546 -1.59311,2.31547 -2.46776,5.34802 -2.46777,5.34793 -4.22225,8.53625 -4.22225,8.53621 -1.49207,3.35053 -1.49208,3.35047 -1.97043,2.67509 -1.97042,2.67517 -3.0295,5.27243 -3.0295299,5.27234 -1.23744,2.76171 -1.23747,2.76178 -1.05754,2.51068 -1.05754,2.51066 -1.48796,4.01706 -1.48796,4.01714 -1.36918,5.27232 -1.36918,5.27244 -0.79666,1.38082 -0.79668,1.38089 z M 359.32083,309.95299 h 0.1898 l 0.63464,-0.76467 0.63464,-0.76473 -0.82427,0.31639 -0.82422,0.31637 v 0.44846 0.4484 z m -291.04641,-96.12093 0.213409,-0.21353 -0.532896,-0.91638 -0.532876,-0.91641 -0.01486,0.79507 -0.01486,0.79504 0.334793,0.33486 0.334764,0.3349 z m -14.440538,-1.29298 h 0.50215 l -0.0158,-0.3767 -0.0157,-0.3767 -0.80478,-1.00423 -0.80479,-1.00432 0.31858,0.91984 0.31858,0.91979 v 0.46109 0.46105 z m 25.608826,-0.50215 h 0.502131 v -0.22156 -0.22153 l -0.502131,-0.31024 -0.502131,-0.31025 v 0.53178 0.53177 z m -27.868426,-3.01281 h 0.25105 v -0.25107 -0.25112 h -0.25105 -0.25107 v 0.25112 0.25107 z m 28.621633,0 h 0.251075 v -0.25107 -0.25112 h -0.251075 -0.250976 v 0.25112 0.25107 z m 6.527736,-4.01706 h 0.251009 v -0.25108 -0.25111 h -0.251009 -0.251078 v 0.25111 0.25108 z m 140.176779,-0.37654 0.25341,-0.62769 -0.25341,-0.62766 -0.2534,-0.62768 v 1.25534 1.25534 z M 86.251147,204.00278 h 0.22142 l -0.03511,-1.38086 -0.0351,-1.38087 -0.404001,1.00428 -0.404002,1.00426 0.217865,0.37658 0.217818,0.37659 z m 5.075394,-0.66951 0.334792,-0.33476 -0.334792,-0.33473 -0.334797,-0.33479 v 0.66954 0.66949 z M 227.32109,202.4964 h 0.25111 v -0.25108 -0.25098 h -0.25111 -0.25115 v 0.25098 0.25108 z m 2.17711,-0.9863 1.1728,-0.60148 -0.30604,-0.30601 -0.30609,-0.30607 -0.86676,0.90749 -0.86677,0.90751 z M 53.863522,200.48787 h 0.47251 v -0.50215 -0.50214 h -0.78285 -0.78282 l 0.31038,0.50214 0.31038,0.50215 z m 36.960885,-0.16722 0.334796,-0.33476 -0.334796,-0.33476 -0.334758,-0.33479 v 0.66952 0.66951 z m 139.561793,-0.47073 0.30337,-0.3034 -0.26379,-0.65905 -0.26377,-0.65906 -0.0396,0.96242 -0.0396,0.96243 z m 8.56544,-0.74276 0.25341,-0.62763 0.83686,-0.0396 0.8369,-0.0396 -0.62771,-0.25327 -0.62762,-0.25323 -0.0344,-0.83689 -0.0344,-0.83689 -0.43155,1.00427 -0.43153,1.00425 0.003,0.75321 0.003,0.7532 z m 4.43773,-0.1256 h 0.25114 v -0.25108 -0.25104 h -0.25114 -0.25111 v 0.25104 0.25108 z M 53.405072,198.47937 h 0.42882 v -0.22886 -0.22875 l -1.25533,-1.84974 -1.25534,-1.84984 v -0.62166 -0.62167 l -0.70136,-0.58205 -0.70136,-0.58208 0.24277,-1.11136 0.24278,-1.11131 -0.538,0.7532 -0.538,0.75319 -0.0869,-1.50639 -0.0869,-1.5064 0.0409,-0.73235 0.0408,-0.73232 -0.56518,-1.02513 -0.56516,-1.02516 -0.11202,-0.67368 -0.11202,-0.67366 -0.33194,-0.33049 -0.33205,-0.33056 -0.96105,1.18542 -0.96105,1.18543 v 2.50311 2.5031 l 0.71382,1.33281 0.71382,1.33281 0.24794,0.80904 0.24796,0.80906 1.00919,0.26393 1.0092,0.26392 -0.30743,-0.82192 -0.30754,-0.82189 0.84722,0.68916 0.84722,0.68915 v 0.7157 0.71569 l 1.32866,1.23135 1.32866,1.23138 z m 178.309718,-0.7254 1.63192,-0.13568 0.87875,-0.0715 0.87871,-0.0715 v -1.25525 -1.25533 h -0.70618 -0.70619 l 0.26271,1.00429 0.26268,1.00424 h -2.06705 -2.06712 v 0.45847 0.45844 z M 84.212986,197.47505 h 0.251045 v -0.25098 -0.25107 h -0.251045 -0.251077 v 0.25107 0.25098 z M 232.34245,195.9687 h 0.25111 v -0.25108 -0.25108 h -0.25111 -0.25111 v 0.25108 0.25108 z m 6.02561,-0.0344 0.50215,0.002 -1.34883,-1.18783 -1.34885,-1.1878 0.30264,-0.30279 0.30263,-0.30274 h -0.83688 -0.8369 v 0.35771 0.35774 l 1.38088,1.13061 1.38084,1.13062 z M 101.84623,182.91323 h 0.19252 v -1.00426 -1.0043 h -0.45512 -0.45512 l 0.26264,1.0043 0.26267,1.00425 z m 1.54177,-3.13248 0.22856,-0.87288 -0.21838,-1.13565 -0.21839,-1.13567 -0.01,2.00854 -0.01,2.00854 z m -49.914958,-0.89231 0.39236,0.008 0.27274,-0.7108 0.27275,-0.71076 -0.20562,-1.42329 -0.20562,-1.42328 -0.39676,1.63192 -0.39674,1.63196 -0.81598,0.008 -0.81597,0.008 0.7532,0.48674 0.75322,0.48677 z M 258.4534,178.39403 h 0.25114 v -0.25098 -0.25111 h -0.25114 -0.25111 v 0.25111 0.25098 z m -211.021718,-1.04005 0.37658,0.0359 v -1.03392 -1.03389 l -0.51439,0.31788 -0.51437,0.31796 -1.49853,-0.32914 -1.498519,-0.32906 0.294599,-0.47669 0.29459,-0.47666 1.79615,0.33701 1.79616,0.33706 -0.8034,-1.14724 -0.80338,-1.147 -1.40852,-0.92869 -1.408529,-0.92873 -2.13406,-0.004 -2.13409,-0.004 -1.03786,1.03789 -1.03785,1.03784 0.64063,0.77194 0.64063,0.77191 1.27597,0.52123 1.27597,0.52122 3.01278,0.8971 3.012809,0.89708 z m 210.017458,0.0359 h 0.25111 v -0.25108 -0.25111 h -0.25111 -0.25114 v 0.25111 0.25108 z M 104.29833,176.3855 h 0.25108 v -0.25105 -0.25111 h -0.25108 -0.25108 v 0.25111 0.25105 z m -5.973302,-2.64666 0.303409,-0.30337 -0.263649,-0.65904 -0.263716,-0.65906 -0.0396,0.96245 -0.0396,0.9624 z m 1.506402,0 0.30341,-0.30337 -0.263649,-0.65904 -0.263718,-0.65906 -0.0396,0.96245 -0.0396,0.9624 z m 160.88158,-5.8896 h 0.50216 v -0.47252 -0.4725 l -0.50216,-0.31038 -0.50214,-0.31039 v 0.78283 0.78285 z M 99.720566,166.84495 h 0.19248 l 0.262674,-1.00427 0.26267,-1.00428 h -0.455135 -0.45512 v 1.00428 1.00427 z m 162.640934,-4.05892 0.14199,-0.20918 0.7366,-1.00428 0.73664,-1.00426 -0.87872,0.68914 -0.87869,0.68916 v 0.52433 0.52434 z m -161.5781,-1.46454 h 0.25108 v -0.25112 -0.25104 h -0.25108 -0.25111 v 0.25104 0.25112 z m -0.92058,-1.17166 0.33479,-0.3348 -0.33479,-0.33475 -0.334797,-0.3348 v 0.66949 0.66952 z m 0.49675,-1.70608 0.25004,-0.61811 -0.23141,-0.88827 -0.23143,-0.88832 -0.0193,1.50643 -0.0191,1.50637 z m 167.38332,-1.13935 h 0.50211 v -0.22142 -0.22147 l -0.50211,-0.31038 -0.50211,-0.31038 v 0.53176 0.53179 z M 57.097772,149.77235 h 0.25107 v -0.25112 -0.25104 h -0.25107 -0.25112 v 0.25104 0.25112 z m 48.204838,0 h 0.25111 v -0.25112 -0.25104 h -0.25111 -0.25108 v 0.25104 0.25112 z m -40.517675,-3.56633 0.15516,0.0516 -0.310391,-0.50213 -0.310381,-0.50214 h -0.874202 -0.874202 l -0.594196,-0.59421 -0.594191,-0.59417 -0.34317,0.34316 -0.34312,0.3431 0.30924,0.3092 0.3092,0.30931 1.657417,0.39247 1.657416,0.39255 z m -5.678643,-0.95287 h 0.25112 v -0.25108 -0.25104 h -0.25112 -0.251 v 0.25104 0.25108 z m 1.00427,-1.00426 h 0.25108 v -0.25108 -0.25108 h -0.25108 -0.25097 v 0.25108 0.25108 z m -4.58326,-0.54178 0.5662,-0.0396 -0.62768,-0.25327 -0.62766,-0.25334 v -1.02388 -1.02391 l 0.65133,0.43809 0.65133,0.43808 -1.02792,-0.93977 -1.02795,-0.93979 -0.16403,1.09296 -0.16403,1.09295 0.60216,0.72558 0.60217,0.72556 z m 3.07686,0.0396 h 0.25112 v -0.25104 -0.25108 h -0.25112 -0.25098 v 0.25108 0.25104 z m -1.25534,-0.50218 h 0.66952 l -0.33476,-0.3348 -0.3348,-0.33476 -0.33482,0.33476 -0.3348,0.3348 z m -9.88751,-3.06287 0.59805,-0.0503 1.25532,-0.38299 1.25533,-0.38302 -0.87985,-0.37434 -0.87985,-0.37434 -1.27475,0.31994 -1.27475,0.31993 0.30126,0.4874 0.30124,0.48745 z m 54.828498,-0.95415 h 0.25104 v -0.25104 -0.25098 h -0.25104 -0.25108 v 0.25098 0.25104 z m -53.059588,-1.26059 0.66874,-0.24582 h 0.96319 0.9632 v -1.05797 -1.05801 l -0.87873,0.35617 -0.87874,0.35615 -1.42926,0.51678 -1.42925,0.51674 0.67605,0.43089 0.67606,0.43088 z m 55.068108,-2.75645 h 0.25108 v -0.25107 -0.25108 h -0.25108 -0.25108 v 0.25108 0.25107 z m -2.93131,-0.87875 0.25326,-0.62767 -0.25326,-0.62767 -0.25327,-0.62765 v 1.25532 1.25532 z m 3.43343,-1.63194 h 0.25112 v -0.25108 -0.25108 h -0.25112 -0.25104 v 0.25108 0.25108 z m 3.04245,-1.00427 h 0.22147 v -0.50213 -0.50213 h -0.53177 -0.53176 l 0.31039,0.50213 0.31038,0.50213 z m -2.46032,-0.67972 1.20967,0.0733 -1.20037,-1.11252 -1.20038,-1.11244 -0.25445,-0.71849 -0.25444,-0.71846 -0.31108,0.28417 -0.31104,0.28421 0.55623,1.47331 0.55624,1.47327 z m 0.42215,-1.32881 h 0.25097 v -0.25105 -0.25105 h -0.25097 -0.25108 v 0.25105 0.25104 z m -4.51921,-1.00427 h 0.25105 v -0.25108 -0.25108 h -0.25105 -0.251 v 0.25108 0.25108 z m 169.21911,0 h 0.2511 v -0.25108 -0.25108 h -0.2511 -0.25112 v 0.25108 0.25108 z m -218.335198,-0.5021 h 0.19334 l -0.54761,-1.02325 -0.54763,-1.02322 0.31275,-0.9853 0.3127,-0.98529 h 0.47989 0.47986 l -0.77644,-1.18502 -0.77645,-1.185 -1.24614,0.13664 -1.24614,0.13665 0.28315,-0.45822 0.28321,-0.45818 h -0.60191 -0.60196 l -0.64715,-0.87876 -0.64716,-0.87873 -0.35103,0.90575 -0.35105,0.90573 0.92843,2.05889 0.92845,2.0589 1.97272,1.42903 1.97273,1.42904 z m 50.120378,0 h 0.25104 v -0.25105 -0.25108 h -0.25104 -0.25108 v 0.25108 0.25105 z m -4.017078,-1.00427 h 0.251042 v -0.25111 -0.25105 h -0.251042 -0.251078 v 0.25105 0.25111 z m 4.238498,0 h 0.53177 v -0.50213 -0.50213 h -0.22142 -0.22147 l -0.31038,0.50213 -0.31039,0.50213 z m 1.3146,-2.00855 h 0.22142 v -0.22142 -0.22145 l -0.57971,-0.35831 -0.57972,-0.35832 0.35832,0.57973 0.35832,0.57971 z m 172.7044,0 h 0.25113 v -0.25105 -0.25111 h -0.25113 -0.25113 v 0.25111 0.25105 z m 1.50643,0 h 0.25112 v -0.25105 -0.25111 h -0.25112 -0.25109 v 0.25111 0.25105 z m -172.73405,-0.50213 h 0.25111 v -0.25107 -0.25108 h -0.25111 -0.25108 v 0.25108 0.25107 z m -0.92059,-0.66949 0.3348,-0.33479 -0.3348,-0.33483 -0.33479,-0.3348 v 0.66955 0.66948 z m 173.15247,-0.33479 h 0.25111 v -0.25108 -0.25112 h -0.25111 -0.25111 v 0.25112 0.25108 z M 98.523793,123.1593 h 0.502132 v -0.22142 -0.22142 l -0.502132,-0.31045 -0.502134,-0.31038 v 0.53179 0.53176 z m 1.196773,-9.03843 h 0.19248 l 0.262574,-1.00376 0.26253,-1.00378 -0.454998,-0.28115 -0.454985,-0.28121 v 1.28496 1.28497 z m 4.828844,-2.00852 h 0.6695 l -0.3348,-0.33483 -0.33479,-0.33472 -0.3348,0.33472 -0.33483,0.33483 z m -6.527751,-3.01284 h 0.502134 v -0.22142 -0.22146 l -0.502134,-0.31035 -0.502133,-0.31039 v 0.53177 0.53174 z m 0,-2.00852 h 0.669517 l -0.334794,-0.33479 -0.33476,-0.33479 -0.334794,0.33479 -0.334829,0.33479 z m -2.761733,-2.51067 h 0.251041 v -0.25108 -0.25108 h -0.251041 -0.251079 v 0.25108 0.25108 z m 4.519203,-2.00852 h 0.250981 v -0.25108 -0.25108 h -0.250981 -0.251044 v 0.25108 0.25108 z m -9.038412,-1.00427 h 0.25108 v -0.25108 -0.25108 h -0.25108 -0.251076 v 0.25108 0.25108 z m 9.038412,0 h 0.250981 v -0.25108 -0.25108 h -0.250981 -0.251044 v 0.25108 0.25108 z m -4.770269,-0.75319 0.502126,-0.31038 v -0.50214 -0.502119 l -0.502126,0.310384 -0.502133,0.310355 v 0.50217 0.50213 z m -2.259604,-0.25108 h 0.251009 v -0.25108 -0.25107 h -0.251009 -0.251042 v 0.25107 0.25108 z m 5.523476,0 h 0.251042 v -0.25108 -0.25107 h -0.251042 -0.251078 v 0.25107 0.25108 z m -0.920586,-0.669529 0.334797,-0.334795 -0.334797,-0.334829 -0.334827,-0.334796 v 0.669524 0.669515 z m -6.146341,-2.896221 0.465073,-0.427459 0.664713,0.55168 0.664725,0.551645 v -0.81464 -0.814682 h 0.585834 0.585816 l -0.229215,-0.229263 -0.229238,-0.229238 -2.217974,0.654885 -2.217978,0.654902 0.731598,0.264796 0.731601,0.264792 z m 3.133538,0.385542 0.334794,-0.334797 -0.334794,-0.334791 -0.334794,-0.334763 v 0.669479 0.66951 z m -6.109291,-0.33476 h 0.753197 v -0.486309 -0.486394 l -0.753197,0.289065 -0.753204,0.289066 v 0.197354 0.197354 z m 0.251008,-2.510635 h 0.669506 l -0.334794,-0.334797 -0.334829,-0.334793 -0.334794,0.334793 -0.334763,0.334797 z m 6.862494,-5.690857 0.334793,-0.334797 -0.334793,-0.334794 -0.334793,-0.334797 v 0.669514 0.669523 z M 93.5024,88.009895 h 0.669505 l -0.334794,-0.334794 -0.334797,-0.334797 -0.334793,0.334797 -0.33483,0.334794 z m -8.661814,-4.056686 0.627672,0.03961 v -0.502137 -0.502118 h -0.962421 -0.962432 l -0.253298,-0.62768 -0.253266,-0.627657 -0.0396,0.836873 -0.0396,0.836921 0.627667,0.253229 0.627666,0.253304 z m 2.887276,-0.964626 h 0.251081 v -0.251078 -0.251079 h -0.251081 -0.251079 v 0.251079 0.251078 z m -1.004263,-1.506392 h 0.251076 V 81.231145 80.980136 H 86.723599 86.47252 v 0.251009 0.251046 z m 8.536274,0 h 0.251041 v -0.251046 -0.251009 h -0.251041 -0.251046 v 0.251009 0.251046 z m -5.52344,-2.510665 h 0.251078 V 78.72048 78.469365 h -0.251078 -0.251046 v 0.251115 0.251046 z m 5.790298,0 h 0.48637 V 78.218332 77.465136 H 95.815746 95.61837 l -0.28903,0.753196 -0.289029,0.753188 z m -8.653172,-1.884485 0.795595,-0.305279 -1.728099,-0.602492 -1.728093,-0.60254 0.12555,-0.5622 0.125551,-0.562212 h -0.502172 -0.502128 l -0.05821,-1.380854 -0.05821,-1.380849 -0.241533,1.004244 -0.24161,1.004278 -0.389705,0.413354 -0.389706,0.413359 -0.324277,-1.292116 -0.324307,-1.292088 h -0.492679 -0.492558 v 0.276007 0.275977 l 0.73406,1.419518 0.734063,1.419514 2.081443,1.029837 2.081442,1.029797 z m 6.377805,0.378148 h 0.251115 v -0.251041 -0.251116 h -0.251115 -0.251042 v 0.251116 0.251041 z M 70.713892,73.950238 h 0.192557 l -0.0351,-2.134087 -0.0351,-2.134061 -0.37979,0.969741 -0.379789,0.969789 0.222524,1.164314 0.222555,1.164304 z m 14.754409,-1.004297 h 0.669507 l -0.334791,-0.334797 -0.334795,-0.334724 -0.334795,0.334724 -0.334828,0.334797 z M 83.2087,69.933128 h 0.251008 V 69.682085 69.431044 H 83.2087 82.957587 v 0.251041 0.251043 z m 1.590094,-0.167213 0.334794,-0.334758 -0.334794,-0.334833 -0.334796,-0.334793 v 0.669521 0.669492 z M 63.906185,69.431157 h 0.472493 V 68.92899 68.42687 h -0.782824 -0.782835 l 0.310391,0.50212 0.310382,0.502151 z m 30.098392,-0.502146 0.486752,-0.753191 v -0.502142 -0.502119 l -0.486752,0.75317 -0.486758,0.753195 v 0.502141 0.502145 z m -18.830013,0 h 0.251035 v -0.251045 -0.251007 h -0.251035 -0.251086 v 0.251007 0.251045 z M 86.723637,67.42262 h 0.251044 v -0.251008 -0.25108 h -0.251044 -0.251081 v 0.25108 0.251008 z m 6.025598,0 h 0.251011 v -0.251008 -0.25108 h -0.251011 -0.251043 v 0.25108 0.251008 z M 81.200177,65.916245 h 0.251111 v -0.251113 -0.251079 h -0.251111 -0.251046 v 0.251079 0.251113 z M 67.140416,53.362862 h 0.251046 v -0.251077 -0.250976 h -0.251046 -0.251105 v 0.250976 0.251077 z m 2.243844,-3.514916 h 0.486384 l -0.28903,-0.75319 -0.288971,-0.753213 h -0.197394 -0.197354 v 0.753213 0.75319 z m 2.233522,-1.043899 0.962408,0.03961 -0.303401,-0.303405 -0.303401,-0.30337 -0.659057,0.263647 -0.659047,0.263754 z m 1.548237,-0.462504 h 0.251046 v -0.25111 -0.250974 h -0.251046 -0.251035 v 0.250974 0.25111 z m -1.506383,-2.008511 h 0.251046 v -0.250975 -0.251112 h -0.251046 -0.251075 v 0.251112 0.250975 z m 3.598636,-7.197243 0.334794,-0.334767 -0.334794,-0.334795 -0.334794,-0.33482 v 0.669506 0.66952 z M 82.10057,36.007 l 0.900391,-0.34281 -0.28108,-0.28112 -0.281075,-0.28107 -0.619294,0.62393 -0.619305,0.62395 z m 2.19609,0.11602 0.334796,-0.33475 -0.334796,-0.33484 -0.334797,-0.33475 v 0.66952 0.66949 z m -1.434585,-2.84548 h 0.490256 l 0.305109,-0.79517 0.305035,-0.79519 -0.596622,0.19894 -0.596634,0.19888 -0.19872,0.59627 -0.198768,0.59628 z m 1.88268,-2.51071 h 0.221418 v -0.50216 -0.50212 h -0.53176 -0.53178 l 0.310385,0.50212 0.310386,0.50212 z m 0.974626,0 h 0.251045 v -0.25105 -0.25104 h -0.251045 -0.25108 v 0.25104 0.25105 z m 8.285208,-5.27238 0.502138,-0.31038 v -0.50215 -0.50213 l -0.502138,0.31039 -0.502132,0.31038 v 0.50214 0.50214 z M 94.25567,23.737 h 0.251111 V 23.48599 23.23488 H 94.25567 94.004589 v 0.25111 0.25101 z m 5.77453,-1.00428 h 0.66952 l -0.33479,-0.3348 -0.33484,-0.3348 -0.334789,0.3348 -0.334798,0.3348 z m -4.770273,-1.50644 h 0.251045 v -0.25105 -0.251 h -0.251045 -0.251045 v 0.251 0.25105 z m 3.766005,0 h 0.669516 l -0.334795,-0.3348 -0.334794,-0.3348 -0.334796,0.3348 -0.334792,0.3348 z m 3.514928,0 h 0.66953 l -0.33476,-0.3348 -0.33479,-0.3348 -0.3348,0.3348 -0.33479,0.3348 z m -2.25958,-0.50213 h 0.25104 V 20.47307 20.222 h -0.25104 -0.25108 v 0.25107 0.25108 z m 3.0128,-2.00857 h 0.25108 v -0.251 -0.25109 h -0.25108 -0.25108 v 0.25109 0.251 z m 7.02988,0 h 0.25111 v -0.251 -0.25109 h -0.25111 -0.25108 v 0.25109 0.251 z m 92.39257,-4.51918 h 0.25111 v -0.25103 -0.25109 h -0.25111 -0.25112 v 0.25109 0.25103 z m -97.41394,-0.5021 h 0.25112 v -0.25107 -0.25105 h -0.25112 -0.25107 v 0.25105 0.25107 z m 6.52773,0 h 0.25105 v -0.25107 -0.25105 h -0.25105 -0.25104 v 0.25105 0.25107 z m 1.25534,0 h 0.66952 l -0.33479,-0.33479 -0.3348,-0.3348 -0.33483,0.3348 -0.33479,0.33479 z m -5.31423,-0.54178 0.96241,0.0396 -0.30337,-0.30337 -0.30338,-0.30341 -0.65906,0.26379 -0.65904,0.26372 z m 91.9203,-1.84368 1.26734,-0.24227 v -0.2005 -0.20052 l -1.47165,0.11216 -1.47166,0.11201 0.20428,0.33059 0.20423,0.3306 z m 5.03333,-0.12533 h 0.25111 v -0.25108 -0.25108 h -0.25111 -0.25114 v 0.25108 0.25108 z m -70.84268,-1.04392 0.96243,0.0396 -0.30341,-0.3034 -0.30337,-0.3034 -0.65906,0.26375 -0.65904,0.26375 z m 2.6362,-0.62987 0.3348,-0.3348 -0.3348,-0.33479 -0.33476,-0.3348 v 0.66953 0.66953 z m -5.60716,-0.8369 h 0.25105 V 8.42174 8.17066 h -0.25105 -0.2511 v 0.25108 0.25108 z m 49.20912,0 h 0.25115 V 8.42174 8.17066 h -0.25115 -0.25111 V 8.42174 8.67282 Z M 380.4719,340.58311 h -0.25139 v -0.25141 -0.25104 h 0.25139 0.25138 v 0.25104 0.25141 z m -0.50214,-2.5107 h -0.25139 V 337.82102 337.57 h 0.25139 0.25138 v 0.25102 0.25139 z m -232.14767,-14.6046 -2.3488,-0.0429 -2.51068,-0.63509 -2.51064,-0.63516 -7.0299,-3.63581 -7.02986,-3.63589 -1.10757,-1.31571 -1.1076,-1.31569 0.18295,-0.18272 0.18299,-0.18273 -0.47694,-1.59412 -0.47696,-1.59413 -0.73249,-5.75546 -0.73248,-5.75545 0.015,-6.29577 0.015,-6.2957 0.46449,-6.02558 0.46451,-6.02563 0.60517,-2.00854 0.60519,-2.00855 0.37132,1.25535 0.37125,1.25532 0.0525,-0.50212 0.0526,-0.50213 1.15651,1.44525 1.1565,1.44529 1.06643,-0.33834 1.06641,-0.33823 0.49668,-1.35791 0.49667,-1.35787 0.0396,0.62767 0.0396,0.62769 h 1.06279 1.06281 l -0.33208,-1.38088 -0.33209,-1.38089 -0.41138,-1.8782 -0.41134,-1.87819 0.68491,-0.56841 0.68489,-0.56841 v -1.13111 -1.13107 l 0.31376,-1.56916 0.31382,-1.56918 h 0.74488 0.74486 l -0.27465,-1.12977 -0.27469,-1.12985 1.7266,-1.73325 1.72663,-1.73333 v -0.41322 -0.41322 l 1.28555,-0.48875 1.28554,-0.48878 -0.35889,-0.58067 -0.35886,-0.58064 0.53439,0.33021 0.53442,0.33019 0.79851,-0.30642 0.79851,-0.30649 v -0.50277 -0.50285 l -1.25534,0.31485 -1.25533,0.31524 v -0.45788 -0.45795 l 0.78502,-0.30104 0.78504,-0.3014 -0.31257,-0.50567 -0.31258,-0.50571 h 0.56764 0.56763 l 0.7212,-0.72116 0.72117,-0.72118 -0.53037,-0.32797 -0.53037,-0.32795 0.58801,-0.70848 0.58801,-0.70851 h -0.56337 -0.56361 v -0.3936 -0.39387 l 1.46169,-0.86343 1.46167,-0.86345 -0.1,-0.68066 -0.1,-0.68066 -0.85946,-0.85964 -0.85966,-0.85967 v -0.61688 -0.61693 l 0.57678,-0.57675 0.57678,-0.57676 -0.87458,-1.33481 -0.8746,-1.33481 0.54887,-0.5489 0.54889,-0.54885 v -1.12524 -1.12527 l -0.50349,-0.31106 -0.50348,-0.31103 0.4404,-0.84826 0.44041,-0.8483 -0.39135,-1.00427 -0.39135,-1.00424 0.26553,-1.16055 0.26545,-1.16054 -1.06642,-0.2788 -1.06643,-0.27879 v -0.4731 -0.47321 l 0.58124,0.35939 0.58123,0.35899 -0.28313,-1.08279 -0.28316,-1.08275 h 0.45513 0.45511 l -0.0797,-0.37666 -0.0797,-0.3767 0.39279,-0.9004 0.39279,-0.90041 -0.28105,-0.28108 -0.28097,-0.28108 0.41884,-1.10157 0.41881,-1.10157 -0.99389,-2.16801 -0.99386,-2.16797 -0.28868,-1.77856 -0.28865,-1.77858 -1.02627,-1.02628 -1.02627,-1.02626 h -1.64389 -1.64399 l 0.78635,-0.86893 0.78636,-0.86891 -1.06265,0.27792 -1.06264,0.27782 -1.46435,-1.53228 -1.46434,-1.53232 -0.1987,0.34073 -0.1987,0.34076 0.12963,-0.56649 0.12962,-0.56648 -0.56332,-0.56332 -0.56333,-0.5633 h 0.54108 0.54107 l 0.62512,0.75319 0.62509,0.75319 h 0.69608 0.69609 l -1.46819,-1.5363 -1.46819,-1.53632 -0.33421,-4.36375 -0.33417,-4.36377 -0.78261,-2.90091 -0.78261,-2.90086 -0.43211,-0.26705 -0.43215,-0.26712 v -1.41814 -1.41821 l -1.00425,-0.26265 -1.00426,-0.26264 v 0.45508 0.45516 l -0.61574,-0.1256 -0.61576,-0.1256 -0.17239,1.1298 -0.17237,1.12978 h 0.5413 0.54132 l -0.59589,0.95418 -0.59589,0.95415 -0.66369,-0.25469 -0.6637,-0.25476 -0.0151,0.68139 -0.0151,0.6814 -0.73724,-0.97472 -0.73723,-0.9747 v -0.95648 -0.95631 l -0.94868,-1.33286 -0.94869,-1.33288 -0.12306,-2.25958 -0.12312,-2.25962 0.0675,-0.90835 0.0675,-0.90838 0.46744,0.2889 0.46744,0.28885 0.38117,-0.61682 0.3812,-0.61684 -0.0839,-1.52541 -0.0839,-1.52544 0.70816,-0.92904 0.70819,-0.929 0.61313,0.37891 0.61313,0.37895 -0.32521,-0.52617 -0.32518,-0.52615 1.25186,-0.3142 1.25187,-0.31417 v -0.41215 -0.41177 l 1.63193,0.0594 1.63194,0.0592 0.70655,0.44035 0.70656,0.44035 1.63141,-0.0612 1.63139,-0.0612 0.29469,0.76798 0.29466,0.76794 0.55576,-0.34351 0.5558,-0.34347 -0.57779,1.07961 -0.57782,1.07961 -0.16281,2.11929 -0.16286,2.11934 -1.04283,1.75802 -1.04284,1.75799 -0.12672,1.88243 -0.12678,1.8825 h -0.35233 -0.35253 l 0.25824,0.98764 0.25819,0.98762 0.82453,0.24865 0.8245,0.24865 2.82884,0.10255 2.82886,0.10267 3.82443,-1.68068 3.82442,-1.68072 v -0.41135 -0.41138 h -0.50239 -0.50213 v -0.72472 -0.72473 l 1.06727,-0.74753 1.06727,-0.74755 -0.34383,-1.36989 -0.34382,-1.36996 -1.47665,-1.79142 -1.47665,-1.7914 v -0.80561 -0.8056 l 1.82403,-0.5598 1.82402,-0.55983 0.96427,1.10323 0.96425,1.10323 -0.32836,-1.25529 -0.32816,-1.25537 -2.20905,-2.88792 -2.20903,-2.88792 v -0.45964 -0.4596 l -0.50577,-0.16863 -0.50577,-0.16838 1.25741,-1.35607 1.25742,-1.35608 0.104,-1.6555 0.10396,-1.65553 -0.37052,-1.0769 -0.37052,-1.0769 0.79591,-0.79591 0.79591,-0.79591 2.75891,1.55703 2.75893,1.55706 0.28299,-0.28302 0.28302,-0.28299 -2.79275,-1.78649 -2.79277,-1.78652 -2.53218,-0.54306 -2.5322,-0.54306 -2.4539,0.81504 -2.45393,0.81508 -0.89008,0.98353 -0.89009,0.98353 h -0.63377 -0.63353 l -0.1892,0.56735 -0.18923,0.5674 -1.9868,-1.04735 -1.98678,-1.04731 0.87873,-0.0226 0.87873,-0.0226 v -0.64168 -0.64158 l 0.91587,-0.78421 0.91584,-0.78416 1.59482,-0.9421 1.59481,-0.94208 v -0.42329 -0.42346 l 0.50215,0.31031 0.50211,0.31042 v -0.54946 -0.54961 l 2.38514,-1.04292 2.38513,-1.04293 2.76175,-0.069 2.76174,-0.069 2.2596,1.1164 2.2596,1.1164 2.72587,2.05142 2.72586,2.05144 1.91457,2.5661 1.91455,2.5661 1.05318,2.80236 1.05315,2.80234 -0.01,3.51493 -0.01,3.51493 -0.82603,3.76603 -0.82605,3.76599 -0.71509,1.58229 -0.7151,1.58228 v 0.55859 0.55859 l -0.45717,0.87192 -0.45718,0.87194 -2.06956,4.23451 -2.06956,4.23448 -1.86694,2.45293 -1.86685,2.45293 -1.75749,1.07435 -1.75745,1.07428 -2.42795,2.28092 -2.42795,2.28092 -2.21679,1.38181 -2.2168,1.38178 0.0198,0.37571 0.0174,0.37568 1.11175,1.30312 1.11174,1.30308 0.76755,0.27035 0.76756,0.27035 4.75592,-0.43321 4.75592,-0.43321 1.16079,-0.61408 1.1608,-0.61402 0.96646,0.60356 0.96645,0.60356 h 1.26216 1.26214 v -0.69168 -0.69171 l 0.75321,-0.62511 0.7532,-0.62509 0.0151,1.19128 0.0151,1.19128 0.72881,0.9632 0.72878,0.96315 1.26377,-0.57578 1.26375,-0.57584 v -0.76389 -0.76394 h -0.44 -0.44065 l -0.6251,0.75319 -0.6251,0.7532 h -0.44097 -0.44067 v -0.67597 -0.67637 l 0.87874,-0.97787 0.87872,-0.97786 1.75748,-1.00088 1.75746,-1.00084 0.87874,0.18143 0.87873,0.18139 v 1.37491 1.37491 l 1.02384,1.09895 1.02381,1.09895 h 0.8016 0.80161 l 1.1634,1.25532 1.1634,1.25535 h 1.5152 1.51516 l 0.69521,2.38515 0.6952,2.38516 1.13264,0.0595 1.1326,0.0595 0.39086,0.63238 0.39083,0.63239 0.5178,-0.3199 0.51781,-0.31987 0.77423,0.77419 0.77419,0.77427 0.94278,-0.58881 0.94281,-0.58881 0.95964,0.55713 0.95969,0.55713 -1.38088,0.0151 -1.38084,0.015 v 0.50213 0.50218 l 1.63192,-0.0503 1.6319,-0.0503 1.09032,-0.32636 1.09033,-0.32639 1.54592,-1.38472 1.54587,-1.38476 0.0627,0.50597 0.0626,0.50605 0.0933,0.62767 0.0937,0.62769 -0.46888,0.62762 -0.46892,0.62771 h -0.94275 -0.94276 v 0.50213 0.50209 h 1.50637 1.50641 l 0.37665,0.015 0.37667,0.0151 0.15408,-1.21984 0.15408,-1.2198 1.10137,-0.29535 1.10142,-0.29528 1.50637,0.008 1.5064,0.008 -0.97728,0.73909 -0.97727,0.73912 0.63449,0.62579 0.6345,0.62581 0.59575,-0.80567 0.59583,-0.80567 1.12787,-0.35787 1.12788,-0.3579 v -0.46849 -0.46827 h 0.95222 0.95225 l 1.51868,1.72966 1.51867,1.72965 -0.26993,1.03211 -0.26993,1.03203 0.68621,0.058 0.68626,0.058 0.78959,-0.0741 0.78961,-0.0741 1.43357,0.74373 1.43356,0.74371 0.78963,-0.85279 0.78967,-0.85283 0.87869,-0.0695 0.87875,-0.0695 v 0.44635 0.44634 h -0.50173 -0.50217 v 0.74893 0.74895 l -1.0042,0.62715 -1.00431,0.62715 v 0.66926 0.6692 l 0.87491,-0.16863 0.8749,-0.16862 0.65888,-1.37474 0.65888,-1.3747 h 1.22794 1.22798 v -0.50215 -0.50213 h 0.66928 0.66947 l 1.46456,1.49246 1.46455,1.49247 0.40624,0.0118 0.40624,0.0118 -0.31032,-0.50218 -0.31025,-0.50214 0.40625,0.0118 0.40619,0.0118 2.38515,3.16622 2.38511,3.16616 v 0.63534 0.6353 l 1.05788,1.48563 1.05788,1.48563 -0.0425,3.03162 -0.0425,3.03157 0.72246,1.39719 0.72255,1.39719 -0.447,1.44404 -0.44699,1.44406 -0.5221,3.55996 -0.52211,3.56001 -1.68562,3.97203 -1.68564,3.97198 -0.68073,2.51067 -0.68073,2.5107 -0.86746,1.50635 -0.86749,1.50645 -2.35739,4.51918 -2.35743,4.51923 -2.80792,4.01708 -2.80791,4.01707 -3.03977,3.76595 -3.03981,3.76602 -6.02559,6.21247 -6.02562,6.2124 -4.88231,3.93141 -4.88231,3.93142 -4.65823,2.73661 -4.65818,2.73675 -4.39912,1.76971 -4.3991,1.7697 -5.64357,1.27978 -5.64359,1.27988 -3.92786,0.51478 -3.92788,0.5148 z m -11.6078,-62.80727 1.1462,-0.1679 0.19351,-0.58812 0.19354,-0.58816 -1.04075,0.27226 -1.04078,0.27226 -0.29896,0.48375 -0.29899,0.48374 z m 6.74832,-3.4316 h 0.25108 v -0.25118 -0.2511 h -0.25108 -0.25104 v 0.2511 0.25118 z m 1.27914,-9.3228 0.35267,-0.97095 -0.25771,-0.44107 -0.25774,-0.44106 -0.45983,0.82163 -0.4598,0.82166 0.36484,0.59033 0.36484,0.5904 z m 2.86449,0.66324 1.88199,0.1279 -1.43825,-0.75541 -1.43827,-0.75543 h -0.44474 -0.44473 l 9.9e-4,0.62767 0.001,0.62766 z m -1.63295,-2.38742 h 0.25111 v -0.25111 -0.25115 h -0.25111 -0.25105 v 0.25115 0.25111 z m 1.00429,-6.02559 h 0.25104 v -0.25111 -0.25112 h -0.25104 -0.25109 v 0.25112 0.25111 z m 80.59245,-15.06403 h 0.66952 l -0.33487,-0.33489 -0.3349,-0.33483 -0.33483,0.33483 -0.33486,0.33489 z m -0.45405,-1.28506 0.41014,-0.25342 -0.28295,-0.73712 -0.28296,-0.73714 h -0.44844 -0.44838 v 0.66952 0.66954 l 0.32101,0.32102 0.32101,0.32101 z m -10.76027,-3.40152 0.3349,-0.33487 -0.3349,-0.33484 -0.3349,-0.33489 v 0.6695 0.66952 z m -21.67545,-2.8454 h 0.25111 v -0.25111 -0.25111 h -0.25111 -0.25111 v 0.25111 0.25111 z m -15.56612,-2.51065 h 0.25112 v -0.25111 -0.25112 h -0.25112 -0.25114 v 0.25112 0.25111 z m 20.33638,-1.00431 h 0.66952 l -0.33486,-0.3349 -0.33487,-0.3349 -0.33489,0.3349 -0.33483,0.3349 z m -62.26456,-12.55332 h 0.6695 l -0.33479,-0.33476 -0.33476,-0.33479 -0.3348,0.33479 -0.33483,0.33476 z m 0.95588,-0.92719 2.55845,-0.17395 -0.28038,-0.45371 -0.28045,-0.45369 -1.35124,0.008 -1.35122,0.008 -1.12416,0.30129 -1.12416,0.30129 0.19738,0.31951 0.19738,0.31952 z m 12.62877,-17.15735 0.78022,0.008 1.57772,-1.63194 1.57771,-1.63196 1.30135,-2.84796 1.30134,-2.84798 0.78586,-3.67975 0.78587,-3.67975 -0.0221,-2.80321 -0.0221,-2.8032 -0.84563,-2.11342 -0.84565,-2.11345 -0.18659,0.18659 -0.18659,0.1866 0.80574,2.71321 0.80575,2.71322 -0.58113,3.51888 -0.58113,3.51889 -1.21408,3.49103 -1.21408,3.49106 -1.89272,2.79007 -1.89274,2.79005 -0.5089,0.36892 -0.50891,0.36888 z m -22.15057,-5.51574 h 0.53177 v -0.50213 -0.50218 h -0.22144 -0.22142 l -0.31039,0.50218 -0.31038,0.50213 z m -5.24276,-7.02989 h 0.83689 l -0.17986,-0.5398 -0.17986,-0.53978 h -0.47702 -0.47704 l -0.17983,0.53978 -0.18002,0.5398 z m 37.66004,-1.00427 h 0.25104 v -0.25112 -0.25108 h -0.25104 -0.25111 v 0.25108 0.25112 z m -33.55929,-5.18871 0.33479,-0.3348 -0.33479,-0.33476 -0.33483,-0.33479 v 0.66949 0.66952 z m 29.34487,-7.86675 h 0.44841 v -0.18956 -0.18959 l -0.76469,-0.63465 -0.76471,-0.63466 0.31629,0.82424 0.31622,0.82424 z m -2.81545,-4.51922 h 0.25105 v -0.25108 -0.25104 h -0.25105 -0.25104 v 0.25104 0.25108 z m -16.57041,97.91607 h -0.25112 v -0.25112 -0.25112 h 0.25112 0.25104 v 0.25112 0.25112 z m 4.01706,-4.51916 h -0.25112 v -0.25114 -0.25111 h 0.25112 0.25111 v 0.25111 0.25114 z m 83.85631,-25.60885 h -0.25112 v -0.2511 -0.25112 h 0.25112 0.25115 v 0.25112 0.2511 z m -0.94279,-0.50213 h -0.18966 l -0.63464,-0.7647 -0.63464,-0.7647 0.82417,0.31643 0.82427,0.31636 v 0.44842 0.4484 z m 0.94279,-1.00427 h -0.25112 v -0.25112 -0.25114 h 0.25112 0.25115 v 0.25114 0.25112 z m -154.071348,-2.17592 -0.334804,0.33483 v -0.66952 -0.66952 l 0.334804,0.33487 0.334754,0.3349 z m 71.219298,-0.33483 h -0.25112 v -0.25114 -0.25112 h 0.25112 0.25107 v 0.25112 0.25114 z m 73.84329,-0.50212 h -0.22153 l -0.31032,-0.50211 -0.31031,-0.50216 h 0.53174 0.53182 v 0.50216 0.50211 z m 3.48531,-2.00854 h -0.25112 v -0.2511 -0.25112 h 0.25112 0.25111 v 0.25112 0.2511 z m -23.51662,-1.67374 -0.33486,0.33486 v -0.66955 -0.66951 l 0.33486,0.3349 0.33487,0.33483 z m -109.699463,-3.24711 -0.602559,0.60253 v -1.20512 -1.20512 l 0.602559,0.60256 0.602567,0.60256 z m 4.251398,-1.27209 -0.33476,0.33483 v -0.66952 -0.66953 l 0.33476,0.33476 0.334794,0.3348 z m 50.129695,-5.35601 h -0.25108 v -0.25104 -0.25108 h 0.25108 0.25105 v 0.25108 0.25104 z m -9.54054,-2.51064 h -0.25108 v -0.25104 -0.25111 h 0.25112 0.25104 v 0.25111 0.25104 z m 31.8855,-0.75318 -0.50216,0.31038 v -0.78283 -0.78285 h 0.50216 0.50212 v 0.47254 0.47249 z m -63.938386,-0.41847 -0.334829,0.33479 v -0.6695 -0.66954 l 0.334829,0.33483 0.334797,0.33483 z m 144.656036,-2.84545 h -0.17614 l -1.08824,-2.23991 -1.08823,-2.23991 0.38449,-0.23763 0.38451,-0.23769 0.67372,0.41639 0.6738,0.41644 0.20628,2.06112 0.20627,2.06112 z m -82.97726,-3.51495 h -0.25111 v -0.25108 -0.25104 h 0.25111 0.25104 v 0.25104 0.25108 z m 85.33318,-2.51834 -0.47259,-0.008 -0.73865,-0.46716 -0.73867,-0.46713 0.23733,-0.23733 0.23727,-0.23728 0.97394,0.71215 0.9739,0.71215 z m -137.5551,-2.00086 h -0.25112 v -0.25108 -0.25104 h 0.25112 0.25108 v 0.25104 0.25108 z m 0.14433,-2.44125 -0.21146,0.63433 -0.39327,-0.63631 -0.39328,-0.63636 0.30132,-0.30132 0.30133,-0.30136 0.3034,0.3034 0.30341,0.30338 z m -1.68028,-5.09076 h -0.22142 v -0.5021 -0.50215 h 0.53176 0.53177 l -0.31039,0.50215 -0.31038,0.5021 z m 148.24278,-2.17589 -0.3349,0.33482 v -0.66948 -0.66954 l 0.3349,0.33476 0.33487,0.3348 z m -89.49313,-1.33905 h -0.22142 v -0.50212 -0.50214 h 0.53176 0.53178 l -0.31039,0.50214 -0.31039,0.50212 z m -18.54931,-2.00852 h -0.25108 v -0.25108 -0.25105 h 0.25097 0.25108 v 0.25105 0.25108 z m -38.66431,-0.50213 h -0.25111 v -0.25104 -0.25108 h 0.25111 0.25108 v 0.25108 0.25104 z m -0.35763,-1.43777 -0.21954,0.65866 -0.31104,-1.18916 -0.31094,-1.18919 0.53053,0.53051 0.53052,0.53057 z m 150.43638,-0.0686 h -0.25111 l 0.31024,-0.50213 0.31029,-0.50213 h 0.25109 0.25112 l -0.31024,0.50213 -0.31027,0.50213 z M 107.3112,169.85768 h -0.25105 v -0.25108 -0.25111 h 0.25105 0.25111 v 0.25111 0.25108 z m 34.64723,-3.55444 -0.50213,-0.0244 -1.1298,-0.45412 -1.12979,-0.4541 v -0.53592 -0.53599 l 0.87873,0.50298 0.87872,0.50302 0.7532,0.51122 0.75321,0.51126 z m 4.2385,-0.96475 h -0.47249 v -0.19745 -0.19736 l 0.77928,-0.29903 0.77929,-0.29906 -0.30677,0.49637 -0.30682,0.49639 z m -19.80465,-2.51062 h -0.25107 v -0.25111 -0.25111 h 0.25107 0.25108 v 0.25111 0.25111 z m -15.56614,-7.02989 h -0.25105 v -0.25104 -0.25108 h 0.25105 0.25111 v 0.25108 0.25104 z m 2.03817,0 h -0.22144 l -0.31038,-0.50212 -0.31039,-0.50212 h 0.53174 0.53177 v 0.50212 0.50212 z m 18.59038,-0.69945 -0.79426,0.30476 v -1.09182 -1.09182 l 1.05425,0.33459 1.05426,0.33462 1.22179,0.13396 1.2218,0.13417 0.31837,0.31823 0.3183,0.3183 h -1.8001 -1.80008 z m 134.27974,-0.30483 -0.48676,0.75319 -0.007,-0.84908 -0.007,-0.84911 0.50214,-0.31038 0.50213,-0.31038 -0.007,0.40623 -0.007,0.40623 z m -154.9204,-1.60472 -0.60974,1.15698 -0.25525,-0.97589 -0.25524,-0.97585 0.41967,-0.67909 0.41969,-0.67905 0.44522,0.49797 0.44523,0.49791 z m -5.51136,-9.44226 h -0.25108 v -0.25104 -0.25108 h 0.25108 0.25111 v 0.25108 0.25104 z m 6.24703,-6.52773 h -0.53176 l 0.31039,-0.50212 0.31039,-0.50214 h 0.22146 0.22147 v 0.50214 0.50212 z m 0.94094,-3.00105 -0.1581,0.45823 -0.53877,-0.36052 -0.53876,-0.36053 -0.31809,-0.86266 -0.3181,-0.86266 0.45501,-0.28118 0.455,-0.28122 0.55991,1.04619 0.55988,1.04615 z m 13.45181,-0.64987 -0.30337,0.3034 0.0396,-0.96245 0.0396,-0.9624 0.26376,0.65906 0.26375,0.65904 z m -17.60187,-4.42285 -0.52724,-0.0397 0.59947,-0.2439 0.59944,-0.24385 -0.27656,-0.72076 -0.27657,-0.72076 h 0.7532 0.75319 l 0.3166,0.82508 0.31657,0.82504 -0.26292,0.26292 -0.26289,0.26295 v -0.68624 -0.68626 l -0.60259,0.60258 -0.60256,0.60257 z m 1.45167,-8.49664 h -0.72357 v -0.50214 -0.50213 h 1.03389 1.03391 l -0.31039,0.50213 -0.31038,0.50213 z m -4.99173,-2.51066 h -0.25104 v -0.25098 -0.25111 h 0.25104 0.25108 v 0.25111 0.25098 z m 0.50215,-2.00853 h -0.25108 v -0.25105 -0.25108 h 0.25108 0.25111 v 0.25108 0.25104 z m 185.38331,-1.00427 h -0.15522 l -0.97465,-0.72824 -0.97474,-0.72821 1.12982,0.28465 1.12982,0.28469 v 0.44353 0.44359 z M 107.59349,102.06965 h -0.47093 l 0.0729,-0.96949 0.073,-0.96947 0.39787,0.24592 0.39788,0.24593 v 0.72354 0.72356 z m 9.76039,-2.510658 -0.75318,0.625098 v -0.50214 -0.502123 l 0.75318,-0.625092 0.7532,-0.625117 v 0.502157 0.50212 z m 4.2288,-1.506427 h -0.38581 l 0.72704,-1.457379 0.72706,-1.457417 0.71531,-0.274478 0.71525,-0.274483 -0.30174,0.853158 -0.30173,0.853171 -0.75471,0.878711 -0.75469,0.878732 z m -20.40095,-1.287598 -0.90039,0.342885 0.6193,-0.62393 0.6193,-0.623969 0.28108,0.28115 0.28108,0.281009 z m 26.80067,-8.922432 -0.3348,0.334793 V 87.507806 86.83829 l 0.3348,0.334793 0.33479,0.334757 z m -1.08797,-0.836875 h -0.25108 v -0.251111 -0.251046 h 0.25108 0.25108 v 0.251046 0.251111 z m 1.5064,-1.004287 h -0.25108 v -0.251077 -0.251078 h 0.25108 0.25101 v 0.251078 0.251077 z m 28.62163,-0.502135 h -0.25104 v -0.251076 -0.251081 h 0.25104 0.25108 v 0.251081 0.251076 z m 141.09957,0 h -0.25109 v -0.251076 -0.251081 h 0.25109 0.25112 v 0.251081 0.251076 z M 114.09002,83.992844 h -0.6695 l 0.33476,-0.334795 0.33479,-0.334793 0.3348,0.334793 0.33475,0.334795 z m 36.90684,-0.502127 h -0.25108 v -0.251041 -0.251114 h 0.25108 0.25111 v 0.251114 0.251041 z m -37.1579,-1.506383 h -0.25112 v -0.251113 -0.251114 h 0.25112 0.25107 v 0.251114 0.251113 z m 4.01705,-1.004287 h -0.25104 v -0.251115 -0.251079 h 0.25104 0.25104 v 0.251079 0.251115 z m 0.50214,-1.506385 h -0.25108 v -0.251045 -0.251112 h 0.25108 0.25108 v 0.251112 0.251045 z m 3.76601,0 h -0.66952 l 0.3348,-0.334794 0.33479,-0.334829 0.3348,0.334829 0.33482,0.334794 z m -18.83001,-0.502147 h -0.25111 v -0.251114 -0.251078 h 0.25111 0.25108 v 0.251078 0.251114 z m 17.57468,0 h -0.25112 v -0.251114 -0.251078 h 0.25112 0.25108 v 0.251078 0.251114 z m 33.39189,-1.004242 h -0.66951 l 0.33479,-0.334793 0.3348,-0.33483 0.33476,0.33483 0.33476,0.334793 z m 105.6992,0 h -0.25113 v -0.251076 -0.251114 h 0.25113 0.25109 v 0.251114 0.251076 z m -152.7526,-1.789778 -0.90038,0.34285 0.61931,-0.623944 0.61928,-0.623952 0.28112,0.281112 0.28111,0.281116 z m -5.67064,-0.218781 h -0.50214 v -0.53178 -0.531783 l 0.50214,0.310386 0.50213,0.310418 v 0.22142 0.221443 z m 19.33215,-1.506407 h -0.25112 v -0.25112 -0.251079 h 0.25112 0.25108 v 0.251079 0.251113 z m 1.03391,-1.004222 h -0.22142 l -0.35832,-0.579755 -0.35829,-0.579702 0.57973,0.35832 0.57972,0.35832 v 0.221418 0.221469 z M 99.277065,70.435262 h -0.251076 v -0.251114 -0.251075 h 0.251076 0.251081 v 0.251075 0.251114 z m -2.00853,-0.502146 H 97.01749 V 69.682037 69.43096 h 0.251045 0.25108 v 0.251077 0.251079 z m 4.519215,-1.004266 h -0.25112 v -0.251115 -0.251042 h 0.25112 0.25104 v 0.251042 0.251115 z m -29.040073,-1.171617 -0.334804,0.334793 v -0.669545 -0.669508 l 0.334804,0.334793 0.334724,0.334796 z m -1.506414,-0.502164 -0.334794,0.334794 v -0.669527 -0.669501 l 0.334794,0.334831 0.334764,0.334757 z M 70.434006,65.413878 H 69.961513 L 69.651132,64.911753 69.34074,64.409619 h 0.782835 0.782835 v 0.502134 0.502125 z m -3.743326,-0.638116 -0.3034,0.30337 0.03959,-0.962389 0.03959,-0.962446 0.26369,0.659043 0.263641,0.659065 z m 31.331056,0.135923 h -0.669512 l 0.334795,-0.334791 0.334758,-0.334833 0.334796,0.334833 0.334794,0.334791 z m 20.085344,-0.502122 h -0.66952 l 0.33483,-0.334759 0.3348,-0.334794 0.33476,0.334794 0.33479,0.334759 z M 69.651181,63.907464 h -0.251115 v -0.251079 -0.251044 h 0.251115 0.251036 v 0.251044 0.251079 z m 2.092223,-0.167214 -0.334833,0.334758 V 63.4055 62.735981 l 0.334833,0.334797 0.334794,0.334826 z m 35.149356,0 -0.33479,0.334758 V 63.4055 62.735981 l 0.33479,0.334797 0.3348,0.334826 z m 148.07542,0.167214 h -0.22158 l -0.31027,-0.502129 -0.31027,-0.502119 h 0.53178 0.53176 v 0.502119 0.502129 z M 73.66825,62.903257 h -0.251075 v -0.251076 -0.251083 h 0.251075 0.251076 v 0.251083 0.251076 z m 29.67819,-0.135923 -0.3034,0.303403 0.0396,-0.962426 0.0397,-0.962402 0.26368,0.65904 0.26372,0.659042 z M 72.663978,62.401231 h -0.251075 v -0.251045 -0.251011 h 0.251075 0.251115 v 0.251011 0.251045 z m 2.008544,0 h -0.251045 v -0.251045 -0.251011 h 0.251045 0.251076 v 0.251011 0.251045 z m 27.701038,-0.167214 -0.33479,0.334793 v -0.669528 -0.669525 l 0.33479,0.334792 0.3348,0.334797 z m 4.98996,0.03196 -0.30337,0.303406 0.0396,-0.962442 0.0396,-0.962408 0.26368,0.659065 0.26372,0.659019 z m 13.25424,-0.868258 h -0.66952 l 0.3348,-0.334795 0.33476,-0.334794 0.33479,0.334794 0.3348,0.334795 z m 31.38336,0 h -0.25108 v -0.251045 -0.251077 h 0.25108 0.25104 v 0.251077 0.251047 z M 67.672275,60.894572 h -0.221427 l -0.358319,-0.579694 -0.358319,-0.579711 0.579726,0.358246 0.579717,0.358321 v 0.22142 0.221419 z M 81.702389,60.57398 80.949191,60.863079 V 60.37666 59.890279 h 0.753198 0.753212 v 0.197379 0.197401 z m 19.164771,-0.348884 -0.33479,0.334797 v -0.669574 -0.669497 l 0.33479,0.33479 0.3348,0.334764 z m 32.77645,-0.334793 h -0.4725 v -0.197354 -0.197331 l 0.77928,-0.299031 0.77926,-0.299101 -0.30674,0.496391 -0.30677,0.496391 z M 82.204521,59.38815 h -0.251045 v -0.251079 -0.251078 h 0.251045 0.25108 v 0.251078 0.251079 z m 53.949829,-0.560378 -0.72365,-0.05827 -0.87872,-0.229614 -0.87875,-0.229615 v -0.465254 -0.46531 l 0.62768,0.01504 0.62766,0.01506 0.97471,0.737237 0.9747,0.737225 z M 75.92778,57.881874 h -0.502131 v -0.531745 -0.531768 l 0.502131,0.310389 0.502131,0.310381 v 0.221469 0.221396 z m 61.26031,0 h -0.6695 l 0.3348,-0.334829 0.33479,-0.334725 0.33476,0.334725 0.3348,0.334829 z m 18.32789,-0.50212 h -0.25104 V 57.128713 56.87767 h 0.25104 0.25112 v 0.251043 0.251041 z m 1.00426,0 h -0.25108 V 57.128713 56.87767 h 0.25108 0.25111 v 0.251043 0.251041 z m 2.47719,-0.474353 -0.7427,0.616421 0.31622,-0.824242 0.31622,-0.824228 h 0.95053 0.95054 v 0.531786 0.53176 L 160.26411,56.61294 159.74,56.28901 Z m 91.00204,0.308268 -0.1905,0.190432 -0.61691,-0.743349 -0.61693,-0.743352 0.37705,-0.609962 0.37705,-0.609976 0.43022,1.163033 0.43029,1.163 z M 77.183108,56.877627 h -0.251085 v -0.251112 -0.251114 h 0.251085 0.251006 v 0.251114 0.251112 z m 28.466532,-1.004299 h -0.40615 l -0.97471,-0.737216 -0.9747,-0.737229 0.5866,-0.01506 0.58659,-0.01504 0.79427,0.304829 0.79427,0.304828 v 0.448362 0.448431 z m 180.58811,-0.810816 -0.16673,0.74382 -1.38092,-1.012642 -1.38077,-1.012637 v -0.460279 -0.460238 h 0.94271 0.94277 l 0.60514,0.729088 0.60508,0.729072 z m -173.33764,0.308652 h -0.25729 l -0.31039,-0.502146 -0.31038,-0.50212 h 0.49071 0.49069 l 0.91981,-0.348538 0.9198,-0.348499 -0.84287,0.850617 -0.84287,0.850657 z m 132.4978,-0.502153 h -0.25112 v -0.251046 -0.251043 h 0.25112 0.25112 v 0.251043 0.251046 z M 105.80474,54.366952 h -0.25108 v -0.251079 -0.251111 h 0.25108 0.25097 v 0.251111 0.251079 z m 26.23648,-0.0077 -0.12555,-0.0078 -0.75321,-0.486758 -0.75319,-0.486751 0.87872,-0.0078 0.87874,-0.0078 v 0.50213 0.502135 z M 69.651112,53.865023 h -0.251086 v -0.251076 -0.25108 h 0.251086 0.251075 v 0.25108 0.251076 z m 1.255327,0 h -0.669518 l 0.334794,-0.334793 0.334764,-0.334797 0.334794,0.334797 0.334794,0.334793 z m 47.481281,-1.004257 h -0.22142 l -0.35833,-0.579703 -0.35832,-0.579746 0.57972,0.35832 0.57972,0.35832 v 0.221419 0.22142 z m 41.89853,-0.07938 h -1.25533 l 0.62765,-0.253231 0.62768,-0.253232 0.62765,0.253232 0.62768,0.253231 z M 75.115308,52.358581 h -0.251046 l 0.310381,-0.502138 0.310382,-0.502129 h 0.251056 0.251105 l -0.310382,0.502129 -0.310381,0.502138 z m 3.323148,-0.502138 h -0.669528 l 0.334794,-0.334726 0.334794,-0.334794 0.334793,0.334794 0.334765,0.334726 z m 38.108434,-0.502129 h -0.44842 v -0.448409 -0.448403 l 0.72762,-0.279274 0.72764,-0.279235 -0.27927,0.727618 -0.27927,0.727622 z m 157.55636,-0.167379 -0.33483,0.334793 v -0.669534 -0.66952 l 0.33483,0.334792 0.33488,0.334762 z M 74.421377,50.852223 h -0.669518 l 0.334794,-0.33479 0.334794,-0.334796 0.334794,0.334796 0.334794,0.33479 z m 22.344951,0 h -0.251113 v -0.251076 -0.251114 h 0.251113 0.251041 v 0.251114 0.251076 z m -7.029872,-1.004546 h -0.251044 v -0.251081 -0.25108 h 0.251044 0.251076 v 0.25108 0.251081 z m 2.259597,0 h -0.669512 l 0.334792,-0.334764 0.334795,-0.334793 0.334795,0.334793 0.334795,0.334764 z M 111.3282,49.345533 h -0.25108 v -0.251042 -0.251077 h 0.25108 0.25105 v 0.251077 0.251042 z M 89.975234,48.843392 H 89.65273 l -0.321045,-0.321044 -0.321044,-0.321046 0.267049,-0.43216 0.267053,-0.432109 1.351231,0.01506 1.351237,0.01504 -0.974712,0.737246 -0.974697,0.737225 z m 34.910586,-0.502131 h -0.25107 V 48.09015 47.839105 h 0.25107 0.25105 v 0.251045 0.251111 z M 89.736456,46.332735 h -0.251044 v -0.251043 -0.251113 h 0.251044 0.251076 v 0.251113 0.251043 z m 36.655764,-0.502146 h -0.25108 v -0.251076 -0.25108 h 0.25108 0.25108 v 0.25108 0.251076 z M 90.238588,41.311371 H 89.987511 V 41.060265 40.80922 h 0.251077 0.251043 v 0.251045 0.251106 z M 86.723651,40.80927 h -0.251078 v -0.251076 -0.251115 h 0.251078 0.251009 v 0.251115 0.251076 z m 16.570419,-0.502102 h -0.25108 v -0.251075 -0.251116 h 0.25108 0.25108 v 0.251116 0.251075 z M 86.472582,39.805007 h -0.669513 l 0.334793,-0.334654 0.334797,-0.334794 0.334792,0.334794 0.334797,0.334654 z M 103.6761,39.302876 h -0.20084 l 0.16046,-1.073459 0.16046,-1.073487 1.7124,-0.91507 1.71236,-0.91506 0.52212,-0.52212 0.52212,-0.52211 0.52723,0.004 0.52724,0.004 -2.72138,2.5076 -2.72135,2.507571 z m 4.13718,-1.506399 h -0.25108 v -0.25104 -0.250977 h 0.25108 0.25108 v 0.250977 0.25104 z M 93.011831,37.29436 h -0.522145 l 0.61291,-0.98144 0.612911,-0.98143 0.206561,0.20656 0.206563,0.20654 -0.297331,0.77486 -0.297327,0.77485 z m 4.758761,-1.00427 h -0.251045 v -0.25107 -0.25104 h 0.251045 0.251046 v 0.25104 0.25107 z m 2.983158,0 h -0.72355 v -0.19248 -0.19254 l 1.00495,-0.26286 1.00497,-0.26284 -0.28136,0.45529 -0.28136,0.45532 z M 87.476848,35.78796 H 86.974724 V 35.28579 34.7837 h 0.502124 0.502137 v 0.50209 0.50217 z m 1.255338,-0.50217 h -0.251077 v -0.25105 -0.25111 h 0.251077 0.251047 v 0.25111 0.25105 z m 20.587504,-1.50636 h -0.25112 v -0.25108 -0.25108 h 0.25112 0.25104 v 0.25108 0.25108 z m -2.76175,-0.50213 h -0.50214 v -0.50214 -0.50214 h 0.50214 0.50214 v 0.50214 0.50214 z m -6.38055,-0.78549 -0.900396,0.34285 0.619301,-0.62393 0.619305,-0.62394 0.28111,0.28108 0.28108,0.28115 z m -9.436673,-0.21879 h -0.251076 v -0.25107 -0.25108 h 0.251076 0.25108 v 0.25108 0.25107 z m 17.796123,0 h -0.4725 v -0.19735 -0.19738 l 0.77927,-0.29903 0.77928,-0.29902 -0.30674,0.49635 -0.3068,0.49638 z m 20.36605,0 h -0.25108 v -0.25107 -0.25108 h 0.25108 0.25111 v 0.25108 0.25107 z m 47.95376,0 h -0.66947 l 0.33483,-0.33479 0.33487,-0.3348 0.33489,0.3348 0.33484,0.33479 z m -73.56258,-1.00426 h -0.25108 v -0.25102 -0.25107 h 0.25108 0.25108 v 0.25107 0.25102 z m 26.362,0 h -0.66949 l 0.3348,-0.3348 0.33476,-0.3348 0.33476,0.3348 0.33479,0.3348 z m -29.55954,-0.50217 h -0.376505 l -0.974701,-0.79415 -0.974713,-0.7942 0.91981,0.29205 0.919804,0.29206 h 0.741775 0.74175 l -0.31038,0.50213 -0.31039,0.50212 z m 8.17703,-0.0396 -0.96243,-0.0396 0.65905,-0.26375 0.65905,-0.26372 0.30341,0.30341 0.30341,0.30337 z m -0.96243,-0.96454 h -0.25108 V 29.5114 29.26036 h 0.25108 0.25107 v 0.25104 0.25105 z M 93.694253,28.7582 h -0.251042 l 0.310384,-0.50214 0.310385,-0.50215 h 0.251079 0.251044 l -0.310388,0.50215 -0.310381,0.50214 z M 136.4349,28.25605 h -0.25112 v -0.25104 -0.25108 h 0.25112 0.25097 v 0.25108 0.25104 z M 125.38794,27.7539 h -0.25107 v -0.251 -0.25108 h 0.25107 0.25108 v 0.25108 0.251 z m 13.13918,-0.16737 -0.33476,0.33479 v -0.66957 -0.6695 l 0.33476,0.3348 0.33479,0.33479 z m -35.6515,-0.50212 -0.33479,0.3348 v -0.66955 -0.66951 l 0.33479,0.3348 0.33476,0.33479 z m 34.77278,-0.66669 -0.20927,0.17011 -2.25961,-0.6649 -2.2596,-0.66488 2.17555,0.20135 2.17555,0.2014 0.29329,0.2933 0.29331,0.29327 z m -35.86074,-0.1703 h -0.25104 V 25.99638 25.7453 h 0.25104 0.25108 v 0.25108 0.25104 z m 6.02562,0 H 107.5622 V 25.99638 25.7453 h 0.25108 0.25108 v 0.25108 0.25104 z m 10.04266,0 h -0.25105 V 25.99638 25.7453 h 0.25105 0.25111 v 0.25108 0.25104 z m 24.26383,-0.56822 -0.16152,-0.0659 -1.75748,-0.36987 -1.75745,-0.36999 1.5064,-0.0728 1.50639,-0.0728 1.25534,-0.33496 1.25533,-0.33497 -0.84287,0.844 -0.84286,0.84398 z m -16.22968,-0.84291 -1.75748,0.20517 v -0.40129 -0.40132 h 1.75748 1.75746 v 0.19614 0.19608 z m -21.21516,-0.10307 -0.37655,-0.008 -0.7532,-0.48675 -0.7532,-0.48678 1.1298,-0.008 1.12979,-0.008 v 0.50215 0.50212 z m 14.18529,0.008 h -0.25111 v -0.25119 -0.25104 h 0.25111 0.25108 v 0.25104 0.25109 z m 1.25532,-1.00432 h -0.6695 l 0.33479,-0.33479 0.3348,-0.33479 0.33479,0.33479 0.33476,0.33479 z m 9.37341,-0.0889 -0.83714,0.16224 v -0.48041 -0.48038 l 1.03295,-0.27014 1.03294,-0.2701 -0.1958,0.58816 -0.19585,0.58816 z m 4.39343,0.0493 -0.96242,-0.0396 0.65905,-0.26375 0.65905,-0.26379 0.30337,0.30341 0.3034,0.3034 z m 1.51861,-0.46261 h -0.22146 v -0.50211 -0.50212 h 0.53176 0.53177 l -0.31038,0.50212 -0.31039,0.50214 z m 5.05098,-1.50615 h -0.25108 v -0.25101 -0.25108 h 0.25108 0.25105 v 0.25108 0.25101 z m 3.5379,-0.40953 -1.73451,0.20249 -0.77617,-0.90652 -0.77616,-0.90647 v -0.13837 -0.13836 l 0.97571,-0.0734 0.97571,-0.0734 -0.30084,0.78392 -0.30083,0.78396 1.83578,-0.21432 1.83579,-0.2143 v 0.34636 0.34642 z m -25.12965,-0.59449 h -0.25111 v -0.25108 -0.25109 h 0.25111 0.25108 v 0.25109 0.25108 z m 95.08123,-1.04173 -0.17779,0.52829 -1.5064,-1.23166 -1.50641,-1.2316 0.75326,-0.002 0.75315,-0.002 0.9312,0.7054 0.9312,0.7054 z m -67.96601,0.0373 h -0.25108 v -0.25107 -0.25109 h 0.25108 0.25104 v 0.25109 0.25107 z m 6.98803,-0.0396 -0.96242,-0.0396 0.65904,-0.26365 0.65906,-0.26382 0.30337,0.30341 0.30341,0.3034 z m 2.80752,-0.7035 -1.25141,0.38589 0.61937,-0.74628 0.61939,-0.74635 -0.33039,-0.33039 -0.33039,-0.33037 0.46028,0.008 0.4603,0.008 0.73866,0.46714 0.73867,0.46716 -0.23654,0.21603 -0.23648,0.21602 z m -43.38621,-0.39711 -0.3034,0.30337 0.0396,-0.96239 0.0396,-0.96245 0.26375,0.65905 0.26371,0.65904 z m 29.07146,0.13592 h -0.25105 v -0.25111 -0.25105 h 0.25105 0.25104 v 0.25105 0.251 z m -27.86843,-1.00433 h -0.66952 l 0.3348,-0.33479 0.33479,-0.3348 0.3348,0.3348 0.33482,0.33479 z m 34.8983,-0.60004 -1.50641,-0.0193 0.88829,-0.23148 0.8883,-0.23145 0.6181,0.25011 0.61812,0.25007 z m -11.65295,-2.19396 -0.90041,0.34288 0.61931,-0.62394 0.6193,-0.62394 0.28108,0.28107 0.28112,0.28109 z m 2.07057,-0.25841 -0.96242,-0.0396 0.65903,-0.26379 0.65907,-0.26371 0.30337,0.3034 0.30337,0.30337 z m 33.6848,-0.96464 h -0.25111 v -0.25104 -0.25105 h 0.25111 0.25105 v 0.25105 0.25104 z m -33.39188,-2.51087 h -0.66953 l 0.33479,-0.3348 0.33476,-0.33479 0.3348,0.33479 0.33483,0.3348 z"
   id="path1" />&#10;&#10;  </g>&#10;&#10;</svg>
