<?xml version="1.0" encoding="UTF-8" standalone="no"?>
<!-- Created with Inkscape (http://www.inkscape.org/) -->

<svg
   version="1.1"
   id="icon"
   viewBox="0 0 512 512"
   xmlns="http://www.w3.org/2000/svg"
   xmlns:svg="http://www.w3.org/2000/svg">
  <defs
     id="defs1" />
  <g
     id="g1">
    <path
       style="stroke-width:0.757311"
       d="m 512.04449,512.09688 c 0.17692,-68.0148 0.17611,-9.29851 -0.22465,-67.5397 -0.008,-1.1265 -4.64516,-5.55293 -11.02338,-10.89811 -5.64347,-4.72944 -5.5691,-4.67203 -9.43782,-7.28298 -1.87661,-1.26651 -3.67311,-2.7083 -3.99223,-3.20398 -0.31905,-0.49567 -1.14724,-1.24201 -1.84034,-1.65853 -1.67177,-1.0047 -12.85405,-9.52559 -14.13443,-10.77044 -0.55314,-0.53778 -1.74589,-1.36918 -2.65059,-1.84753 -0.90468,-0.47837 -3.34882,-2.28425 -5.43142,-4.01307 -2.0826,-1.72883 -4.63852,-3.72179 -5.67982,-4.42883 -1.04131,-0.70703 -3.76761,-2.65935 -6.05847,-4.3385 -4.53365,-3.32306 -13.85089,-9.75832 -15.81354,-10.92216 -0.67423,-0.39982 -2.14311,-1.33241 -3.26409,-2.0724 -4.62466,-3.05287 -17.41948,-10.17925 -28.53012,-15.89048 -25.38267,-13.04752 -27.98842,-14.6518 -36.07498,-22.20981 -3.65856,-3.41942 -8.29179,-6.43651 -17.81615,-11.60162 -3.94627,-2.14009 -9.2198,-5.75986 -11.71893,-8.04397 -2.49911,-2.28409 -6.47673,-5.61291 -8.83908,-7.39738 -4.76749,-3.60122 -5.56646,-4.85724 -6.33043,-9.95187 -0.68332,-4.55682 0.0175,-7.30284 1.86404,-7.30284 0.93793,0 1.36254,-0.45797 1.22881,-1.32528 -0.11251,-0.72892 0.17327,-1.58703 0.63493,-1.90692 0.55799,-0.38661 0.17887,-1.16722 -1.13074,-2.32822 l -1.97021,-1.74661 2.21073,-2.47422 c 1.78202,-1.9945 2.58689,-2.37977 4.15135,-1.98714 2.03746,0.51139 2.10501,0.0716 0.56631,-3.68723 -0.52829,-1.29051 -0.33602,-1.39424 1.7946,-0.9681 1.95909,0.3918 2.36713,0.24381 2.27905,-0.82656 -0.26673,-3.24309 0.16986,-3.72138 4.3022,-4.71273 2.29321,-0.55011 4.39178,-0.7779 4.66352,-0.50616 0.27172,0.27173 0.90815,0.15035 1.41434,-0.26976 1.01048,-0.83862 3.38426,-0.2267 3.38426,0.87239 0,0.37991 -0.85196,0.47691 -1.89327,0.21554 -1.16655,-0.29279 -1.89326,-0.15297 -1.89326,0.36423 0,0.87353 0.10822,0.92122 2.7369,1.20637 2.47459,0.26844 3.3442,1.06673 4.85049,4.45284 0.96543,2.17012 1.40974,2.64743 1.44685,1.55422 0.0296,-0.86775 0.28861,-1.81287 0.57601,-2.10028 0.28739,-0.28739 0.4325,-2.21854 0.32254,-4.29142 -0.16986,-3.19964 0.008,-3.77722 1.18139,-3.82422 0.75974,-0.0305 2.40378,-0.70827 3.65336,-1.50628 1.24954,-0.798 2.7831,-1.68488 3.40788,-1.97081 1.55438,-0.7114 4.6445,-4.04066 3.75043,-4.04066 -1.13278,0 -0.84372,-2.04119 0.47581,-3.36076 0.65841,-0.65836 1.56301,-0.97083 2.01028,-0.69438 0.484,0.29911 0.59305,0.14628 0.26939,-0.37751 -0.67144,-1.08639 1.11407,-2.99859 2.39975,-2.57003 0.55208,0.18402 0.77367,-0.12099 0.5367,-0.73857 -0.25497,-0.66444 0.49559,-1.45504 2.03708,-2.14589 1.3425,-0.60161 2.56608,-1.60503 2.71913,-2.22981 0.19061,-0.77836 0.0143,-0.71876 -0.56063,0.18933 -0.46142,0.72891 -1.51008,1.32529 -2.33032,1.32529 -1.24282,0 -1.40845,-0.34715 -0.9936,-2.0826 0.74581,-3.11991 1.66397,-4.60721 3.64585,-5.90581 1.54885,-1.01481 1.73377,-1.60086 1.37444,-4.35453 -0.22833,-1.75006 -0.69256,-3.29139 -1.03154,-3.4252 -0.33896,-0.1338 0.0394,-1.46642 0.84047,-2.96136 0.80131,-1.49493 1.28,-3.00422 1.06387,-3.35393 -0.21615,-0.34972 -0.0318,-0.63586 0.40901,-0.63586 0.44108,0 0.802,-0.61783 0.802,-1.37293 0,-1.449 3.69522,-5.44286 5.03589,-5.44286 1.27622,0 3.12368,-2.54074 2.88891,-3.97286 -0.11915,-0.72727 0.0938,-1.51414 0.47309,-1.74865 0.37941,-0.23449 0.68984,-1.79926 0.68984,-3.47723 0,-2.67673 0.44113,-3.45113 3.59721,-6.3145 l 3.59723,-3.2636 -0.15753,-6.14469 c -0.10331,-4.02741 -0.6419,-7.25087 -1.56316,-9.35499 -0.82342,-1.88059 -1.28887,-4.35717 -1.12371,-5.97918 0.1926,-1.89097 -0.10527,-3.09154 -0.93928,-3.78655 -0.67173,-0.55971 -2.4277,-2.16879 -3.90219,-3.5757 l -2.68087,-2.55801 1.56672,-1.56675 c 1.68229,-1.68226 7.4695,-2.19826 11.68892,-1.04222 1.8205,0.49877 2.52237,0.19324 4.80892,-2.09329 3.07248,-3.07249 3.61721,-3.27921 3.06377,-1.1627 -0.54337,2.07769 -0.0553,1.90851 2.46958,-0.85556 1.81255,-1.98445 2.51406,-2.28255 4.31031,-1.83172 1.18004,0.29615 1.88509,0.27811 1.56688,-0.04 -0.31823,-0.31821 0.85529,-2.0094 2.60772,-3.7582 2.89194,-2.88586 3.38456,-3.11051 5.33237,-2.43152 2.3182,0.80814 7.07539,0.22476 7.80589,-0.95727 0.24748,-0.40038 -0.21,-0.72796 -1.01661,-0.72796 -0.80669,0 -1.80975,-0.42599 -2.22922,-0.94664 -1.22139,-1.51623 -1.87662,-5.66736 -0.98178,-6.2204 0.44091,-0.2725 0.80162,-0.13654 0.80162,0.30216 0,1.34325 6.78209,7.76399 7.77619,7.36184 0.72959,-0.29515 0.72657,-0.39041 -0.0136,-0.43718 -0.52065,-0.0328 -0.94664,-0.746 -0.94664,-1.58468 0,-0.83869 -0.41751,-2.1934 -0.92777,-3.01046 -0.78102,-1.25061 -0.69119,-1.66435 0.56798,-2.6162 2.04905,-1.54895 4.14378,-1.47517 4.15792,0.14643 0.0103,1.13508 0.11904,1.16225 0.76028,0.18933 0.41174,-0.62478 0.7551,-2.66951 0.76305,-4.54385 0.0273,-6.38699 0.1135,-7.1946 0.8691,-8.10791 0.4156,-0.50239 0.55782,-1.23347 0.31609,-1.62459 -0.24173,-0.39112 0.0696,-0.90654 0.69211,-1.14536 0.62243,-0.23885 1.13164,-1.09812 1.13164,-1.90954 0,-0.81139 0.3651,-1.59698 0.81139,-1.74571 0.56836,-0.18948 0.53754,-1.39882 -0.10295,-4.03899 -1.2082,-4.97978 -1.97391,-5.72098 -3.63689,-3.52028 -1.9756,2.61442 -2.99138,0.80077 -3.11171,-5.55563 -0.15693,-8.29253 -0.28642,-7.94555 2.96531,-7.94555 3.53059,0 5.06375,-1.48543 3.85812,-3.73814 -1.20587,-2.25318 -1.80164,-1.92205 -1.27547,0.7089 0.25636,1.2816 0.13254,2.27194 -0.28399,2.27194 -0.40607,0 -0.73837,-0.28178 -0.73837,-0.62616 0,-0.34437 -1.10756,-0.49846 -2.46126,-0.34242 l -2.46125,0.28375 1.89327,-1.14536 c 1.17383,-0.71015 1.46161,-1.15998 0.75731,-1.18382 -0.94057,-0.0318 -0.95641,-0.15214 -0.0923,-0.69947 1.22184,-0.77393 0.49272,-2.34501 -1.08832,-2.34501 -1.24964,0 -1.46079,-1.19688 -0.33398,-1.89327 1.09947,-0.67949 0.9402,-1.45067 -0.68697,-3.32676 -1.12754,-1.30013 -1.43168,-2.77832 -1.38707,-6.742329 0.0728,-6.490233 -2.1357,-11.884569 -5.92717,-14.475751 -1.4691,-1.00406 -3.42954,-2.726886 -4.3565,-3.828509 -0.92694,-1.101622 -2.27434,-2.228972 -2.99423,-2.505216 -0.82684,-0.317303 -1.30886,-1.316778 -1.30886,-2.71405 0,-1.216496 -0.65145,-3.016328 -1.44769,-3.99965 -1.2476,-1.540726 -2.12145,-1.789581 -6.32217,-1.800448 -4.04108,-0.01108 -5.41431,-0.369855 -8.03195,-2.102132 -2.48927,-1.647299 -3.46469,-1.925124 -4.60906,-1.312704 -1.81846,0.973203 -2.30843,0.97736 -2.30843,0.0195 0,-0.416516 0.51119,-0.757299 1.13596,-0.757299 0.62479,0 1.13597,-0.340804 1.13597,-0.75731 0,-1.067942 -2.50428,-0.940149 -5.85386,0.298729 -1.57036,0.580812 -6.2497,1.466049 -10.39846,1.967187 -4.14878,0.501127 -9.09022,1.516671 -10.981,2.256772 -1.96923,0.770813 -4.48304,1.188675 -5.88475,0.97819 -1.57679,-0.236777 -3.47317,0.167363 -5.33221,1.136369 -4.59778,2.396469 -6.76171,2.021955 -9.02403,-1.561783 -1.06439,-1.686078 -3.47392,-4.710586 -5.35456,-6.721119 -1.88062,-2.010534 -3.15631,-3.655522 -2.8349,-3.655522 0.32147,0 -0.3411,-0.728021 -1.47228,-1.617835 -1.27146,-1.000099 -1.9245,-2.123581 -1.71039,-2.942401 0.24256,-0.92766 -0.50893,-1.805251 -2.50784,-2.928722 -3.02931,-1.702578 -4.65094,-5.132797 -2.92942,-6.196754 0.52625,-0.325248 -0.1517,-0.52156 -1.55582,-0.450478 -1.78255,0.09018 -2.73283,-0.303664 -3.35003,-1.388663 -0.47385,-0.833029 -1.1537,-1.727655 -1.51061,-1.988042 -0.35701,-0.2604 -0.43902,-1.135184 -0.18228,-1.943991 0.62198,-1.95982 -1.92857,-4.291515 -8.01165,-7.324113 -2.63369,-1.313005 -4.78862,-2.749744 -4.78862,-3.19275 0,-0.443018 -0.63583,-1.441314 -1.41297,-2.218453 -0.77716,-0.777138 -2.01097,-2.797536 -2.74177,-4.489766 -2.26761,-5.250572 -3.78755,-6.091122 -11.23159,-6.211151 -4.01987,-0.06478 -6.62707,-0.427766 -6.80003,-0.946639 -0.15428,-0.462835 -1.35968,-0.852833 -2.67861,-0.866661 -2.38349,-0.02503 -8.06664,-3.3275263 -8.62309,-5.0109586 -0.18147,-0.5488616 0.7248,-0.8709075 2.45102,-0.8709075 1.50636,0 2.97176,-0.2478476 3.25642,-0.5507794 0.2846,-0.3029379 -2.89042,-0.3649478 -7.05563,-0.1378001 -8.66202,0.4723647 -22.75177,-1.5480541 -28.18805,-4.0420643 -2.54653,-1.16827145 -3.56692,-1.29800648 -5.01603,-0.63773085 -1.35361,0.61674595 -2.26497,0.59033035 -3.56086,-0.10321692 -1.10516,-0.59144483 -4.25398,-0.85933505 -8.61554,-0.73297719 -3.78064,0.10952389 -7.55546,0.14004944 -8.3885,0.06785328 -0.83304,-0.07224521 -5.56713,-0.11316906 -10.52023,-0.09098382 -9.0684,0.0405862 -19.87128,2.0011838 -22.34693,4.0557035 -0.58304,0.483883 -2.45739,0.9647593 -4.1652,1.0686093 -1.70774,0.1038429 -4.12741,0.2778195 -5.37698,0.3866143 -1.24956,0.1087998 -3.05817,-0.059303 -4.01911,-0.3734521 -1.10249,-0.3604418 -1.57507,-0.2926331 -1.28061,0.1837675 0.25664,0.4152636 -0.0848,0.7550236 -0.75876,0.7550236 -0.67392,0 -1.01472,0.3407866 -0.75731,0.757313 0.25742,0.4165153 0.12724,0.7573089 -0.28928,0.7573089 -1.24018,0 -1.70266,-1.3642446 -0.67735,-1.9979376 0.65417,-0.4042965 0.3623,-0.7382333 -0.93428,-1.0689951 -2.30283,-0.5874601 -3.55823,-0.035815 -2.15584,0.9473183 0.8107,0.5682936 0.82486,0.8023153 0.0673,1.1089254 -0.52807,0.2137347 -1.38005,0.7841682 -1.89327,1.2676287 -0.51315,0.4834621 -2.09979,0.9357063 -3.5258,1.0049849 -1.72501,0.083811 -2.23931,-0.092522 -1.53659,-0.5267989 1.80792,-1.1173686 0.45091,-1.4387756 -3.4678,-0.8212997 l -3.76255,0.5928882 2.91481,0.6022864 c 1.81399,0.3748197 2.56223,0.820207 1.98121,1.1793083 -0.51354,0.3173585 -1.88472,0.3042665 -3.04712,-0.029202 -2.34659,-0.6729882 -2.98486,-0.3454087 -2.98486,1.5320165 0,0.696755 -0.85197,1.655014 -1.89326,2.129469 -1.2763,0.581526 -1.89328,0.60398 -1.89328,0.06896 0,-0.436551 -0.7633,-0.68484 -1.69621,-0.551744 -1.95039,0.278265 -2.86312,2.892581 -1.00989,2.892581 2.62468,0 0.97035,2.016952 -2.39203,2.91624 -1.97092,0.527143 -4.61204,1.729531 -5.86915,2.671986 -4.1358,3.100599 -4.43784,3.172933 -4.01508,0.961462 0.21089,-1.103208 0.23597,-2.005821 0.0557,-2.005821 -0.60943,0 -2.49148,2.158733 -2.49148,2.857771 0,0.381716 -0.67354,1.303569 -1.49675,2.048582 -0.82322,0.745003 -1.31391,1.650426 -1.09039,2.012055 0.50079,0.810685 -2.90558,2.169262 -5.43933,2.169262 -2.25927,0 -9.39191,3.49445 -9.39191,4.601315 0,0.434085 -0.34078,0.57863 -0.75731,0.3212 -0.41652,-0.257419 -0.7573,0.08761 -0.7573,0.766707 0,1.537625 -1.88847,3.512464 -2.67224,2.794444 -0.31935,-0.29256 -0.3985,0.209356 -0.17589,1.115368 0.29324,1.19337 0.11533,1.536226 -0.64548,1.244267 -0.57763,-0.221662 -1.05024,-0.05411 -1.05024,0.372206 0,0.42638 0.40208,0.909265 0.89355,1.073085 1.21559,0.405189 0.19183,2.857598 -1.19292,2.857598 -0.60731,0 -1.25067,-0.425986 -1.42969,-0.946639 -0.17902,-0.520651 -0.24167,-0.372268 -0.13921,0.329752 0.19559,1.340355 -1.56604,2.438594 -2.74393,1.71061 -0.37895,-0.234189 -0.68898,0.0935 -0.68898,0.728205 0,0.634717 -0.70801,1.532935 -1.57336,1.996052 -0.93414,0.499927 -1.39916,1.295945 -1.14463,1.959264 0.27531,0.717421 0.11473,0.923186 -0.44862,0.574984 -0.57493,-0.355324 -0.72044,-0.133366 -0.42216,0.643945 0.64425,1.678904 -0.14049,2.175476 -1.927,1.219379 -1.46383,-0.783416 -1.50892,-0.659327 -1.04152,2.866554 0.29466,2.222661 0.22362,3.271198 -0.17894,2.641763 -0.39365,-0.615447 -1.06578,-0.797516 -1.63821,-0.443742 -0.68782,0.425107 -0.83246,0.239764 -0.49638,-0.636043 0.26085,-0.679759 0.14836,-1.437356 -0.24997,-1.683543 -0.42188,-0.260738 -0.72908,1.072807 -0.73582,3.194314 -0.008,2.65726 -0.213227,3.334792 -0.757338,2.505956 -0.622975,-0.948954 -0.821818,-0.858432 -1.207975,0.549892 -0.38416,1.401121 -0.711005,1.552702 -1.935226,0.897521 -0.81016,-0.433583 -1.880103,-0.622743 -2.377659,-0.420355 -0.497568,0.202399 -0.308284,0.394894 0.420641,0.427764 1.563549,0.0706 1.544513,-0.03776 0.513042,2.921097 -0.535926,1.537401 -1.585736,2.599637 -3.08604,3.122654 -2.411883,0.840781 -2.311498,2.346451 0.156425,2.346451 1.440138,0 1.439224,0.03069 -0.04464,1.51462 -0.833044,0.833044 -1.514619,2.025803 -1.514619,2.650588 0,0.624775 -0.315795,1.13596 -0.701782,1.13596 -0.385976,0 -0.857631,0.59638 -1.048105,1.325304 -0.25412,0.972382 -0.369743,0.859664 -0.434198,-0.423362 -0.121473,-2.417115 -1.490345,-1.358399 -1.543585,1.193818 -0.07877,3.774058 -0.428859,5.528112 -1.21234,6.073725 -0.716707,0.499116 -3.612578,4.693551 -3.72123,5.389904 -0.02626,0.168544 0.627575,0.405577 1.453058,0.526731 0.82547,0.121113 1.625393,0.593866 1.777581,1.050436 0.196412,0.589237 0.585035,0.574285 1.339043,-0.05152 1.510323,-1.253449 1.314466,-2.210787 -0.452319,-2.210787 -0.83304,0 -1.514619,-0.258049 -1.514619,-0.573444 0,-0.315394 1.618758,-0.440088 3.597228,-0.277086 1.978469,0.162983 3.086033,0.506248 2.461258,0.76277 -1.702713,0.699112 -1.857834,2.570677 -0.168637,2.034556 0.76123,-0.24161 2.008646,0.01744 2.77203,0.575641 1.42414,1.041352 5.249598,0.815064 4.578475,-0.270837 -0.205465,-0.33244 0.544251,-0.503683 1.666023,-0.380538 1.121788,0.123134 2.556618,-0.293126 3.188508,-0.925002 0.77663,-0.776653 1.24216,-0.869146 1.43672,-0.28546 0.15829,0.474897 0.68471,0.625514 1.16977,0.334708 0.52587,-0.315261 0.48001,-0.03274 -0.11362,0.69978 -0.84734,1.045654 -0.75957,1.354809 0.58974,2.07694 1.44264,0.77207 1.55376,0.674631 1.23502,-1.083162 -0.19264,-1.062359 -0.0123,-1.931567 0.40159,-1.931567 0.41353,0 0.54124,-0.340782 0.28381,-0.757299 -0.25742,-0.416516 0.0833,-0.75731 0.75731,-0.75731 0.67395,0 1.01713,-0.336893 0.76267,-0.748638 -0.26438,-0.427774 0.0363,-0.557127 0.70173,-0.301796 1.0342,0.396854 1.03859,0.626458 0.0393,2.0531 -0.61879,0.883451 -1.09111,2.467606 -1.04958,3.520371 0.0658,1.667631 0.13889,1.719074 0.56797,0.399476 0.27088,-0.833038 0.91225,-2.1962 1.42528,-3.029233 0.8024,-1.302923 1.03895,-1.355844 1.69236,-0.378671 0.67517,1.009746 0.77081,1.009746 0.86084,0 0.0557,-0.624775 0.0678,-1.370785 0.0269,-1.657785 -0.0744,-0.521712 3.04151,-1.749969 3.59682,-1.417888 0.16168,0.09667 0.53124,-0.208084 0.82121,-0.677286 0.38715,-0.626408 1.86358,-0.578268 5.55652,0.181176 3.37934,0.694948 5.27969,0.783827 5.79261,0.270898 0.41984,-0.419821 1.02463,-0.483805 1.34395,-0.142161 0.31934,0.341645 0.15918,0.7718 -0.35589,0.955882 -0.51508,0.18409 -1.70784,1.019556 -2.65058,1.856601 l -1.7141,1.521896 2.65058,-1.421276 c 1.45783,-0.781702 3.93221,-1.408253 5.49862,-1.392305 1.78282,0.01816 2.72764,-0.284998 2.52614,-0.810509 -0.17704,-0.46172 0.84167,-1.196597 2.26381,-1.633063 2.98702,-0.916731 3.49952,-0.487971 0.69243,0.579283 -1.08193,0.411345 -1.89326,1.322831 -1.89326,2.126967 0,1.941224 -0.80349,2.564028 -2.01293,1.560285 -0.79125,-0.656721 -1.01627,-0.515545 -1.01627,0.637664 0,2.308349 -0.85372,2.61147 -2.38438,0.8466 -1.49984,-1.729311 -1.84447,-1.35451 -0.70766,0.769625 0.54392,1.016333 0.21812,1.571125 -1.50263,2.558685 -1.91543,1.099303 -2.33739,1.12074 -3.291,0.167138 -1.45445,-1.454442 -1.95937,-1.378996 -1.95937,0.292777 0,1.478363 2.20228,2.894257 5.30118,3.40823 1.84668,0.306294 1.85263,0.327552 0.24172,0.863446 -0.90834,0.302175 -1.48648,0.979534 -1.28476,1.505244 0.34161,0.89024 -4.12806,3.6044 -5.53944,3.36377 -1.36663,-0.23302 -2.50525,0.11473 -2.50525,0.76516 0,0.37957 2.03384,0.21569 4.51959,-0.3642 2.48577,-0.5799 5.0417,-0.85399 5.67983,-0.60913 1.35007,0.51808 1.54109,-0.54766 0.31746,-1.7713 -0.90511,-0.90512 -0.31187,-2.48937 0.93216,-2.48937 0.41651,0 0.51089,0.39868 0.20973,0.886 -0.38586,0.62434 -0.11952,0.7108 0.90195,0.29275 3.23968,-1.325977 4.09038,-1.327956 4.59585,-0.0111 0.33351,0.86911 0.001,1.76401 -0.94396,2.54717 -2.87814,2.38314 -4.95358,5.59962 -3.99532,6.19184 0.66491,0.41095 0.5711,0.88938 -0.35616,1.81665 -0.69233,0.69234 -1.25878,1.7821 -1.25878,2.42168 0,0.71127 -0.43175,0.99722 -1.11171,0.7363 -0.61145,-0.23464 -1.29719,-0.1265 -1.5239,0.24031 -0.22671,0.36681 0.18838,0.84307 0.9224,1.05837 0.734,0.21531 -0.6965,0.27858 -3.17892,0.14059 -3.51706,-0.19547 -4.2547,-0.0603 -3.34141,0.61251 0.64461,0.47483 1.37081,1.37455 1.61375,1.99932 0.36129,0.92914 0.45261,0.90258 0.50153,-0.14585 0.067,-1.43691 2.96442,-1.28109 3.88533,0.20897 0.38463,0.62234 0.67033,0.62716 1.04699,0.0177 0.28491,-0.461 0.9239,-0.83294 1.41995,-0.82656 0.64822,0.008 0.63077,0.1837 -0.062,0.62338 -0.76874,0.48787 -0.72252,1.1896 0.2282,3.46502 0.65569,1.56927 0.85368,2.64404 0.43997,2.38837 -0.41368,-0.25568 -1.80609,0.56536 -3.09421,1.82454 -1.28814,1.25918 -2.64891,2.28943 -3.02395,2.28943 -0.37505,0 -1.56218,0.33468 -2.63805,0.74374 -1.95461,0.74313 -1.95496,0.74492 -0.44513,2.25475 0.83365,0.83365 2.02797,1.31264 2.66416,1.06851 0.63421,-0.24337 1.15314,-0.0808 1.15314,0.36151 0,0.44221 -1.20864,1.03078 -2.6859,1.3079 -3.13014,0.58721 -2.96309,1.15374 0.40902,1.3872 1.5636,0.10822 2.60598,-0.26502 3.04836,-1.0916 0.80562,-1.50529 -0.43226,-3.00275 -2.48225,-3.00275 -0.77432,0 -1.22355,-0.29818 -0.99831,-0.66264 0.63505,-1.02757 4.22371,-0.7809 4.22371,0.29034 0,0.52413 0.68884,1.13309 1.53076,1.35326 0.84193,0.22017 1.87784,1.39587 2.30202,2.6127 0.69758,2.00112 2.983,3.17838 2.983,1.53659 0,-0.37168 0.34635,-0.46173 0.76966,-0.2001 0.42332,0.26161 0.58876,0.76838 0.36766,1.12613 -0.2211,0.35774 0.24951,0.85725 1.04582,1.10997 1.02311,0.32472 1.32669,0.92278 1.03487,2.03871 -0.4041,1.54533 -0.36947,1.55069 1.61603,0.24972 1.11596,-0.7312 2.27344,-1.08502 2.57217,-0.78629 0.63796,0.63796 -1.94523,2.69126 -3.38574,2.69126 -0.54518,0 -0.99124,0.47471 -0.99124,1.05492 0,0.58023 -0.52887,1.25789 -1.17529,1.50595 -0.67395,0.25861 -0.97793,0.13165 -0.71261,-0.29763 0.57103,-0.92396 -0.40125,-0.9543 -1.81873,-0.0566 -0.82947,0.52525 -0.46388,1.21216 1.70395,3.20174 1.51801,1.39315 2.75999,3.19689 2.75999,4.00831 0,1.42264 -0.0364,1.4255 -1.02036,0.0798 -1.49441,-2.04375 -2.04114,-0.41371 -0.82853,2.47025 l 1.04495,2.48526 2.35296,-1.21676 c 2.16504,-1.11959 2.50359,-1.11806 4.23919,0.0192 1.51129,0.99025 1.70857,1.45001 0.99246,2.31289 -0.49159,0.59232 -1.23237,0.86772 -1.64615,0.61197 -0.45913,-0.28374 -0.35189,-0.74571 0.27513,-1.18527 0.84542,-0.59267 0.8346,-0.66816 -0.0612,-0.42599 -1.61833,0.43753 -1.78795,1.75874 -0.40354,3.14317 1.12986,1.12984 1.12301,1.26557 -0.0872,1.73001 -0.9143,0.35085 -1.85063,-0.16752 -3.08174,-1.70612 -2.18351,-2.72884 -2.3659,-1.0005 -0.21344,2.02236 0.8933,1.25451 1.31757,2.60199 0.99059,3.14613 -0.39443,0.65646 -0.1743,0.6293 0.70943,-0.0876 1.12629,-0.91359 1.28133,-0.84809 1.28133,0.54134 0,1.59215 2.41938,3.50603 3.30833,2.61709 0.41611,-0.41611 0.59198,0.29184 0.42847,1.72484 -0.0273,0.2398 0.65423,1.04655 1.51462,1.79278 1.59568,1.3839 2.17945,2.78459 0.80707,1.93641 -0.41652,-0.25743 -0.75732,0.0349 -0.75732,0.64952 0,0.61464 -0.42598,1.28942 -0.94663,1.49952 -0.67301,0.27156 -0.68751,0.39926 -0.0502,0.44176 0.53498,0.0357 0.75806,0.82327 0.55317,1.95306 -0.1931,1.06487 0.0153,1.89329 0.47641,1.89329 0.45084,0 0.71311,0.6299 0.5828,1.39979 -0.13031,0.76991 0.27425,2.35922 0.89903,3.53182 0.87737,1.64669 0.92077,2.20425 0.19063,2.44941 -0.56334,0.18914 -0.77414,0.99947 -0.5217,2.00534 0.32418,1.2916 -0.0253,1.89258 -1.48886,2.55935 -1.19559,0.54477 -2.08137,0.59824 -2.36293,0.14267 -0.24777,-0.40082 -1.07322,-0.72877 -1.83441,-0.72877 -1.34739,0 -2.16464,-2.12616 -2.54705,-6.62647 -0.0796,-0.93717 -0.38969,-1.70394 -0.68901,-1.70394 -0.29931,0 -0.34804,-0.51118 -0.10835,-1.13597 0.48182,-1.25558 -0.3183,-1.45749 -1.87224,-0.47244 -0.80565,0.51071 -0.7546,0.73838 0.2523,1.12477 0.69435,0.26643 1.11874,0.91025 0.9431,1.43068 -0.17565,0.52043 0.10602,2.56497 0.62578,4.54346 0.76822,2.92386 0.76187,3.59722 -0.0338,3.59722 -0.5385,0 -1.1569,0.67995 -1.37424,1.51101 -0.32562,1.2452 -0.10429,1.43803 1.25781,1.09614 1.37196,-0.34434 1.68204,-0.0637 1.82392,1.65066 0.094,1.13603 0.68103,2.62914 1.30444,3.318 0.62341,0.68888 1.13349,1.88147 1.13349,2.65016 0,1.28699 -0.13883,1.26727 -1.75276,-0.24894 -0.96404,-0.90565 -1.97571,-1.64664 -2.24819,-1.64664 -0.80918,0 0.40344,2.57594 1.68208,3.57314 1.02654,0.80062 1.03276,0.92726 0.047,0.95823 -0.91327,0.0288 -0.93771,0.16135 -0.12464,0.67675 0.55622,0.35257 0.99154,0.85494 0.96736,1.1164 -0.0752,0.81428 0.70361,3.05237 1.82888,5.25501 0.94171,1.84328 0.93676,2.16796 -0.0387,2.54229 -0.6151,0.23601 -1.11832,1.07424 -1.11832,1.86271 0,0.78849 -0.34078,1.43359 -0.75731,1.43359 -0.41653,0 -0.7573,-1.02236 -0.7573,-2.27194 0,-1.24954 -0.31287,-2.27192 -0.69527,-2.27192 -0.38239,0 -0.6439,2.40163 -0.58114,5.33693 0.0767,3.59032 -0.19909,5.5305 -0.8429,5.9284 -0.7327,0.45282 -0.86024,3.24034 -0.54412,11.89188 0.43711,11.96328 1.89287,22.29599 1.75214,12.43635 -0.0387,-2.70737 -0.0199,-5.51889 0.0419,-6.24779 0.15092,-1.78409 2.38404,-1.70242 2.38404,0.0872 0,0.77687 0.76051,2.37931 1.69001,3.56098 0.9295,1.18167 1.23629,1.86808 0.68175,1.52537 -0.78397,-0.48453 -0.84576,-0.30801 -0.27772,0.79354 0.4018,0.77918 0.5882,1.81144 0.41423,2.29393 -0.17396,0.48248 0.0277,1.08977 0.44793,1.34953 0.42031,0.25977 0.55077,1.02849 0.28993,1.70825 -0.29555,0.77022 -0.17031,1.04808 0.33238,0.7374 0.44365,-0.27417 1.00623,0.0217 1.25018,0.65735 0.29395,0.76599 -0.19016,1.39678 -1.43526,1.87017 -2.2747,0.86482 -2.36136,1.58426 -0.36419,3.02373 1.57889,1.13801 2.11086,4.54386 0.70971,4.54386 -0.44271,0 -0.69829,0.76678 -0.56799,1.70394 0.15683,1.12786 -0.11449,1.62948 -0.80262,1.48367 -0.65337,-0.13847 -0.87664,0.20418 -0.60105,0.92237 0.24118,0.62848 0.11264,1.3441 -0.28574,1.59029 -0.39834,0.24619 -0.72424,1.79065 -0.72424,3.43214 0,1.64151 -0.33623,2.98454 -0.74715,2.98454 -1.17009,0 -3.11912,5.37164 -2.57317,7.09177 0.46729,1.47234 0.42727,1.48304 -0.83288,0.22288 -0.72808,-0.72808 -1.71021,-1.13839 -2.18251,-0.91181 -0.47231,0.22658 -1.47441,0.62739 -2.22686,0.89065 -0.75246,0.26326 -1.21096,0.88827 -1.01884,1.38889 0.55824,1.45476 -2.0576,1.06224 -3.14649,-0.47214 -0.54426,-0.76694 -1.53425,-1.39444 -2.19997,-1.39444 -1.09332,0 -1.08918,0.13394 0.043,1.38491 1.56976,1.73458 1.64035,3.46949 0.11743,2.88509 -0.85253,-0.32716 -1.13596,0.12501 -1.13596,1.81223 0,1.23649 -0.34079,2.24816 -0.7573,2.24816 -0.7362,0 -1.0818,-1.59475 -0.79618,-3.67408 0.0875,-0.63695 -0.51113,-0.41639 -1.5849,0.58399 -1.54209,1.43668 -1.6305,1.85902 -0.83205,3.97439 0.49136,1.3018 0.72439,2.64038 0.51781,2.97462 -0.56406,0.91268 -5.02598,0.1521 -5.74344,-0.97903 -0.48514,-0.76489 -0.62839,-0.72281 -0.63738,0.18723 -0.006,0.6456 0.3292,1.58277 0.74572,2.08259 0.55076,0.66093 0.50946,0.70223 -0.15146,0.15147 -1.30626,-1.08857 -3.0764,-0.9508 -2.43272,0.18933 0.40276,0.71337 0.30514,0.73536 -0.39616,0.0891 -1.52806,-1.40781 -5.16074,0.35357 -5.16074,2.50229 0,1.11772 0.45043,1.76721 1.23064,1.77457 0.92567,0.008 0.98969,0.16447 0.25833,0.62854 -0.53598,0.34009 -0.75451,1.18445 -0.48695,1.88168 0.26692,0.6956 0.14979,1.26475 -0.26028,1.26475 -1.1498,0 -2.49938,-1.94889 -1.88375,-2.72028 0.30183,-0.3782 0.0714,-0.27259 -0.51237,0.23468 -1.57818,1.37171 -3.1711,6.48275 -2.29383,7.36001 1.15491,1.15494 0.85503,1.94136 -0.74027,1.94136 -0.80846,0 -1.67761,0.33604 -1.93146,0.74676 -0.74793,1.21017 -5.27636,0.37713 -5.552534,-1.02144 -0.134685,-0.68197 -0.731062,-1.28253 -1.325299,-1.33461 -2.097169,-0.18374 -2.474423,-0.2896 -3.036805,-0.85197 -0.928316,-0.92829 -1.830178,-0.64841 -1.830178,0.56798 0,0.6248 -0.340793,1.13597 -0.75731,1.13597 -0.416526,0 -0.757309,0.64512 -0.757309,1.4336 0,0.78847 -0.511195,1.62975 -1.135969,1.86951 -0.624776,0.23974 -1.13596,0.0376 -1.13596,-0.44909 0,-0.60325 -0.246639,-0.63838 -0.774694,-0.11031 -0.76338,0.76338 -0.04844,2.84792 2.757079,8.03868 0.636534,1.1777 1.186459,4.43868 1.27306,7.5491 l 0.152443,5.47579 -3.713318,0.5458 c -2.042322,0.3002 -3.996646,0.99256 -4.342925,1.53862 -0.479842,0.75662 -0.632386,0.76761 -0.64122,0.0461 -0.0062,-0.52066 -0.505842,-0.94663 -1.109932,-0.94663 -0.604078,0 -1.445696,-0.59639 -1.870235,-1.32531 -0.428405,-0.7355 -0.782169,-0.904 -0.794942,-0.37864 -0.01264,0.52064 -0.885986,0.94663 -1.940704,0.94663 -1.26558,0 -2.168181,0.57943 -2.654316,1.70395 -0.631527,1.4608 -0.677271,1.36997 -0.320586,-0.63664 0.28294,-1.59174 0.04184,-2.65115 -0.753578,-3.31129 -1.020617,-0.84704 -1.168155,-0.59709 -1.158044,1.96194 0.01301,3.2893 0.520566,4.33496 2.449661,5.0467 1.498814,0.55299 1.803031,2.05113 0.416527,2.05113 -0.706818,0 -0.706818,0.20195 0,0.90877 1.548717,1.54872 1.019414,2.65354 -1.931144,4.03091 -3.767527,1.75873 -12.690506,8.51717 -16.47148,12.47584 -1.666085,1.74438 -4.467896,4.17221 -6.226256,5.3952 -3.344953,2.3265 -7.181558,7.28268 -8.136564,10.5109 -0.308043,1.0413 -1.871048,3.93801 -3.473341,6.43715 -1.602292,2.49911 -4.481827,7.95173 -6.398963,12.11695 -1.917137,4.1652 -6.344083,13.36651 -9.837656,20.44734 -3.49357,7.08086 -7.364603,15.14819 -8.602281,17.9274 -1.237687,2.77923 -3.604008,6.88552 -5.258488,9.12511 -1.6544781,2.23959 -10.25305536,15.90075 -10.3259112,20.91821 -0.69720279,48.01522 0.06171059,0.37507 -1.0006077,48.06407 M 88.889658,309.74551 c -0.484102,-1.21098 -0.747139,-1.40178 -0.778931,-0.56504 -0.06381,1.67871 0.916536,4.17342 1.248555,3.17734 0.14372,-0.43115 -0.06763,-1.60669 -0.469624,-2.6123 z m -20.516994,-0.54768 c 0,-0.3369 -0.539008,-1.27408 -1.197786,-2.0826 -1.096067,-1.34519 -1.160375,-1.35222 -0.757309,-0.0828 0.242263,0.76297 0.440477,1.70015 0.440477,2.08261 0,0.38244 0.340783,0.69536 0.75731,0.69536 0.416514,0 0.757308,-0.27565 0.757308,-0.61256 z m 38.244136,-0.90205 c -0.25743,-0.41653 -0.80883,-0.7573 -1.22535,-0.7573 -0.41652,0 -0.54669,0.34077 -0.28927,0.7573 0.25743,0.41652 0.80882,0.75731 1.22536,0.75731 0.41651,0 0.54668,-0.34079 0.28926,-0.75731 z M 328.63142,295.9895 c -0.21007,-0.52066 -0.38198,-0.0947 -0.38198,0.94663 0,1.0413 0.17191,1.46728 0.38198,0.94664 0.21008,-0.52065 0.21008,-1.37262 0,-1.89327 z m -211.80253,-1.13598 c -0.008,-1.62286 -0.17367,-1.83183 -0.74572,-0.94662 -0.95754,1.4817 -0.95754,3.02923 0,3.02923 0.41652,0 0.7521,-0.93717 0.74572,-2.08261 z m 217.27159,-4.57049 c -0.0673,-1.57931 -0.17342,-1.70482 -0.4568,-0.54134 -0.20297,0.83305 -0.93021,2.16059 -1.61609,2.95011 -1.19065,1.37043 -1.16991,1.39496 0.45679,0.54133 1.17519,-0.61669 1.67669,-1.53211 1.6161,-2.9501 z m -265.727816,0.59463 c 0,-0.41653 -0.531303,-0.75731 -1.180658,-0.75731 -0.649366,0 -0.970038,0.34078 -0.712619,0.75731 0.25743,0.41652 0.788721,0.7573 1.18067,0.7573 0.391936,0 0.712607,-0.34078 0.712607,-0.7573 z m 54.620266,-0.95926 c -0.74793,-0.74236 -0.83492,-0.65538 -0.42393,0.42394 0.28438,0.74688 0.70785,1.16718 0.941,0.934 0.23317,-0.23316 4.9e-4,-0.84424 -0.51707,-1.35794 z m 225.45805,-1.37247 c 0.78715,-0.0372 0.90588,-0.20355 0.31557,-0.44175 -0.52067,-0.2101 -0.97057,-0.94996 -0.99988,-1.64416 -0.0425,-1.00726 -0.18471,-0.95626 -0.70408,0.25242 -0.35797,0.83304 -0.64786,2.02582 -0.64431,2.65059 0.007,0.76163 0.13245,0.82402 0.38859,0.18933 0.21006,-0.52065 0.94995,-0.97355 1.64411,-1.00643 z M 67.4848,288.03775 c -1.320453,-2.92081 -4.528811,-8.50174 -5.085107,-8.84557 -0.385348,-0.23814 -0.532665,-1.19942 -0.327372,-2.13618 0.310427,-1.41652 0.223663,-1.51199 -0.515449,-0.56723 -0.739112,0.94476 -0.825863,0.84929 -0.515437,-0.56721 0.205282,-0.93676 0.04123,-1.90842 -0.364588,-2.15922 -0.405826,-0.25081 -0.545437,-0.95741 -0.310277,-1.57022 0.235159,-0.61284 0.01914,-1.85633 -0.479928,-2.76332 -0.499129,-0.90701 -0.983523,-2.1063 -1.076434,-2.66512 -0.321285,-1.93244 -1.176118,-2.00598 -2.619688,-0.22537 -1.762933,2.17455 -1.966581,8.37251 -0.372869,11.34824 0.59211,1.10556 1.244841,2.55922 1.450528,3.23032 0.205674,0.6711 1.058888,1.39932 1.896015,1.61823 1.171699,0.30641 1.415301,0.11264 1.058262,-0.84154 -0.402846,-1.07674 -0.295911,-1.10303 0.813972,-0.20022 0.702768,0.57165 1.277753,1.5251 1.277753,2.11876 0,1.17197 3.564183,4.79362 4.717564,4.79362 0.390403,0 0.594286,-0.25558 0.453055,-0.56797 z m 272.19403,-0.8388 c 1.66699,-0.13565 1.81406,-3.54479 0.17994,-4.17185 -0.8981,-0.34464 -1.0438,-0.0352 -0.67523,1.43359 0.44304,1.76495 0.29053,1.8731 -2.64118,1.8731 -1.71123,0 -3.11134,0.31114 -3.11134,0.69143 0,0.38028 1.10756,0.59921 2.46126,0.4865 1.35369,-0.11276 3.05764,-0.25345 3.78655,-0.31277 z m 4.97083,-4.21908 c -1.11885,-0.9853 -1.82882,-1.99691 -1.5777,-2.248 0.25105,-0.25111 -0.11142,-0.45655 -0.80564,-0.45655 -1.80882,0 -1.56354,0.83233 0.8204,2.78423 2.77692,2.27362 4.15544,2.20334 1.56294,-0.0796 z M 139.99962,261.52999 c -0.82498,-0.82499 -1.13811,0.25376 -0.61467,2.11758 l 0.52242,1.86022 0.26605,-1.76898 c 0.14633,-0.97294 0.0681,-1.9669 -0.1738,-2.20882 z m 2.36769,-4.15445 c -0.18115,-0.94202 -0.33622,-0.34963 -0.34463,1.31646 -0.008,1.66608 0.1398,2.43683 0.32934,1.71277 0.18955,-0.72405 0.19643,-2.08721 0.0154,-3.02923 z m -74.252664,-2.15029 0.120616,-3.34904 -0.822182,2.83991 c -0.497817,1.7195 -1.292353,2.84448 -2.013919,2.85151 -1.045906,0.0103 -1.052728,0.10138 -0.0557,0.745 1.908997,1.23249 2.64515,0.41235 2.771216,-3.08738 z m -9.58701,-0.34644 c 0,-2.53131 -1.98518,-5.466 -4.618708,-6.82785 -3.168045,-1.63827 -7.942066,-1.41076 -9.820846,0.46803 -2.563022,2.56301 -0.723063,3.9953 8.759734,6.81887 5.888684,1.75339 5.67982,1.77028 5.67982,-0.45905 z m -4.87224,-1.03192 c -0.960701,-0.37621 -1.168037,-0.75658 -0.602811,-1.10591 1.073116,-0.66322 4.717742,0.19476 4.717742,1.1106 0,0.80127 -2.062865,0.79891 -4.114931,-0.005 z m 81.104744,-4.05329 c -0.21007,-0.52065 -0.38197,-0.0946 -0.38197,0.94665 0,1.0413 0.1719,1.46729 0.38197,0.94663 0.2101,-0.52065 0.2101,-1.37262 0,-1.89328 z m 2.27194,0 c -0.21008,-0.52065 -0.38199,-0.0946 -0.38199,0.94665 0,1.0413 0.17191,1.46729 0.38199,0.94663 0.21009,-0.52065 0.21009,-1.37262 0,-1.89328 z m 243.35214,-8.09638 c 0,-0.39194 -0.34079,-0.92323 -0.7573,-1.18066 -0.41653,-0.25742 -0.75732,0.0632 -0.75732,0.71261 0,0.64937 0.34079,1.18066 0.75732,1.18066 0.41651,0 0.7573,-0.32067 0.7573,-0.71261 z m -242.35066,-3.26327 c 0.006,-0.31238 -0.3292,-0.56797 -0.74572,-0.56797 -0.41652,0 -0.75208,0.76678 -0.74572,1.70395 0.0103,1.37788 0.1521,1.48656 0.74572,0.56797 0.40378,-0.62477 0.73935,-1.39155 0.74572,-1.70395 z m 245.40489,-5.49048 c 1.02767,-1.40105 1.01161,-1.43668 -0.21432,-0.47526 -0.72891,0.57165 -1.32528,1.39523 -1.32528,1.83017 0,0.43493 0.0965,0.64879 0.21431,0.47525 0.1178,-0.17355 0.71423,-0.99712 1.32529,-1.83016 z m -245.62858,-7.76242 c -0.19048,-0.72892 -0.34634,-0.13254 -0.34634,1.32528 0,1.45782 0.15586,2.05421 0.34634,1.32531 0.19049,-0.72892 0.19049,-1.92169 0,-2.65059 z m 253.17669,0.99132 c 0,-0.18367 -0.3408,-0.54458 -0.75732,-0.802 -0.41652,-0.25743 -0.75729,-0.10712 -0.75729,0.33397 0,0.44108 0.34077,0.80199 0.75729,0.80199 0.41652,0 0.75732,-0.15026 0.75732,-0.33396 z M 83.897516,209.08822 c -0.257429,-0.41653 -1.061354,-0.75731 -1.786514,-0.75731 -0.725149,0 -1.721729,-0.40328 -2.214601,-0.89616 -0.492897,-0.49287 -1.129036,-0.66327 -1.413658,-0.37866 -0.764769,0.76479 0.110801,1.37825 2.915073,2.04239 1.374835,0.3256 2.605004,0.62689 2.733718,0.66952 0.128716,0.0427 0.02344,-0.26327 -0.234018,-0.67978 z m -13.820904,-3.5308 c -0.520651,-0.21008 -0.946639,-1.07689 -0.946639,-1.9262 0,-1.10004 0.282584,-1.35418 0.982334,-0.88353 0.540272,0.36338 0.284682,0.0228 -0.567991,-0.75668 -1.520692,-1.39029 -1.555036,-1.38587 -1.797767,0.23101 -0.269627,1.79604 1.062226,3.87244 2.42279,3.77716 0.536542,-0.0375 0.502075,-0.20176 -0.09276,-0.44176 z m 3.597216,-0.58971 c 0,-0.18369 -0.340783,-0.54459 -0.75731,-0.80201 -0.416514,-0.25743 -0.757308,-0.10712 -0.757308,0.33396 0,0.4411 0.340794,0.80201 0.757308,0.80201 0.416527,0 0.75731,-0.15029 0.75731,-0.33396 z m -12.874264,-4.93845 c 1.634584,-0.49868 1.71196,-0.65472 0.566284,-1.14216 -1.684463,-0.71667 -5.321466,0.15878 -4.717759,1.1356 0.515216,0.83363 1.435584,0.83508 4.151475,0.007 z m 2.333878,-3.058 c 0.972382,0 1.452678,-0.52755 1.452678,-1.59565 0,-1.21942 -0.312487,-1.46899 -1.3253,-1.0585 -0.728903,0.29542 -2.295302,0.88786 -3.480867,1.31651 -1.602534,0.57942 -1.89399,0.94611 -1.13597,1.42921 0.560788,0.35741 1.473476,0.48301 2.028203,0.27912 0.554714,-0.20388 1.662278,-0.37069 2.461256,-0.37069 z m 76.645758,-6.05848 c -0.21785,-0.83304 -0.52674,-1.51462 -0.68641,-1.51462 -0.15968,0 -0.29034,0.68158 -0.29034,1.51462 0,0.83303 0.30889,1.51462 0.68642,1.51462 0.37753,0 0.50818,-0.68159 0.29033,-1.51462 z m 9.62559,-3.78656 c 0,-0.41651 -0.3609,-0.7573 -0.80202,-0.7573 -0.44109,0 -0.59137,0.34079 -0.33395,0.7573 0.25743,0.41654 0.61833,0.75732 0.80201,0.75732 0.18369,0 0.33396,-0.34078 0.33396,-0.75732 z m -3.68155,-1.57932 c -0.84224,-0.78467 -1.86644,-2.02546 -2.276,-2.75728 -1.17188,-2.09404 -1.88708,-0.53384 -0.83972,1.83186 0.63101,1.42529 1.55204,2.16335 2.79418,2.2391 1.85135,0.11289 1.85163,0.11178 0.32154,-1.31368 z m -81.012136,-4.28983 c -0.823911,-1.59263 -0.529657,-4.01504 0.570311,-4.69485 0.525965,-0.32505 0.397029,-1.06153 -0.380133,-2.17107 -0.646864,-0.92352 -1.479721,-1.4915 -1.850799,-1.26216 -0.802794,0.49615 -3.743021,-1.06341 -5.021622,-2.66357 -0.798474,-0.9993 -0.968037,-0.98028 -1.409446,0.1581 -0.88191,2.27437 1.145612,6.5268 4.421836,9.27414 3.492585,2.92875 4.716202,3.38202 3.669853,1.35941 z m 71.440766,-0.18931 c -0.25742,-0.41652 -0.87391,-0.75209 -1.36998,-0.74571 -0.54194,0.007 -0.44853,0.30461 0.23402,0.74571 1.45489,0.94022 1.71706,0.94022 1.13596,0 z m 5.67982,-0.75731 c 0,-0.41652 -0.15027,-0.7573 -0.33394,-0.7573 -0.18369,0 -0.54461,0.34078 -0.80202,0.7573 -0.25744,0.41651 -0.10711,0.75731 0.33397,0.75731 0.4411,0 0.80199,-0.3408 0.80199,-0.75731 z m -6.05848,-5.63513 c 0,-0.18368 -0.34078,-0.54459 -0.7573,-0.802 -0.41651,-0.25744 -0.75731,-0.10712 -0.75731,0.33394 0,0.44111 0.3408,0.80201 0.75731,0.80201 0.41652,0 0.7573,-0.15028 0.7573,-0.33395 z m 1.73386,-14.81148 c 0.21773,-0.83263 0.0871,-1.7047 -0.29034,-1.93798 -0.37741,-0.23325 -0.68621,0.448 -0.68621,1.51387 0,2.32044 0.43162,2.50789 0.97655,0.42411 z m -2.49116,-6.39319 c 0,-0.18368 -0.34079,-0.54459 -0.75731,-0.80202 -0.41651,-0.25741 -0.75732,-0.1071 -0.75732,0.33398 0,0.4411 0.34081,0.802 0.75732,0.802 0.41652,0 0.75731,-0.15028 0.75731,-0.33396 z m -4.31675,-13.04083 c -0.21222,-0.55297 -0.6909,-0.81684 -1.06377,-0.5864 -1.0371,0.64096 -0.80663,1.5918 0.3858,1.5918 0.58508,0 0.89016,-0.45243 0.67797,-1.0054 z m -10.07213,-5.53418 c 0,-0.40346 -0.51118,-0.53739 -1.13597,-0.29764 -0.62478,0.23976 -1.13596,0.56984 -1.13596,0.73355 0,0.16368 0.51118,0.29762 1.13596,0.29762 0.62479,0 1.13597,-0.33009 1.13597,-0.73353 z m -5.30708,-19.52451 c -0.002,-0.31238 -0.85522,-0.96189 -1.89326,-1.44336 -1.50151,-0.69642 -1.88738,-0.67061 -1.88738,0.12622 0,1.0103 1.09679,1.71525 2.83993,1.82534 0.52064,0.0328 0.94397,-0.1958 0.94071,-0.5082 z m 15.90942,-8.14107 c 0,-0.62478 -0.13396,-1.13596 -0.29763,-1.13596 -0.16372,0 -0.49379,0.51118 -0.73356,1.13596 -0.23975,0.62478 -0.10576,1.13597 0.29765,1.13597 0.40344,0 0.73354,-0.51119 0.73354,-1.13597 z m -15.19051,-3.07532 c -1.43344,-0.49979 -2.52107,-1.29025 -2.41694,-1.75659 0.10417,-0.46636 -0.15146,-0.84792 -0.56799,-0.84792 -0.41652,0 -0.79683,-0.93717 -0.84516,-2.082585 -0.0664,-1.574011 -0.17681,-1.712723 -0.45216,-0.568003 -0.60488,2.514828 -1.51072,2.877688 -2.02898,0.812774 -0.43281,-1.724453 -2.01734,-2.847538 -1.94803,-1.38075 0.10761,2.277664 4.38467,6.543834 7.17092,7.152654 2.91164,0.63622 3.75867,-0.39856 1.08834,-1.32958 z M 93.310659,97.574359 c -0.03766,-2.276998 -0.220808,-2.790707 -0.626058,-1.755993 -0.535895,1.368311 -0.253955,4.974554 0.388922,4.974554 0.159699,0 0.266414,-1.448352 0.237136,-3.218561 z m -9.791804,-4.354526 c 0,-0.416528 -0.53129,-0.75733 -1.180657,-0.75733 -0.649367,0 -0.970038,0.340802 -0.712608,0.75733 0.257417,0.41651 0.78872,0.757313 1.180658,0.757313 0.391937,0 0.712607,-0.340803 0.712607,-0.757313 z m 45.426985,-1.748656 c 0.006,-0.336976 -0.32919,-0.402057 -0.74571,-0.144624 -0.41653,0.257414 -0.75209,1.044309 -0.74571,1.748636 0.0103,1.103617 0.113,1.123607 0.74571,0.144644 0.40376,-0.624796 0.73933,-1.411671 0.74571,-1.748656 z M 92.173622,63.874073 c -0.376967,-0.312387 -0.939738,-0.908778 -1.250587,-1.325284 -0.322536,-0.432187 -0.57018,-0.18834 -0.576789,0.567975 -0.0072,0.736702 0.548959,1.325283 1.250587,1.325283 0.694187,0 0.953755,-0.255587 0.576789,-0.567974 z M 99.939681,47.63925 c -0.241753,-0.604125 -0.421205,-0.424685 -0.457533,0.457535 -0.03281,0.798327 0.146111,1.245619 0.397756,0.993983 0.251656,-0.251657 0.278546,-0.904836 0.05976,-1.451518 z M 111.1807,42.626331 c -0.23317,-0.233161 -0.84425,-4.8e-4 -1.35794,0.51708 -0.74237,0.747936 -0.65539,0.834918 0.42393,0.423939 0.74688,-0.284389 1.16718,-0.707848 0.93401,-0.941019 z m 1.41408,-4.374733 c 0.28302,-0.737555 0.11374,-1.083772 -0.43964,-0.899313 -1.13206,0.37736 -1.75537,2.098548 -0.75995,2.098548 0.40665,0 0.94648,-0.539659 1.19959,-1.199235 z m 5.76032,-1.830001 c 0,-0.416514 -0.3609,-0.757308 -0.80201,-0.757308 -0.4411,0 -0.59138,0.340794 -0.33395,0.757308 0.25742,0.416527 0.61833,0.757309 0.802,0.757309 0.18367,0 0.33396,-0.340782 0.33396,-0.757309 z m -3.78654,-1.514617 c 0,-0.416515 -0.36091,-0.75731 -0.80201,-0.75731 -0.4411,0 -0.59138,0.340795 -0.33397,0.75731 0.25744,0.416525 0.61833,0.757309 0.80202,0.757309 0.18367,0 0.33396,-0.340784 0.33396,-0.757309 z m 14.38888,-7.99644 c 0,-0.649367 -0.34079,-0.970038 -0.75731,-0.71262 -0.41653,0.257431 -0.75731,0.788721 -0.75731,1.180658 0,0.391937 0.34078,0.71262 0.75731,0.71262 0.41652,0 0.75731,-0.531302 0.75731,-1.180658 z M 189.54221,4.1549166 c 0,-0.1636912 -0.51119,-0.2976296 -1.13596,-0.2976296 -0.6248,0 -1.13597,0.3300957 -1.13597,0.7335447 0,0.4034417 0.51117,0.5373802 1.13597,0.2976316 0.62477,-0.2397577 1.13596,-0.5698462 1.13596,-0.7335467 z M 202.03782,476.08909 c -7.98803,-2.02074 -29.7095,-14.51611 -28.07522,-16.15038 0.14124,-0.14124 -0.0508,-1.51773 -0.42734,-3.05885 -0.37632,-1.54106 -1.16567,-6.38026 -1.75416,-10.75373 -1.34143,-9.96954 -0.94346,-38.90178 0.63341,-46.04742 1.03494,-4.68994 1.98151,-6.84914 1.98151,-4.51997 0,1.26485 3.96072,5.88613 5.04474,5.88613 0.35783,0 1.56937,-0.85198 2.69238,-1.89328 1.12302,-1.0413 2.61045,-1.89327 3.30551,-1.89327 1.03569,0 1.16261,-0.44392 0.70331,-2.46126 -1.10742,-4.86461 -1.10189,-7.53367 0.0182,-8.65361 0.61069,-0.61065 1.15293,-2.1083 1.20496,-3.3281 0.0523,-1.21982 0.17986,-2.55863 0.28399,-2.97516 0.10418,-0.41651 0.23196,-1.0874 0.28399,-1.49085 0.0522,-0.40345 0.60586,-0.53738 1.23063,-0.29762 1.2585,0.48293 1.50886,-0.994 0.45151,-2.66337 -0.46461,-0.73356 0.091,-1.70443 1.86866,-3.26521 1.39148,-1.22169 2.73404,-2.86445 2.98356,-3.65059 0.24948,-0.78613 0.86212,-1.27571 1.3615,-1.08794 0.73535,0.2765 5.83039,-3.67099 5.83039,-4.51725 0,-0.12939 -0.93718,-0.0571 -2.08261,0.16047 -1.78513,0.33918 -1.94833,0.23309 -1.14255,-0.74268 0.51707,-0.62613 0.71589,-1.36264 0.4418,-1.63671 -0.27406,-0.27406 -0.0764,-0.4983 0.43933,-0.4983 0.51564,0 1.4797,-0.54211 2.14227,-1.20469 1.0232,-1.02319 1.04357,-1.30669 0.13527,-1.88168 -0.75535,-0.47811 -0.79141,-0.68039 -0.12286,-0.68858 0.52067,-0.006 0.94666,-0.65144 0.94666,-1.43349 0,-1.87007 1.8139,-3.3113 4.16754,-3.3113 1.04002,0 1.89092,-0.29819 1.89092,-0.66263 0,-0.36447 -0.54307,-0.66265 -1.20684,-0.66265 -0.66378,0 -1.38513,-0.68158 -1.60299,-1.51462 -0.21782,-0.83304 -0.83102,-1.51461 -1.36263,-1.51461 -1.48502,0 -1.83672,-1.79369 -0.66583,-3.39505 1.34037,-1.83296 1.32113,-2.28585 -0.15943,-3.76641 -0.8606,-0.86064 -0.98419,-1.48463 -0.42703,-2.15602 0.83357,-1.00433 0.73369,-8.50031 -0.12466,-9.35864 -0.27997,-0.27999 -0.50905,-1.64504 -0.50905,-3.03343 0,-2.01949 -0.30293,-2.52437 -1.51464,-2.52437 -0.83304,0 -1.51461,-0.3609 -1.51461,-0.802 0,-0.44111 0.30505,-0.61346 0.67793,-0.38302 0.86411,0.53407 1.33948,-0.73252 2.00598,-5.34461 0.29353,-2.03173 0.80222,-4.19462 1.13043,-4.80644 0.36381,-0.67834 0.0757,-1.86034 -0.73914,-3.02926 -0.73466,-1.05423 -1.55369,-3.05161 -1.81996,-4.43855 -0.74837,-3.8973 -2.81014,-7.70073 -4.18141,-7.71355 -0.6815,-0.006 -1.75022,-0.34716 -2.375,-0.7573 -0.9677,-0.63525 -0.97798,-0.84745 -0.0696,-1.4323 1.43812,-0.92605 4.20821,0.40739 5.37484,2.58724 0.675,1.26119 1.47123,1.66805 2.92314,1.49362 1.0975,-0.13187 5.06255,-0.48089 8.81123,-0.77559 3.74868,-0.29471 7.25185,-0.88419 7.78484,-1.30996 0.66507,-0.53129 1.5671,-0.50163 2.87559,0.0945 3.01628,1.37431 5.70504,1.09234 6.15965,-0.64596 0.46915,-1.79431 1.73401,-2.03105 1.73401,-0.32457 0,3.24017 5.22785,4.33881 6.37844,1.34042 0.70376,-1.8341 -0.73407,-3.00078 -2.19946,-1.78462 -0.65249,0.54154 -1.39678,0.77416 -1.65395,0.51696 -0.76111,-0.76106 3.00712,-3.39859 4.20094,-2.94046 0.68104,0.26134 0.89725,0.0995 0.57147,-0.4276 -0.28824,-0.4664 0.11865,-1.192 0.90429,-1.61242 1.15256,-0.61683 1.57551,-0.44138 2.19061,0.90863 0.41924,0.92019 0.78168,1.96095 0.80539,2.31277 0.0607,0.90049 4.58868,4.55547 5.87808,4.74472 0.58813,0.0863 1.61171,0.69928 2.2745,1.36213 0.66289,0.66287 2.20878,1.2052 3.43531,1.2052 2.20166,0 3.27993,1.41012 4.77712,6.2478 0.2256,0.72891 1.08234,1.3253 1.90388,1.3253 0.82152,0 1.70432,0.34079 1.96174,0.75731 0.2574,0.41651 1.26341,0.75731 2.23557,0.75731 0.98284,0 1.99567,0.58841 2.28131,1.32528 0.46038,1.1874 0.60668,1.2024 1.40632,0.14416 0.62115,-0.82194 1.46836,-1.01762 2.78585,-0.64347 l 1.89328,0.53767 -2.08261,0.0754 c -3.18154,0.11535 -2.47814,1.3933 0.94664,1.7199 1.66608,0.15889 3.02924,0.0243 3.02924,-0.2991 0,-0.3234 0.51118,-0.58801 1.13596,-0.58801 0.62479,0 1.81755,-0.68157 2.65059,-1.51461 1.80436,-1.80436 3.02923,-1.9509 3.02923,-0.36242 0,0.63372 -0.85196,1.54039 -1.89327,2.01484 -2.59235,1.18116 -2.3756,1.87509 0.77018,2.46524 3.2372,0.60729 4.15233,0.12506 4.15233,-2.18807 0,-0.97214 0.53906,-1.97441 1.19791,-2.22722 1.68509,-0.64665 1.99279,-0.57626 1.43389,0.32798 -0.30018,0.48576 0.19062,0.67323 1.28062,0.48907 0.97207,-0.16422 1.32332,-0.14941 0.78056,0.033 -1.41217,0.47438 0.35979,2.47688 2.1918,2.47688 1.00782,0 1.26531,-0.36996 0.92255,-1.32528 -0.26156,-0.72892 -0.19705,-1.07266 0.14345,-0.76389 0.34041,0.30879 0.99108,0.27057 1.44592,-0.0849 0.45484,-0.35548 1.7481,-0.86616 2.87385,-1.13487 2.62922,-0.62753 6.05877,2.70019 5.73707,5.56682 -0.1947,1.73552 0.10393,1.92479 3.90521,2.47519 2.26383,0.32779 4.27396,0.7539 4.46699,0.94692 0.19296,0.19303 0.89666,-0.23924 1.56378,-0.96056 1.29621,-1.40168 3.86342,-1.96564 3.86342,-0.84873 0,0.37024 -0.30105,0.67317 -0.66902,0.67317 -0.36789,0 -0.87909,0.76677 -1.13588,1.70393 -0.35526,1.29625 -0.62425,1.46023 -1.12415,0.68536 -0.48551,-0.75246 -0.79192,-0.48177 -1.17285,1.036 -0.28361,1.13002 -0.34336,2.22687 -0.13284,2.43744 0.79329,0.79325 2.76995,-0.59409 3.47007,-2.43544 0.4812,-1.26572 1.30985,-1.91617 2.44983,-1.92301 0.94754,-0.006 2.43035,-0.20037 3.29527,-0.43262 1.07326,-0.28821 2.15522,0.19178 3.40789,1.51187 1.80148,1.89845 3.51338,2.69278 2.59264,1.20301 -0.25741,-0.41652 -0.14207,-0.7573 0.25627,-0.7573 0.39843,0 0.67409,1.00665 0.61267,2.23701 -0.0614,1.23037 0.22916,2.23038 0.64569,2.22226 0.41651,-0.008 0.64545,-0.55457 0.50876,-1.21435 -0.21259,-1.02592 -0.0989,-1.04614 0.78479,-0.13968 2.31919,2.37904 5.32548,6.81029 4.90533,7.23045 -0.24719,0.24719 0.38683,1.68019 1.40905,3.18443 1.4523,2.13732 1.86426,3.73086 1.88525,7.29235 0.015,2.50658 0.49065,5.39493 1.05742,6.41858 0.74376,1.34314 0.82426,2.39712 0.2893,3.78655 -0.40774,1.05895 -0.86825,3.59744 -1.02329,5.64111 -0.40901,5.39048 -1.05151,7.84646 -3.39084,12.96251 -1.14718,2.5087 -2.68959,6.76857 -3.4275,9.46637 -0.738,2.69777 -1.59287,5.24586 -1.89971,5.66238 -0.30687,0.41652 -2.32829,4.1652 -4.49206,8.3304 -7.51561,14.46754 -16.30842,26.23276 -30.97176,41.44181 -24.00582,24.89924 -43.04905,35.31133 -72.4154,39.59415 -9.05151,1.32007 -13.84885,1.33159 -18.93273,0.0453 z m -8.69385,-93.97392 c 0.52687,-0.63484 0.76815,-1.34405 0.53618,-1.57598 -0.67568,-0.67573 -3.66863,1.21782 -3.1785,2.01093 0.64045,1.03625 1.54484,0.88738 2.64232,-0.43495 z m 10.58711,-18.90803 c 0,-0.62125 0.6816,-1.5552 1.51462,-2.07543 2.35569,-1.47114 1.78142,-2.1132 -0.75732,-0.84672 -2.14249,1.06882 -3.25755,4.05171 -1.5146,4.05171 0.41652,0 0.7573,-0.50831 0.7573,-1.12956 z m 5.63523,0.0177 c -1.91781,-1.45056 -4.12061,-1.46344 -4.12061,-0.024 0,0.80458 0.81548,1.13597 2.79531,1.13597 2.62044,0 2.70337,-0.0695 1.3253,-1.11189 z m -2.81106,-6.16145 c -0.25166,-0.25164 -0.90484,-0.27854 -1.45154,-0.0598 -0.6041,0.24176 -0.42469,0.42121 0.45756,0.45754 0.79829,0.0328 1.24563,-0.1461 0.99398,-0.39775 z m -1.30955,-23.73165 c 0,-0.39193 -0.34078,-0.92322 -0.75732,-1.18066 -0.4165,-0.25742 -0.7573,0.0632 -0.7573,0.71261 0,0.64937 0.3408,1.18067 0.7573,1.18067 0.41654,0 0.75732,-0.32068 0.75732,-0.71262 z m 124.47428,-4.96286 c -0.23878,-0.62238 -0.7757,-0.92057 -1.19299,-0.66264 -0.46665,0.28837 -0.36312,0.71971 0.26862,1.12002 1.37891,0.87373 1.42625,0.85034 0.92437,-0.45738 z m -71.76733,-16.84364 c -0.44887,-0.44891 -2.72451,0.72201 -2.72451,1.40188 0,0.3755 0.66605,0.26674 1.48016,-0.24167 0.81411,-0.50842 1.37406,-1.03051 1.24435,-1.16021 z m 64.30276,7.3816 c -0.26534,-0.42929 0.0387,-0.55624 0.71263,-0.29763 1.31196,0.50345 1.55196,1.04627 0.46265,1.04627 -0.39192,0 -0.92082,-0.33689 -1.17528,-0.74864 z M 115.32587,302.61596 c 0,-0.62478 0.13392,-1.13597 0.29763,-1.13597 0.1637,0 0.49379,0.51119 0.73354,1.13597 0.23974,0.62477 0.10577,1.13595 -0.29763,1.13595 -0.40345,0 -0.73354,-0.51118 -0.73354,-1.13595 z m 74.97363,-8.60924 c 0,-0.27388 -0.76675,-0.84685 -1.70394,-1.27325 -0.93716,-0.42641 -1.6048,-1.23061 -1.48364,-1.78712 0.14858,-0.68252 -0.21356,-0.84532 -1.11287,-0.50024 -0.73329,0.28139 -1.09098,0.26935 -0.79487,-0.0267 0.29611,-0.29607 0.15881,-0.99567 -0.30513,-1.55464 -1.4475,-1.74418 0.36382,-1.05252 2.87309,1.09705 1.85685,1.5907 3.17146,2.04773 5.84953,2.03357 1.90245,-0.0103 3.16458,0.27156 2.80932,0.62685 -0.83902,0.83898 -6.13149,2.03406 -6.13149,1.38452 z m 3.58149,-1.31467 c -0.25166,-0.25166 -0.90484,-0.27855 -1.45154,-0.0598 -0.60411,0.24174 -0.42471,0.42119 0.45756,0.45753 0.79829,0.0328 1.24562,-0.14611 0.99398,-0.39776 z m -6.5149,-4.81512 c -1.3023,-1.44512 -2.37365,-3.32068 -2.38085,-4.16792 -0.047,-5.54616 -1.74915,-16.27078 -3.04801,-19.20704 -0.84759,-1.91608 -1.58315,-4.60354 -1.63457,-5.97215 -0.0914,-2.42873 -1.3628,-3.64885 -1.3628,-1.30774 0,0.64935 -0.34078,0.97004 -0.75731,0.7126 -0.41651,-0.25741 -0.75731,-0.087 -0.75731,0.37866 0,0.46569 -0.30216,0.65995 -0.67149,0.43169 -0.36933,-0.22826 -1.09264,0.0924 -1.60732,0.71261 -0.74331,0.89556 -0.74186,1.36143 0.007,2.26359 0.70255,0.84653 0.71482,1.13597 0.0477,1.13597 -0.49209,0 -0.6865,0.33689 -0.43205,0.74862 0.26538,0.4293 -0.0387,0.55626 -0.71263,0.29765 -0.64802,-0.24869 -1.17526,-0.055 -1.17526,0.43202 0,0.48566 -0.36404,0.65805 -0.80897,0.38308 -0.4449,-0.27499 -0.61917,-0.99437 -0.38728,-1.59865 0.23545,-0.61354 0.091,-0.89439 -0.32707,-0.63601 -0.41176,0.25446 -0.74861,-0.0163 -0.74861,-0.60163 0,-0.58537 -0.5576,-2.18208 -1.23918,-3.54825 -1.7818,-3.57176 -2.02906,-9.14531 -0.45674,-10.29503 0.78056,-0.57078 1.21548,-1.90808 1.16778,-3.59102 -0.0591,-2.0724 0.4337,-3.13571 2.16787,-4.68086 1.23418,-1.09965 2.98886,-2.07129 3.89931,-2.15921 0.91051,-0.0879 2.4187,-0.58715 3.35162,-1.10938 1.40345,-0.7856 2.01051,-0.74357 3.51702,0.24353 1.1596,0.7598 2.53745,1.01317 3.79428,0.69772 1.55195,-0.38952 1.97348,-0.21783 1.97348,0.80378 0,0.78032 0.40879,1.14221 1.02373,0.90622 0.85583,-0.32839 0.86128,0.0621 0.0333,2.38025 -0.54473,1.5252 -1.00548,3.76861 -1.02372,4.98539 -0.0182,1.21675 -0.59873,2.83711 -1.28985,3.60078 -1.88609,2.08415 -3.31756,10.74172 -1.99468,12.06454 0.33677,0.33681 2.99523,0.65961 5.90768,0.71734 4.4845,0.0888 6.10711,-0.26667 10.59653,-2.32191 6.39835,-2.92912 6.13245,-2.69823 4.86563,-4.22459 -0.88946,-1.07176 -0.79216,-1.43367 0.71315,-2.65258 1.37778,-1.11564 1.6414,-1.87469 1.25783,-3.62124 -0.26696,-1.21533 -1.14765,-2.80904 -1.95704,-3.54158 -0.80942,-0.73251 -1.4717,-1.79021 -1.4717,-2.35045 0,-0.5602 -0.34078,-1.01858 -0.7573,-1.01858 -0.41652,0 -0.75731,-0.62441 -0.75731,-1.38755 0,-0.93562 0.89605,-1.66257 2.751,-2.23186 2.46573,-0.75677 2.90171,-0.6718 4.2052,0.81957 l 1.45426,1.66387 -0.51801,-1.89328 c -0.57638,-2.10649 -2.70812,-5.45697 -5.3001,-8.3304 -2.4605,-2.72755 -2.65672,-5.12861 -0.58827,-7.19702 0.92134,-0.92141 1.22494,-2.52366 1.16328,-6.14034 -0.0507,-2.96744 0.20395,-4.71606 0.64653,-4.4425 0.40152,0.24813 0.72997,0.12301 0.72997,-0.27804 0,-0.40103 1.89456,0.29699 4.21019,1.55118 5.60333,3.03487 6.14943,2.15532 0.79026,-1.27287 -5.84325,-3.73788 -11.31453,-4.78847 -15.87246,-3.0478 -1.8935,0.72312 -4.02344,1.95645 -4.73312,2.74068 -0.70974,0.78425 -1.72037,1.42589 -2.24593,1.42589 -0.52551,0 -1.06904,0.32328 -1.20793,0.71838 -0.13881,0.3951 -1.61558,0.0818 -3.28165,-0.69599 -1.67857,-0.78376 -2.4383,-1.44173 -1.70394,-1.4757 0.7289,-0.0338 1.32529,-0.51472 1.32529,-1.06888 0,-1.06055 6.11498,-5.8082 7.48092,-5.8082 0.43788,0 1.15703,-0.67423 1.59801,-1.49827 0.51178,-0.95627 2.76585,-2.09478 6.231,-3.14729 4.75976,-1.44575 5.8546,-1.53678 8.88051,-0.73843 1.89828,0.50086 5.28663,2.17273 7.52969,3.7153 2.24316,1.54255 4.89208,3.34999 5.88667,4.01652 2.81544,1.88699 7.65554,8.83256 9.40365,13.4944 1.01722,2.71287 1.58224,5.98936 1.57755,9.14898 -0.008,5.50893 -1.89585,15.78847 -3.56738,19.42585 -0.60319,1.31251 -1.09667,2.76549 -1.09667,3.22884 0,0.46336 -0.32344,1.43421 -0.71874,2.15747 -0.39525,0.72328 -2.13319,4.21173 -3.86206,7.75216 -3.8242,7.8314 -7.78568,13.19811 -11.32269,15.33894 -1.45783,0.88238 -4.79302,3.58551 -7.4115,6.00694 -2.61847,2.42146 -5.00399,4.43518 -5.30116,4.47495 -0.29717,0.0397 -2.96789,0.1262 -5.93495,0.19204 -5.25817,0.1167 -5.45454,0.0533 -7.76242,-2.50776 z m 29.20904,-24.45176 c 7.03716,-7.40541 10.89465,-25.7442 7.18104,-34.13932 -0.83222,-1.88147 -1.36528,-3.56878 -1.18443,-3.74958 0.18076,-0.18079 -0.2244,-0.78776 -0.90044,-1.34881 -1.12702,-0.93538 -1.13847,-0.80283 -0.13777,1.59603 2.66946,6.39869 3.05999,10.18356 1.72864,16.75383 -1.64154,8.10126 -4.19587,14.27119 -7.9871,19.29271 -3.38088,4.47793 -2.48445,5.57778 1.30006,1.59514 z m -43.83892,-17.28558 c -0.14918,-0.44777 -0.59507,-0.81411 -0.99078,-0.81411 -0.3957,0 -0.84152,0.36634 -0.99079,0.81411 -0.14927,0.44775 0.29656,0.8141 0.99079,0.8141 0.69423,0 1.14005,-0.36635 0.99078,-0.8141 z m 179.04541,34.54407 c -1.68388,-3.46589 -1.24516,-5.18576 0.72732,-2.85174 0.93415,1.1053 1.88313,6.22994 1.15376,6.22994 -0.13192,0 -0.97837,-1.52019 -1.88108,-3.3782 z m 3.63335,-6.43723 c -0.61274,-0.38749 -0.953,-0.86561 -0.75619,-1.06246 0.19691,-0.19684 1.0189,0.12541 1.8268,0.71614 1.61565,1.1814 0.71201,1.4737 -1.07061,0.34632 z M 149.46459,267.7166 c 0.0363,-0.88222 0.21578,-1.06167 0.45753,-0.45754 0.21877,0.54668 0.19187,1.19987 -0.0598,1.4515 -0.25163,0.25167 -0.43063,-0.19563 -0.39775,-0.99396 z m -1.02066,-19.18759 c -0.32942,-1.25967 -0.23086,-1.55533 0.33113,-0.99336 0.44007,0.44008 0.65112,1.24715 0.469,1.79351 -0.18905,0.56718 -0.53234,0.22389 -0.80013,-0.80015 z m 49.42868,-9.2828 c -1.08144,-0.45448 -1.49569,-0.94529 -0.96617,-1.14457 0.50996,-0.19188 1.69334,0.18779 2.62975,0.8437 1.92501,1.34831 1.15853,1.48693 -1.66358,0.30087 z m -13.85573,-17.26565 c 0.31685,-1.21154 0.66681,-1.34908 1.83806,-0.72227 0.79562,0.42582 1.77771,0.56963 2.18226,0.31956 0.40462,-0.25007 1.33476,-0.11375 2.06701,0.303 1.02305,0.58228 0.58614,0.71827 -1.88729,0.58742 -1.77021,-0.0936 -3.21858,0.0951 -3.21858,0.41928 0,0.32425 -0.3089,0.58955 -0.68642,0.58955 -0.37751,0 -0.51028,-0.67345 -0.29504,-1.49654 z m 202.43742,0.59459 c -0.007,-0.70432 0.32919,-1.49121 0.74571,-1.74864 0.95845,-0.59234 0.95845,0.41018 0,1.89328 -0.63266,0.97897 -0.73573,0.95897 -0.74571,-0.14464 z m -234.32317,-2.76201 c -0.24075,-0.38955 0.0394,-1.10423 0.62248,-1.58817 0.62698,-0.52036 1.23904,-0.59049 1.49796,-0.17162 0.24076,0.38955 -0.0394,1.10423 -0.62251,1.58816 -0.62697,0.52036 -1.23904,0.59048 -1.49793,0.17163 z m 2.19618,-24.3565 c 0.2574,-0.41652 0.61835,-0.75731 0.80197,-0.75731 0.18373,0 0.33399,0.34079 0.33399,0.75731 0,0.41651 -0.36093,0.75731 -0.802,0.75731 -0.44112,0 -0.59137,-0.3408 -0.33396,-0.75731 z m -0.37866,-5.30118 c 0,-0.83304 0.34079,-1.51461 0.75731,-1.51461 0.41652,0 0.75731,0.68157 0.75731,1.51461 0,0.83306 -0.34079,1.51464 -0.75731,1.51464 -0.41652,0 -0.75731,-0.68158 -0.75731,-1.51464 z m 22.02173,-0.44175 c 0.0363,-0.88223 0.21584,-1.06168 0.45756,-0.45755 0.21879,0.54669 0.19191,1.19986 -0.0599,1.45152 -0.25166,0.25164 -0.43068,-0.19563 -0.39781,-0.99397 z m -25.80828,-7.88864 c 0,-0.41654 0.51118,-0.75731 1.13597,-0.75731 0.62478,0 1.13596,0.34077 1.13596,0.75731 0,0.41651 -0.51118,0.7573 -1.13596,0.7573 -0.62479,0 -1.13597,-0.34079 -1.13597,-0.7573 z m 0.7573,-11.35965 c 0,-0.41653 0.70171,-0.75731 1.55932,-0.75731 0.85765,0 1.34868,0.34078 1.09127,0.75731 -0.2574,0.41651 -0.95913,0.75731 -1.55932,0.75731 -0.60019,0 -1.09127,-0.3408 -1.09127,-0.75731 z m 271.50089,-9.07905 c -0.26536,-0.42928 0.0387,-0.55624 0.71262,-0.29762 1.31197,0.50345 1.55196,1.04627 0.46266,1.04627 -0.39193,0 -0.92083,-0.3369 -1.17528,-0.74865 z M 140.08714,149.52494 c 0.1954,-0.50923 0.83826,-0.74052 1.42857,-0.514 1.53497,0.58902 1.32503,1.43986 -0.35529,1.43986 -0.81463,0 -1.27588,-0.39788 -1.07328,-0.92586 z m 8.0073,-7.78482 c 0.0607,-0.8042 0.38019,-1.29525 0.71026,-1.09126 0.83971,0.51895 0.75194,2.55341 -0.1102,2.55341 -0.39064,0 -0.66069,-0.65796 -0.60011,-1.46215 z m 14.18461,-2.17757 c 0,-0.39528 0.51119,-1.14292 1.13597,-1.66146 0.62478,-0.51851 1.13596,-0.70629 1.13596,-0.41728 0,0.28902 -0.51118,1.03668 -1.13596,1.66145 -0.62478,0.62477 -1.13597,0.81256 -1.13597,0.41729 z m 8.0568,-4.67374 c 0.58752,-1.17761 1.57498,-2.33559 2.19445,-2.5733 0.99511,-0.38187 0.99625,-0.18073 0.008,1.72762 -0.61433,1.1879 -1.60179,2.34588 -2.19446,2.5733 -0.93013,0.35692 -0.93142,0.12061 -0.008,-1.72762 z M 147.68822,103.7282 c 0.51372,-0.51757 1.12478,-0.75025 1.35796,-0.51709 0.23317,0.23317 -0.18715,0.65664 -0.93402,0.94102 -1.07931,0.41099 -1.1663,0.32401 -0.42394,-0.42393 z m -8.88577,-0.70804 c 0,-0.4411 0.3408,-0.59139 0.75733,-0.33395 0.41651,0.25741 0.7573,0.61832 0.7573,0.802 0,0.18367 -0.34079,0.33395 -0.7573,0.33395 -0.41653,0 -0.75733,-0.36089 -0.75733,-0.802 z M 86.607885,85.962265 c 0.03632,-0.88222 0.215785,-1.061672 0.457532,-0.457535 0.218768,0.546681 0.191871,1.199861 -0.05976,1.451518 -0.25165,0.251636 -0.430636,-0.195646 -0.397752,-0.993983 z m 5.099378,0.68175 c 0.54669,-0.218767 1.199871,-0.19186 1.451528,0.05973 0.251636,0.251646 -0.195657,0.430637 -0.993984,0.397758 -0.882219,-0.03633 -1.061673,-0.215791 -0.457544,-0.457535 z M 370.16054,84.889416 c -0.25741,-0.416526 -0.10711,-0.757308 0.33398,-0.757308 0.44105,0 0.80199,0.340782 0.80199,0.757308 0,0.416518 -0.15026,0.75731 -0.33398,0.75731 -0.18365,0 -0.54458,-0.340792 -0.80199,-0.75731 z m -228.26906,-1.95638 c 0.0363,-0.882219 0.21579,-1.061672 0.45753,-0.457545 0.21877,0.546682 0.19188,1.199872 -0.0598,1.451508 -0.25164,0.251646 -0.43063,-0.195636 -0.39774,-0.993963 z m 6.05848,-0.757309 c 0.0363,-0.88222 0.21579,-1.061673 0.45754,-0.457544 0.21876,0.54667 0.19186,1.19987 -0.0598,1.451506 -0.25165,0.251647 -0.43064,-0.195636 -0.39777,-0.993962 z m -39.43989,-1.853935 c 0,-0.403442 0.51119,-0.733552 1.13597,-0.733552 0.62478,0 1.13595,0.13395 1.13595,0.29764 0,0.163701 -0.51117,0.49378 -1.13595,0.733543 -0.62478,0.239753 -1.13597,0.105771 -1.13597,-0.297631 z m 78.76021,-1.031173 c 0,-0.1637 0.5289,-0.500583 1.17527,-0.748638 0.67401,-0.258625 0.97799,-0.131663 0.71262,0.297631 -0.44469,0.719596 -1.88789,1.06436 -1.88789,0.451007 z m 2.08259,-1.739019 c -0.7289,-0.190485 -1.32528,-0.66214 -1.32528,-1.048116 0,-1.104496 1.98884,-0.819437 3.02923,0.434188 0.95323,1.148601 0.69635,1.241186 -1.70395,0.613928 z m 36.22523,-2.778752 c 0.52232,-1.36113 3.34421,-1.733315 3.34421,-0.441064 0,0.441104 -0.35571,0.582147 -0.79048,0.313455 -0.43477,-0.268712 -1.29455,-0.07019 -1.91062,0.441064 -0.92346,0.766402 -1.03638,0.711356 -0.64311,-0.313455 z m 136.67339,-0.05572 c -0.5117,-0.616607 -0.67452,-1.535072 -0.36183,-2.041054 0.38864,-0.62892 0.77382,-0.365051 1.21746,0.834071 0.79486,2.148855 0.39463,2.713454 -0.85563,1.206983 z m -218.12594,-1.91513 c -0.61271,-0.387496 -0.91709,-0.901482 -0.67637,-1.142199 0.59657,-0.596565 2.92638,0.353744 2.92638,1.193642 0,0.863174 -0.83394,0.844107 -2.25001,-0.05141 z m 271.6629,-0.900558 c -2.42179,-1.775995 -2.68005,-2.915545 -0.66068,-2.915545 1.72751,0 3.33951,1.787313 2.99517,3.320979 -0.20782,0.925433 -0.61646,0.85445 -2.33449,-0.405434 z m -259.94653,0.113745 c -0.2574,-0.416528 -0.13503,-0.75731 0.27203,-0.75731 0.40706,0 1.36429,-0.23652 2.12728,-0.525613 1.2994,-0.492323 1.30675,-0.444336 0.11607,0.75731 -1.47054,1.484099 -1.87124,1.567838 -2.51533,0.525613 z m 28.39912,-1.51462 c -0.9708,-0.627381 -0.94323,-0.7358 0.18932,-0.745713 0.7289,-0.0062 1.3253,0.329187 1.3253,0.745713 0,0.923617 -0.0854,0.923617 -1.51462,0 z m 42.97731,-2.016178 c 0.52066,-0.210084 1.37264,-0.210084 1.89328,0 0.52065,0.210096 0.0947,0.381986 -0.94663,0.381986 -1.04129,0 -1.46728,-0.17189 -0.94665,-0.381986 z m -65.69661,-2.446661 c 0,-0.371958 0.49385,-0.865789 1.09743,-1.097394 0.73345,-0.281457 0.95768,-0.05716 0.67627,0.67628 -0.45969,1.19786 -1.7737,1.509838 -1.7737,0.421114 z m -40.36925,-3.594544 c -0.89355,-0.893549 0.30278,-1.787867 2.35913,-1.763557 1.95547,0.02309 1.97845,0.06906 0.56788,1.13596 -1.62169,1.226594 -2.2033,1.351299 -2.92701,0.627597 z m 21.56,-15.4231 c 0.1565,-1.054581 1.28011,-2.250945 2.90576,-3.093901 1.45782,-0.755935 3.09898,-1.765704 3.64704,-2.243937 0.54806,-0.478247 1.14003,-0.725959 1.31551,-0.550482 0.17547,0.175489 -1.58052,1.959022 -3.90221,3.963433 -3.6445,3.146419 -4.1864,3.409435 -3.9661,1.924887 z M 126.83975,44.02919 c 1.04492,-1.673186 1.78062,-1.464628 1.09905,0.311542 -0.24665,0.642743 -0.80282,1.168633 -1.23594,1.168633 -0.49842,0 -0.44818,-0.543339 0.13689,-1.480175 z m -9.24195,-1.54906 c 0,-0.416527 0.34078,-0.757308 0.7573,-0.757308 0.41653,0 0.75731,0.340781 0.75731,0.757308 0,0.416515 -0.34078,0.757308 -0.75731,0.757308 -0.41652,0 -0.7573,-0.340793 -0.7573,-0.757308 z m 28.77776,-3.786557 c 0,-0.416514 0.34079,-0.757309 0.75731,-0.757309 0.41651,0 0.75729,0.340795 0.75729,0.757309 0,0.416526 -0.34078,0.75731 -0.75729,0.75731 -0.41652,0 -0.75731,-0.340784 -0.75731,-0.75731 z m -9.28967,-0.851275 c 0.5137,-0.517572 1.12478,-0.750253 1.35796,-0.517081 0.23316,0.233172 -0.18714,0.656619 -0.93401,0.941019 -1.07933,0.410981 -1.16631,0.323985 -0.42395,-0.423938 z m 12.3189,-0.203662 c 0,-0.163698 0.52889,-0.500578 1.1753,-0.748634 0.67394,-0.25862 0.97792,-0.131659 0.71262,0.297628 -0.44473,0.719602 -1.88792,1.06436 -1.88792,0.451006 z m -13.25292,-2.731608 c -0.25742,-0.416514 0.25377,-0.757309 1.13597,-0.757309 0.88221,0 1.39339,0.340795 1.13596,0.757309 -0.25742,0.416527 -0.7686,0.757309 -1.13596,0.757309 -0.36735,0 -0.87854,-0.340782 -1.13597,-0.757309 z m 13.11094,0.239982 c 0.54666,-0.218754 1.19986,-0.191858 1.4515,0.05976 0.25164,0.251639 -0.19564,0.430638 -0.99396,0.397754 -0.88223,-0.03632 -1.06167,-0.215786 -0.45754,-0.457534 z m 41.03669,-6.788295 -3.40787,-1.003267 3.37949,0.402576 c 3.25551,0.387826 4.41807,0.805249 3.75185,1.347239 -0.17357,0.141195 -1.84912,-0.194754 -3.72347,-0.746548 z m 7.57311,-1.024776 -2.65059,-0.55793 2.3993,-0.09964 c 1.31963,-0.05485 2.94224,-0.308032 3.60588,-0.562664 0.88301,-0.338856 1.08089,-0.135846 0.73821,0.757308 -0.25756,0.67116 -0.6874,1.175418 -0.95526,1.120595 -0.2678,-0.05485 -1.67972,-0.35077 -3.13754,-0.657625 z M 173.6387,26.424552 c 0,-0.33288 1.19275,-0.605231 2.65059,-0.605231 1.45782,0 2.65057,0.133108 2.65057,0.295787 0,0.162703 -1.19275,0.435054 -2.65057,0.605244 -1.45784,0.1702 -2.65059,0.03706 -2.65059,-0.2958 z m -31.04968,-0.605231 c -0.91859,-0.593636 -0.80991,-0.73634 0.56797,-0.745726 0.93717,-0.0062 1.70395,0.329199 1.70395,0.745726 0,0.948848 -0.80369,0.948848 -2.27192,0 z m 37.86547,-1.370761 c 0,-0.39849 0.70105,-0.907841 1.55787,-1.131908 0.991,-0.259148 1.45038,-0.08466 1.2625,0.479657 -0.36259,1.089257 -2.82037,1.65764 -2.82037,0.652251 z m 7.4311,0.09607 c 0.5467,-0.218767 1.19987,-0.19187 1.45153,0.05976 0.25166,0.251639 -0.19569,0.430638 -0.99398,0.397753 -0.88225,-0.03632 -1.06167,-0.215786 -0.45755,-0.457533 z m 11.69097,-4.402034 c -1.24941,-1.419056 -1.20723,-1.554484 0.52489,-1.684966 1.04334,-0.07852 1.33952,0.23321 1.01791,1.071453 -0.37245,0.970455 0.0425,1.124374 2.31493,0.859066 1.5228,-0.177771 2.76873,-0.05092 2.76873,0.282008 0,1.047685 -5.63455,0.599083 -6.62646,-0.527561 z m 106.96998,-2.256365 c -1.40579,-1.149356 -1.83881,-1.858725 -1.13596,-1.860664 1.55408,-0.0049 4.00563,1.943832 3.67635,2.921391 -0.14766,0.438234 -1.29082,-0.03913 -2.54039,-1.060727 z m -89.88319,0.599918 c 0.54671,-0.218766 1.19988,-0.191857 1.45155,0.05976 0.25164,0.251651 -0.1957,0.430638 -0.99397,0.397754 -0.88227,-0.03632 -1.06167,-0.215785 -0.45758,-0.457535 z m 3.73263,-1.114508 c 0.5171,-0.636963 0.71589,-1.382344 0.44182,-1.656413 -0.27407,-0.274057 -0.14246,-0.498297 0.29248,-0.498297 0.43492,0 1.21503,0.511181 1.73355,1.135958 0.57087,0.68781 0.63183,1.135969 0.15465,1.135969 -0.43342,0 -1.41232,0.234203 -2.17531,0.520444 -1.16967,0.43881 -1.23978,0.338782 -0.44719,-0.637661 z m -64.87296,-1.08191 c 0.0363,-0.88222 0.21583,-1.061673 0.45756,-0.457533 0.21879,0.546677 0.1919,1.199861 -0.06,1.451513 -0.25165,0.251637 -0.43069,-0.195652 -0.39781,-0.99398 z m 53.91294,-1.597662 c 0.73687,-0.192006 1.75925,-0.179379 2.27194,0.0281 0.51277,0.207455 -0.0901,0.36455 -1.33969,0.349115 -1.24954,-0.01546 -1.66902,-0.185159 -0.93225,-0.377176 z m -17.06649,-3.35571 c 0.51376,-0.517561 1.12482,-0.750242 1.35801,-0.517083 0.2331,0.233172 -0.18721,0.656632 -0.93408,0.941019 -1.07931,0.410981 -1.16625,0.323997 -0.42393,-0.423936 z m 3.08921,-0.42335 c 0.54671,-0.218767 1.19989,-0.19187 1.45153,0.05976 0.25167,0.251638 -0.19568,0.430636 -0.99396,0.397753 -0.88227,-0.03632 -1.06167,-0.215798 -0.45757,-0.457547 z"
       id="path1" />
  </g>
</svg>
