<svg id="icon" viewBox="0 0 100 100" version="1.1" xmlns:inkscape="http://www.inkscape.org/namespaces/inkscape"
    xmlns:sodipodi="http://sodipodi.sourceforge.net/DTD/sodipodi-0.dtd" xmlns="http://www.w3.org/2000/svg"
    xmlns:svg="http://www.w3.org/2000/svg">
    <defs id="defs1" />
    <sodipodi:namedview id="namedview1" pagecolor="#ffffff" bordercolor="#000000" borderopacity="0.25"
        inkscape:showpageshadow="2" inkscape:pageopacity="0.0" inkscape:pagecheckerboard="0"
        inkscape:deskcolor="#d1d1d1" inkscape:zoom="8.639961" inkscape:cx="82.002685" inkscape:cy="57.928502"
        inkscape:window-width="2560" inkscape:window-height="1369" inkscape:window-x="-8" inkscape:window-y="-8"
        inkscape:window-maximized="1" inkscape:current-layer="icon" />
    <title id="title1" />
    <path
        d="m 49.892583,33.380556 a 7.9163756,7.9163756 0 1 0 0,15.832749 7.9163756,7.9163756 0 1 0 0,-15.832749 z M 27.716368,57.044558 25.96951,56.600444 C 12.949497,53.310279 5.4809395,47.725515 5.4809395,41.282127 c 0,-6.44339 7.4685575,-12.028154 20.4885705,-15.318316 l 1.746858,-0.440416 0.492229,1.732053 a 87.083833,87.083833 0 0 0 5.044423,13.242073 l 0.373797,0.788305 -0.373797,0.788307 a 86.258517,86.258517 0 0 0 -5.044423,13.242072 z m -2.55737,-27.035587 c -9.896395,2.779428 -15.9696858,7.031844 -15.9696858,11.273156 0,4.23761 6.0732908,8.490024 15.9696858,11.273155 A 92.339202,92.339202 0 0 1 29.533544,41.282127 91.606417,91.606417 0 0 1 25.158998,30.008971 Z m 46.9098,27.035587 -0.492229,-1.735754 A 86.443565,86.443565 0 0 0 66.528444,42.070433 l -0.373797,-0.788306 0.373797,-0.788308 a 86.676726,86.676726 0 0 0 5.048125,-13.242071 l 0.492229,-1.732054 1.750559,0.440416 c 13.016313,3.290162 20.484868,8.874925 20.484868,15.322017 0,6.447088 -7.468555,12.028152 -20.484868,15.318317 z M 70.251622,41.282127 c 1.776465,3.845308 3.245751,7.623996 4.374546,11.273155 9.900095,-2.783131 15.969686,-7.035545 15.969686,-11.273155 0,-4.241312 -6.073291,-8.490027 -15.969686,-11.273156 A 91.739648,91.739648 0 0 1 70.251622,41.282127 Z M 25.133092,29.990467 24.640863,28.262112 C 20.980602,15.36053 22.090894,6.1155067 27.68676,2.8882594 33.175299,-0.27977046 41.987309,3.4619107 51.221231,12.940096 l 1.258329,1.291637 -1.258329,1.29164 A 87.165255,87.165255 0 0 0 42.25748,26.504151 l -0.49963,0.714289 -0.869728,0.07402 A 87.553855,87.553855 0 0 0 26.87995,29.550046 Z M 32.150131,5.4530323 c -0.991861,0 -1.86899,0.214657 -2.609185,0.6402689 -3.678765,2.1206551 -4.330135,9.4929898 -1.794969,19.4411968 a 92.975785,92.975785 0 0 1 11.965235,-1.854187 91.958007,91.958007 0 0 1 7.594393,-9.415267 C 41.53209,8.6432692 36.065757,5.4530323 32.150131,5.4530323 Z M 67.638735,80.812191 c -0.0037,0 -0.0037,0 0,0 -5.273881,0 -12.046657,-3.97114 -19.074801,-11.188033 l -1.258329,-1.29164 1.258329,-1.291639 A 87.083833,87.083833 0 0 0 57.523985,56.0564 l 0.49963,-0.714287 0.866027,-0.07401 a 87.45393,87.45393 0 0 0 14.015574,-2.253887 l 1.746859,-0.440416 0.495929,1.732054 c 3.652859,12.894181 2.546267,22.142906 -3.049599,25.36645 a 8.8083093,8.8083093 0 0 1 -4.45967,1.139897 z M 52.47956,68.299211 c 5.773516,5.621772 11.239848,8.81201 15.155474,8.81201 h 0.0037 c 0.98816,0 1.86899,-0.214658 2.605482,-0.640269 3.678766,-2.120656 4.333838,-9.49669 1.794973,-19.444897 a 92.598279,92.598279 0 0 1 -11.968996,1.854184 91.317738,91.317738 0 0 1 -7.590689,9.418972 z M 74.652075,29.990467 72.905216,29.550051 A 86.895083,86.895083 0 0 0 58.889642,27.292458 l -0.866027,-0.07402 -0.49963,-0.71429 A 86.65452,86.65452 0 0 0 48.563934,15.523373 l -1.258329,-1.29164 1.258329,-1.291637 C 57.794155,3.4656119 66.602464,-0.27606906 72.098405,2.8882594 77.694271,6.1155067 78.804564,15.36053 75.148004,28.258411 Z M 60.070251,23.680311 c 4.22651,0.384902 8.242062,1.010366 11.968938,1.854187 C 74.578055,15.586291 73.922984,8.2139563 70.244219,6.0933012 66.58766,3.9800467 59.714959,7.2183952 52.47956,14.265044 a 91.965421,91.965421 0 0 1 7.590691,9.415267 z m -27.92012,57.13188 A 8.8083093,8.8083093 0 0 1 27.68676,79.672292 C 22.090894,76.448745 20.980602,67.203722 24.640863,54.305841 l 0.488526,-1.732054 1.746858,0.440416 c 4.27462,1.076982 8.989657,1.835681 14.008173,2.25389 l 0.869728,0.07401 0.495931,0.714287 a 87.328098,87.328098 0 0 0 8.96375,10.98448 l 1.258331,1.291639 -1.258331,1.291639 C 44.189387,76.841054 37.416611,80.812194 32.150131,80.812194 Z M 27.745977,57.026055 c -2.538866,9.948207 -1.883796,17.324241 1.794969,19.444897 3.652858,2.083647 10.521859,-1.128795 17.764659,-8.171741 A 92.516862,92.516862 0 0 1 39.711212,58.880239 92.435427,92.435427 0 0 1 27.745977,57.026055 Z m 22.146606,2.324208 c -3.045899,0 -6.17692,-0.133235 -9.311643,-0.392303 l -0.869728,-0.07401 -0.49963,-0.714288 a 112.46509,112.46509 0 0 1 -4.996309,-7.853464 112.33925,112.33925 0 0 1 -4.315332,-8.245762 l -0.370099,-0.788306 0.370099,-0.788308 a 112.13941,112.13941 0 0 1 4.315332,-8.245759 c 1.532201,-2.649898 3.216141,-5.29239 4.996309,-7.853462 l 0.49963,-0.714287 0.869728,-0.07401 a 110.2334,110.2334 0 0 1 18.626986,0 l 0.866028,0.07401 0.495928,0.714287 a 111.05131,111.05131 0 0 1 9.315343,16.099221 l 0.373797,0.788308 -0.373797,0.788306 a 109.54872,109.54872 0 0 1 -9.315343,16.099216 l -0.495928,0.714287 -0.866028,0.07401 c -3.134724,0.259071 -6.269444,0.392307 -9.315343,0.392307 z m -8.131032,-4.011852 c 5.477436,0.410809 10.784629,0.410809 16.265765,0 a 107.35035,107.35035 0 0 0 8.127331,-14.056284 105.79223,105.79223 0 0 0 -8.131032,-14.056287 107.44286,107.44286 0 0 0 -16.262064,0 105.39254,105.39254 0 0 0 -8.131033,14.056287 107.75005,107.75005 0 0 0 8.131033,14.056284 z"
        id="path1" style="stroke-width:3.70097" />
</svg>