<?xml version="1.0" encoding="UTF-8" standalone="no"?>
<!-- Uploaded to: SVG Repo, www.svgrepo.com, Generator: SVG Repo Mixer Tools -->

<svg
   height="50"
   width="48"
   version="1.1"
   id="icon"
   viewBox="0 0 96 100"
   xml:space="preserve"
   sodipodi:docname="light-bulb-on.svg"
   inkscape:version="1.3 (0e150ed6c4, 2023-07-21)"
   xmlns:inkscape="http://www.inkscape.org/namespaces/inkscape"
   xmlns:sodipodi="http://sodipodi.sourceforge.net/DTD/sodipodi-0.dtd"
   xmlns="http://www.w3.org/2000/svg"
   xmlns:svg="http://www.w3.org/2000/svg"><defs
   id="defs10" /><sodipodi:namedview
   id="namedview10"
   borderopacity="0.25"
   inkscape:showpageshadow="2"
   inkscape:pageopacity="0.0"
   inkscape:pagecheckerboard="0"
   inkscape:deskcolor="#d1d1d1"
   inkscape:zoom="8.2943625"
   inkscape:cx="49.190037"
   inkscape:cy="61.427264"
   inkscape:window-width="2560"
   inkscape:window-height="1369"
   inkscape:window-x="1912"
   inkscape:window-y="-8"
   inkscape:window-maximized="1"
   inkscape:current-layer="Capa_1" />&#10;<g
   id="g10"
   transform="matrix(0.21463814,0,0,-0.21463814,-1.6666652,99.876707)"
   inkscape:export-filename="g10.svg"
   inkscape:export-xdpi="96"
   inkscape:export-ydpi="96">&#10;	<path
   d="m 232.663,91.693 c -77.285,0 -140.161,60.841 -140.161,135.624 0,48.374 19.637,77.182 33.976,98.218 8.42,12.336 13.184,19.647 13.184,26.444 0,15.278 6.888,29.956 19.52,41.857 -9.137,3.202 -15.651,11.93 -15.651,22.02 0,12.873 10.474,23.347 23.348,23.347 h 1.141 c 1.809,8.452 8.26,26.123 30.47,26.123 h 68.396 c 16.952,0 28.007,-9.479 30.669,-26.123 h 3.258 c 12.875,0 23.349,-10.474 23.349,-23.347 0,-10.82 -7.4,-19.945 -17.405,-22.58 12.244,-11.773 18.909,-26.232 18.909,-41.297 0,-6.785 4.798,-14.16 13.278,-26.609 l 0.068,-0.1 c 14.27,-20.927 33.814,-49.588 33.814,-97.953 C 372.824,152.534 309.948,91.693 232.663,91.693 Z"
   id="path1" />&#10;</g>&#10;</svg>
