<?xml version="1.0" encoding="UTF-8" standalone="no"?>
<!-- Uploaded to: SVG Repo, www.svgrepo.com, Generator: SVG Repo Mixer Tools -->

<svg
   height="50"
   width="48"
   version="1.1"
   id="icon"
   viewBox="0 0 96 100"
   xml:space="preserve"
   sodipodi:docname="light-bulb-on.svg"
   inkscape:version="1.3 (0e150ed6c4, 2023-07-21)"
   xmlns:inkscape="http://www.inkscape.org/namespaces/inkscape"
   xmlns:sodipodi="http://sodipodi.sourceforge.net/DTD/sodipodi-0.dtd"
   xmlns="http://www.w3.org/2000/svg"
   xmlns:svg="http://www.w3.org/2000/svg"><defs
   id="defs10" /><sodipodi:namedview
   id="namedview10"
   borderopacity="0.25"
   inkscape:showpageshadow="2"
   inkscape:pageopacity="0.0"
   inkscape:pagecheckerboard="0"
   inkscape:deskcolor="#d1d1d1"
   inkscape:zoom="8.2943625"
   inkscape:cx="49.190037"
   inkscape:cy="61.427264"
   inkscape:window-width="2560"
   inkscape:window-height="1369"
   inkscape:window-x="1912"
   inkscape:window-y="-8"
   inkscape:window-maximized="1"
   inkscape:current-layer="Capa_1" />&#10;<g
   id="g10"
   transform="matrix(0.21463814,0,0,-0.21463814,-1.6666652,99.876707)"
   inkscape:export-filename="g10.svg"
   inkscape:export-xdpi="96"
   inkscape:export-ydpi="96">&#10;	<path
   d="m 232.663,91.693 c -77.285,0 -140.161,60.841 -140.161,135.624 0,48.374 19.637,77.182 33.976,98.218 8.42,12.336 13.184,19.647 13.184,26.444 0,15.278 6.888,29.956 19.52,41.857 -9.137,3.202 -15.651,11.93 -15.651,22.02 0,12.873 10.474,23.347 23.348,23.347 h 1.141 c 1.809,8.452 8.26,26.123 30.47,26.123 h 68.396 c 16.952,0 28.007,-9.479 30.669,-26.123 h 3.258 c 12.875,0 23.349,-10.474 23.349,-23.347 0,-10.82 -7.4,-19.945 -17.405,-22.58 12.244,-11.773 18.909,-26.232 18.909,-41.297 0,-6.785 4.798,-14.16 13.278,-26.609 l 0.068,-0.1 c 14.27,-20.927 33.814,-49.588 33.814,-97.953 C 372.824,152.534 309.948,91.693 232.663,91.693 Z"
   id="path1" />&#10;	<path
   d="m 232.663,52.976 c 6.802,0 12.336,-5.528 12.336,-12.323 V 12.349 C 244.999,5.54 239.465,0 232.663,0 225.861,0 220.327,5.54 220.327,12.349 v 28.304 c 0,6.795 5.535,12.323 12.336,12.323 z"
   id="path2" />&#10;	<path
   d="m 129.857,71.576 c 2.259,3.791 6.36,6.146 10.703,6.146 2.199,0 4.339,-0.589 6.129,-1.669 2.871,-1.638 4.922,-4.294 5.776,-7.478 0.851,-3.172 0.415,-6.5 -1.233,-9.385 L 137.058,34.667 c -2.193,-3.818 -6.289,-6.189 -10.687,-6.189 -2.161,0 -4.299,0.576 -6.188,1.668 -2.841,1.647 -4.871,4.313 -5.716,7.506 -0.844,3.189 -0.402,6.51 1.24,9.342 z"
   id="path3" />&#10;	<path
   d="m 42.419,129.34 24.496,14.107 c 1.866,1.108 4,1.694 6.174,1.694 4.448,0 8.453,-2.305 10.722,-6.181 3.387,-5.861 1.361,-13.424 -4.53,-16.866 l -24.525,-14.15 c -1.87,-1.083 -3.999,-1.655 -6.158,-1.655 -4.423,0 -8.53,2.379 -10.709,6.192 -3.376,5.825 -1.356,13.381 4.53,16.859 z"
   id="path4" />&#10;	<path
   d="m 60.742,224.909 c 0,-6.808 -5.534,-12.347 -12.336,-12.347 H 20.101 c -6.802,0 -12.336,5.539 -12.336,12.347 0,6.809 5.534,12.349 12.336,12.349 h 28.305 c 6.802,-0.001 12.336,-5.541 12.336,-12.349 z"
   id="path5" />&#10;	<path
   d="m 73.132,304.698 c -2.157,0 -4.294,0.57 -6.187,1.656 l -24.521,14.172 c -2.868,1.643 -4.917,4.296 -5.771,7.471 -0.853,3.169 -0.414,6.481 1.222,9.304 2.172,3.833 6.266,6.215 10.684,6.215 2.171,0 4.308,-0.564 6.19,-1.639 l 24.559,-14.142 c 5.868,-3.468 7.887,-11.04 4.506,-16.874 -2.19,-3.802 -6.283,-6.163 -10.682,-6.163 z"
   id="path6" />&#10;	<path
   d="m 422.911,320.532 -24.527,-14.176 c -1.871,-1.085 -4,-1.658 -6.156,-1.658 -4.377,0 -8.478,2.353 -10.711,6.157 -3.384,5.84 -1.364,13.412 4.53,16.896 l 24.541,14.131 c 1.874,1.068 3.993,1.633 6.13,1.633 4.367,0 8.469,-2.343 10.729,-6.152 1.643,-2.867 2.079,-6.191 1.228,-9.36 -0.855,-3.179 -2.905,-5.835 -5.764,-7.471 z"
   id="path7" />&#10;	<path
   d="m 445.225,212.562 h -28.304 c -6.803,0 -12.337,5.539 -12.337,12.347 0,6.809 5.534,12.349 12.337,12.349 h 28.304 c 6.802,0 12.336,-5.54 12.336,-12.349 0,-6.808 -5.534,-12.347 -12.336,-12.347 z"
   id="path8" />&#10;	<path
   d="m 392.238,145.142 c 2.174,0 4.309,-0.586 6.139,-1.675 l 24.52,-14.121 c 2.859,-1.631 4.908,-4.286 5.769,-7.475 0.863,-3.199 0.427,-6.534 -1.22,-9.375 -2.188,-3.829 -6.287,-6.207 -10.695,-6.207 -2.153,0 -4.286,0.57 -6.176,1.653 l -24.557,14.167 c -5.853,3.46 -7.873,11.019 -4.481,16.89 2.266,3.79 6.367,6.143 10.701,6.143 z"
   id="path9" />&#10;	<path
   d="m 318.592,75.977 c 1.864,1.107 3.999,1.692 6.174,1.692 4.363,0 8.464,-2.335 10.725,-6.132 l 14.123,-24.535 c 1.652,-2.851 2.09,-6.18 1.232,-9.372 -0.858,-3.19 -2.906,-5.851 -5.745,-7.478 -1.872,-1.095 -4.003,-1.674 -6.162,-1.674 -4.389,0 -8.478,2.372 -10.667,6.183 l -14.176,24.526 c -1.649,2.846 -2.088,6.16 -1.235,9.334 0.855,3.18 2.904,5.836 5.731,7.456 z"
   id="path10" />&#10;</g>&#10;</svg>
